SplineFontDB: 3.0
FontName: Untitled1
FullName: Untitled1
FamilyName: Untitled1
Weight: Regular
Copyright: Copyright (c) 2018, skef
UComments: "2018-9-26: Created with FontForge (http://fontforge.org)"
Version: 001.000
ItalicAngle: 0
UnderlinePosition: -100
UnderlineWidth: 50
Ascent: 800
Descent: 200
InvalidEm: 0
LayerCount: 2
Layer: 0 0 "Back" 1
Layer: 1 0 "Fore" 0
XUID: [1021 926 -1343877637 13090947]
OS2Version: 0
OS2_WeightWidthSlopeOnly: 0
OS2_UseTypoMetrics: 1
CreationTime: 1538002910
ModificationTime: 1538002910
OS2TypoAscent: 0
OS2TypoAOffset: 1
OS2TypoDescent: 0
OS2TypoDOffset: 1
OS2TypoLinegap: 0
OS2WinAscent: 0
OS2WinAOffset: 1
OS2WinDescent: 0
OS2WinDOffset: 1
HheadAscent: 0
HheadAOffset: 1
HheadDescent: 0
HheadDOffset: 1
OS2Vendor: 'PfEd'
DEI: 91125
Encoding: UnicodeFull
UnicodeInterp: none
NameList: AGL For New Fonts
DisplaySize: -48
AntiAlias: 1
FitToEm: 0
WinInfo: 1114464 16 5
BeginChars: 1116352 448

StartChar: uni2077.Display.1
Encoding: 1115680 -1 0
Width: 0
VWidth: 0
Flags: H
LayerCount: 2
Fore
SplineSet
111 691 m 2
 83 691 76 685 64 637 c 1
 43 640 l 1
 48 668 55 708 56 734 c 1
 74 734 l 1
 74 730 79 729 95 729 c 2
 269 729 l 1
 216 638 159 516 128 411 c 1
 94 411 l 1
 129 522 185 646 211 691 c 1
 111 691 l 2
EndSplineSet
Comment: "DR(170 166 148 146 144 143 142 141), aDRS(154 153 151 150 148 147 144 143 142)"
EndChar

StartChar: uni2077.DisplayItalic.1
Encoding: 1115696 -1 1
Width: 0
VWidth: 0
Flags: H
LayerCount: 2
Fore
SplineSet
248.098632812 691 m 0
 220.098632812 691 211.823242188 685 189.62109375 637 c 1
 169.258789062 640 l 1
 180.209960938 668 195.712890625 708 202.239257812 734 c 1
 220.239257812 734 l 1
 219.388671875 730 224.17578125 729 240.17578125 729 c 2
 414.17578125 729 l 1
 341.833007812 638 258.90234375 516 205.583007812 411 c 1
 171.583007812 411 l 1
 230.176757812 522 312.534179688 646 348.099609375 691 c 1
 248.098632812 691 l 0
EndSplineSet
Comment: "aDRL(153 151 150 148 147 144)"
EndChar

StartChar: uni2077.DisplayItalic.2
Encoding: 1115697 -1 2
Width: 0
VWidth: 0
Flags: H
LayerCount: 2
Fore
SplineSet
248.098632812 691 m 2
 220.098632812 691 211.823242188 685 189.62109375 637 c 1
 169.258789062 640 l 1
 180.209960938 668 195.712890625 708 202.239257812 734 c 1
 220.239257812 734 l 1
 219.388671875 730 224.17578125 729 240.17578125 729 c 2
 414.17578125 729 l 1
 341.833984375 638 258.901367188 516 205.583007812 411 c 1
 171.583007812 411 l 1
 230.176757812 522 312.534179688 646 348.098632812 691 c 1
 248.098632812 691 l 2
EndSplineSet
Comment: "aDRL(143 142)"
EndChar

StartChar: uni2077.Regular.1
Encoding: 1115712 -1 3
Width: 0
VWidth: 0
Flags: H
LayerCount: 2
Fore
SplineSet
111 691 m 2
 83 691 76 685 64 637 c 1
 43 640 l 1
 48 668 55 708 56 734 c 1
 74 734 l 1
 74 730 79 729 95 729 c 2
 269 729 l 1
 216 638 159 516 128 411 c 1
 94 411 l 1
 129 522 185 646 211 691 c 1
 111 691 l 2
EndSplineSet
Comment: "R(170 166 153 152 151 148 146 144 142 139 130 127 125 121 118 116 115 114 111), Re(108 105 103 102 97 96 90 89 88 79 78 76 75 62 61 41), Sc(108 107 105 103 102 97 95 94 90), aS(154 153 151 150 148 147 144 143 142 140 139 132 126 122 120 117 115)"
EndChar

StartChar: uni2077.Regular.2
Encoding: 1115713 -1 4
Width: 0
VWidth: 0
Flags: H
LayerCount: 2
Fore
SplineSet
93 689 m 2
 65 689 61 686 54 653 c 1
 38 653 l 1
 57 732 l 1
 70 732 l 2
 73 730 75 729 91 729 c 2
 269 729 l 1
 217 638 160 516 129 411 c 1
 95 411 l 1
 129 515 178 633 212 689 c 1
 93 689 l 2
EndSplineSet
Comment: "C(89 88 79 78 76), C_Re(62 61 41)"
EndChar

StartChar: uni2077.Regular.3
Encoding: 1115714 -1 5
Width: 0
VWidth: 0
Flags: H
LayerCount: 2
Fore
SplineSet
111 719 m 2
 83 719 76 713 64 665 c 1
 43 668 l 1
 48 696 55 736 56 762 c 1
 74 762 l 1
 74 758 79 757 95 757 c 2
 269 757 l 1
 216 666 159 544 128 439 c 1
 94 439 l 1
 129 550 185 674 211 719 c 1
 111 719 l 2
EndSplineSet
Comment: "Re(35)"
EndChar

StartChar: uni2077.Regular.4
Encoding: 1115715 -1 6
Width: 0
VWidth: 0
Flags: H
LayerCount: 2
Fore
SplineSet
93 717 m 2
 65 717 61 714 54 681 c 1
 38 681 l 1
 57 760 l 1
 70 760 l 2
 73 758 75 757 91 757 c 2
 269 757 l 1
 217 666 160 544 129 439 c 1
 95 439 l 1
 129 543 178 661 212 717 c 1
 93 717 l 2
EndSplineSet
Comment: "C_Re(35)"
EndChar

StartChar: uni2077.Regular.5
Encoding: 1115716 -1 7
Width: 0
VWidth: 0
Flags: H
LayerCount: 2
Fore
SplineSet
111.81640625 645.21484375 m 2
 84.47265625 645.21484375 77.1484375 638.37890625 65.4296875 591.015625 c 1
 43.9453125 593.9453125 l 1
 49.31640625 621.2890625 56.15234375 661.328125 56.640625 688.18359375 c 1
 74.70703125 688.18359375 l 1
 74.70703125 683.7890625 80.078125 682.32421875 95.703125 682.32421875 c 2
 269.53125 682.32421875 l 1
 216.796875 591.50390625 160.15625 469.921875 128.90625 364.453125 c 1
 94.7265625 364.453125 l 1
 129.8828125 475.78125 186.03515625 599.8046875 211.9140625 645.21484375 c 1
 111.81640625 645.21484375 l 2
EndSplineSet
Comment: "Re(4)"
EndChar

StartChar: uni2077.Regular.6
Encoding: 1115717 -1 8
Width: 0
VWidth: 0
Flags: H
LayerCount: 2
Fore
SplineSet
92.7734375 643.26171875 m 2
 65.4296875 643.26171875 61.03515625 639.35546875 54.19921875 607.12890625 c 1
 38.0859375 607.12890625 l 1
 57.12890625 685.7421875 l 1
 70.3125 685.7421875 l 1
 72.75390625 683.30078125 75.1953125 682.32421875 90.8203125 682.32421875 c 2
 269.53125 682.32421875 l 1
 216.796875 591.50390625 160.15625 469.921875 128.90625 364.453125 c 1
 94.7265625 364.453125 l 1
 129.39453125 468.9453125 177.734375 586.62109375 211.9140625 643.26171875 c 1
 92.7734375 643.26171875 l 2
EndSplineSet
Comment: "C_Re(4)"
EndChar

StartChar: uni2077.Italic.1
Encoding: 1115728 -1 9
Width: 0
VWidth: 0
Flags: H
LayerCount: 2
Fore
SplineSet
248 691 m 2
 220 691 212 685 189 637 c 1
 169 640 l 1
 180 668 196 708 203 734 c 1
 221 734 l 1
 220 730 225 729 241 729 c 2
 415 729 l 1
 342 638 257 516 203 411 c 1
 169 411 l 1
 229 522 312 646 348 691 c 1
 248 691 l 2
EndSplineSet
Comment: "RI(170 153 152 151 148), aSI(154 153 151 150 148)"
EndChar

StartChar: uni2077.Italic.2
Encoding: 1115729 -1 10
Width: 0
VWidth: 0
Flags: H
LayerCount: 2
Fore
SplineSet
254 691 m 2
 226 691 217.599609375 685 195 637 c 1
 174.700195312 640 l 1
 185.900390625 668 201.700195312 708 208.5 734 c 1
 226.5 734 l 1
 225.599609375 730 230.400390625 729 246.400390625 729 c 2
 420.400390625 729 l 1
 347.200195312 638 263.200195312 516 208.900390625 411 c 1
 174.900390625 411 l 1
 234.5 522 318 646 354 691 c 1
 254 691 l 2
EndSplineSet
Comment: "ISc(108 107 105 103 102 97 95 94 90), It(108 105 103 102 97 96 90 89 88 79 78 76), RI(166 146 144 142 130 127 125 121 118 116 115 114 111), aSI(147 144 143 142 140 139 132 126 122 120 117 115)"
EndChar

StartChar: uni2077.Italic.3
Encoding: 1115730 -1 11
Width: 0
VWidth: 0
Flags: H
LayerCount: 2
Fore
SplineSet
253.993164062 691 m 2
 225.993164062 691 217.663085938 685 195.021484375 637 c 1
 174.686523438 640 l 1
 185.89453125 668 201.76171875 708 208.526367188 734 c 1
 226.526367188 734 l 1
 225.638671875 730 230.416992188 729 246.416992188 729 c 2
 420.416992188 729 l 1
 347.243164062 638 263.196289062 516 208.918945312 411 c 1
 174.918945312 411 l 1
 234.526367188 522 318.016601562 646 353.993164062 691 c 1
 253.993164062 691 l 2
EndSplineSet
Comment: "It(62)"
EndChar

StartChar: uni2077.Italic.4
Encoding: 1115731 -1 12
Width: 0
VWidth: 0
Flags: H
LayerCount: 2
Fore
SplineSet
254 691 m 2
 226 691 218 685 195 637 c 1
 175 640 l 1
 186 668 202 708 209 734 c 1
 227 734 l 1
 226 730 230 729 246 729 c 2
 421 729 l 1
 348 638 263 516 209 411 c 1
 175 411 l 1
 235 522 318 646 354 691 c 1
 254 691 l 2
EndSplineSet
Comment: "It(61 41)"
EndChar

StartChar: uni2077.Italic.5
Encoding: 1115732 -1 13
Width: 0
VWidth: 0
Flags: H
LayerCount: 2
Fore
SplineSet
237 719 m 2
 210 719 201 712 180 665 c 1
 159 668 l 1
 170 695 185 735 190 762 c 1
 208 762 l 1
 208 758 213 756 229 756 c 2
 402 756 l 1
 332 665 251 544 200 438 c 1
 166 438 l 1
 222 550 303 674 337 719 c 1
 237 719 l 2
EndSplineSet
Comment: "It(35)"
EndChar

StartChar: uni2077.Italic.6
Encoding: 1115733 -1 14
Width: 0
VWidth: 0
Flags: H
LayerCount: 2
Fore
SplineSet
237.3046875 645.21484375 m 2
 209.9609375 645.21484375 201.171875 638.37890625 180.17578125 591.015625 c 1
 159.1796875 593.9453125 l 1
 169.921875 621.2890625 184.5703125 661.328125 190.4296875 688.18359375 c 1
 208.49609375 688.18359375 l 1
 207.51953125 683.7890625 212.890625 682.32421875 228.515625 682.32421875 c 2
 402.34375 682.32421875 l 1
 331.54296875 591.50390625 251.46484375 469.921875 199.70703125 364.453125 c 1
 165.52734375 364.453125 l 1
 222.16796875 475.78125 302.734375 599.8046875 337.40234375 645.21484375 c 1
 237.3046875 645.21484375 l 2
EndSplineSet
Comment: "It(4)"
EndChar

StartChar: uni2077.Slant.1
Encoding: 1115744 -1 15
Width: 0
VWidth: 0
Flags: H
LayerCount: 2
Fore
SplineSet
248.098632812 691 m 0
 220.098632812 691 211.823242188 685 189.62109375 637 c 1
 169.258789062 640 l 1
 180.209960938 668 195.712890625 708 202.239257812 734 c 1
 220.239257812 734 l 1
 219.388671875 730 224.17578125 729 240.17578125 729 c 2
 414.17578125 729 l 1
 341.833007812 638 258.90234375 516 205.583007812 411 c 1
 171.583007812 411 l 1
 230.176757812 522 312.534179688 646 348.099609375 691 c 1
 248.098632812 691 l 0
EndSplineSet
Comment: "aRL(154 153 151 150 148 147 144)"
EndChar

StartChar: uni2077.Slant.2
Encoding: 1115745 -1 16
Width: 0
VWidth: 0
Flags: H
LayerCount: 2
Fore
SplineSet
248.098632812 691 m 2
 220.098632812 691 211.823242188 685 189.62109375 637 c 1
 169.258789062 640 l 1
 180.209960938 668 195.712890625 708 202.239257812 734 c 1
 220.239257812 734 l 1
 219.388671875 730 224.17578125 729 240.17578125 729 c 2
 414.17578125 729 l 1
 341.833984375 638 258.901367188 516 205.583007812 411 c 1
 171.583007812 411 l 1
 230.176757812 522 312.534179688 646 348.098632812 691 c 1
 248.098632812 691 l 2
EndSplineSet
Comment: "Sl(108 107 105 103 102 97 95 94 90 89 88 79 78 76), aRL(143 142 140 139 132 126 122 120 117 115)"
EndChar

StartChar: uni2077.Semibold.1
Encoding: 1115760 -1 17
Width: 0
VWidth: 0
Flags: H
LayerCount: 2
Fore
SplineSet
106 687 m 2
 92 687 90 683 83 651 c 1
 34 651 l 1
 55 739 l 1
 94 739 l 2
 97 736 98 735 104 735 c 2
 299 735 l 1
 246 645 189 522 157 413 c 1
 90 413 l 1
 123 513 170 627 204 687 c 1
 106 687 l 2
EndSplineSet
Comment: "RZ(170 166 151 150 148 146 144 142 131)"
EndChar

StartChar: uni2077.SemiboldItalic.1
Encoding: 1115776 -1 18
Width: 0
VWidth: 0
Flags: H
LayerCount: 2
Fore
SplineSet
235 680 m 2
 221 680 218 676 205 645 c 1
 156 645 l 1
 195 732 l 1
 234 732 l 2
 236 729 237 728 243 728 c 2
 438 728 l 1
 367 638 285 516 230 406 c 1
 163 406 l 1
 217 506 287 620 333 680 c 1
 235 680 l 2
EndSplineSet
Comment: "RZI(170 166 151 150 148 146 144 142), aSZI(154 153 151 150 148 147 144 143 142 140 139 132)"
EndChar

StartChar: uni2077.SemiBoldSlant.1
Encoding: 1115792 -1 19
Width: 0
VWidth: 0
Flags: H
LayerCount: 2
Fore
SplineSet
242.249023438 687 m 0
 228.249023438 687 225.3984375 683 211.596679688 651 c 1
 162.596679688 651 l 1
 202.301757812 739 l 1
 241.301757812 739 l 2
 243.6640625 736 244.451171875 735 250.451171875 735 c 2
 445.451171875 735 l 1
 373.321289062 645 290.176757812 522 235.0078125 413 c 1
 168.0078125 413 l 1
 222.263671875 513 293.495117188 627 340.249023438 687 c 1
 242.249023438 687 l 0
EndSplineSet
Comment: "aZL(154 153 151 150 148 147 144)"
EndChar

StartChar: uni2077.SemiBoldSlant.2
Encoding: 1115793 -1 20
Width: 0
VWidth: 0
Flags: H
LayerCount: 2
Fore
SplineSet
242.249023438 687 m 1
 228.249023438 687 225.3984375 683 211.596679688 651 c 1
 162.596679688 651 l 1
 202.301757812 739 l 1
 241.301757812 739 l 2
 243.6640625 736 244.451171875 735 250.451171875 735 c 2
 445.451171875 735 l 1
 373.321289062 645 290.176757812 522 235.0078125 413 c 1
 168.0078125 413 l 1
 222.263671875 513 293.495117188 627 340.249023438 687 c 1
 242.249023438 687 l 1
EndSplineSet
Comment: "aZL(143 142 140 139 132)"
EndChar

StartChar: uni2077.Bold.1
Encoding: 1115808 -1 21
Width: 0
VWidth: 0
Flags: H
LayerCount: 2
Fore
SplineSet
230 697 m 1
 156 697 l 2
 124 697 85 689 68 638 c 1
 37 640 l 1
 45 685 56 720 57 761 c 0
 57 764 58 763 61 763 c 0
 79 760 77 757 111 757 c 2
 217 757 l 2
 255 757 277 760 294 764 c 1
 310 753 l 1
 257 663 189 516 157 407 c 1
 90 405 l 1
 135 522 204 654 230 697 c 1
EndSplineSet
Comment: "RB(170 166 153 152 151 150 148 146 144 143 142 139 130), aBS(154 153 151 150 148 147 144 143 142 140 139 132)"
EndChar

StartChar: uni2077.Bold.2
Encoding: 1115809 -1 22
Width: 0
VWidth: 0
Flags: H
LayerCount: 2
Fore
SplineSet
106 687 m 2
 92 687 90 683 83 651 c 1
 34 651 l 1
 55 739 l 1
 94 739 l 2
 97 736 98 735 104 735 c 2
 299 735 l 1
 246 645 189 522 157 413 c 1
 90 413 l 1
 123 513 170 627 204 687 c 1
 106 687 l 2
EndSplineSet
Comment: "BSc(108 107 105 103 102 97 95 94 90), Bd(108 105 103 102 99 97 90 89 88 79 78 76 75 62 61 41), RB(127 125 121 118 116 115 114 111), aBS(126 122 120 117 115), aZS(154 153 151 150 148 147 144 143 142 140 139 132)"
EndChar

StartChar: uni2077.Bold.3
Encoding: 1115810 -1 23
Width: 0
VWidth: 0
Flags: H
LayerCount: 2
Fore
SplineSet
106 715 m 2
 92 715 90 711 83 679 c 1
 34 679 l 1
 55 767 l 1
 94 767 l 2
 97 764 98 763 104 763 c 2
 299 763 l 1
 246 673 189 550 157 441 c 1
 90 441 l 1
 123 541 170 655 204 715 c 1
 106 715 l 2
EndSplineSet
Comment: "Bd(35)"
EndChar

StartChar: uni2077.Bold.4
Encoding: 1115811 -1 24
Width: 0
VWidth: 0
Flags: H
LayerCount: 2
Fore
SplineSet
105.95703125 640.8203125 m 2
 92.28515625 640.8203125 89.84375 636.9140625 83.0078125 605.17578125 c 1
 34.1796875 605.17578125 l 1
 55.17578125 692.578125 l 1
 94.23828125 692.578125 l 1
 96.6796875 690.13671875 98.14453125 689.16015625 104.00390625 689.16015625 c 2
 298.828125 689.16015625 l 1
 246.58203125 598.33984375 188.96484375 476.26953125 156.73828125 366.40625 c 1
 89.84375 366.40625 l 1
 123.53515625 466.9921875 170.41015625 580.76171875 204.58984375 640.8203125 c 1
 105.95703125 640.8203125 l 2
EndSplineSet
Comment: "Bd(4)"
EndChar

StartChar: uni2077.BoldItalic.1
Encoding: 1115824 -1 25
Width: 0
VWidth: 0
Flags: H
LayerCount: 2
Fore
SplineSet
373.5 697 m 1
 304 697 l 2
 273.900390625 697 235.5 689 208.700195312 638 c 1
 180 640 l 1
 197.099609375 685 214.799804688 720 224.5 761 c 0
 225.099609375 764 225.900390625 763 228.700195312 763 c 0
 245 760 242.400390625 757 274.400390625 757 c 2
 374.099609375 757 l 2
 409.799804688 757 431.099609375 760 447.900390625 764 c 1
 460.599609375 753 l 1
 391.599609375 663 296.5 516 243.299804688 407 c 1
 179.900390625 405 l 1
 247.099609375 522 339.900390625 654 373.5 697 c 1
EndSplineSet
Comment: "RBI(170 166 153 152 151 150 148 146), aSBI(154 153 151 150 148 147)"
EndChar

StartChar: uni2077.BoldItalic.2
Encoding: 1115825 -1 26
Width: 0
VWidth: 0
Flags: H
LayerCount: 2
Fore
SplineSet
254 691 m 2
 226 691 217.599609375 685 195 637 c 1
 174.700195312 640 l 1
 185.900390625 668 201.700195312 708 208.5 734 c 1
 226.5 734 l 1
 225.599609375 730 230.400390625 729 246.400390625 729 c 2
 420.400390625 729 l 1
 347.200195312 638 263.200195312 516 208.900390625 411 c 1
 174.900390625 411 l 1
 234.5 522 318 646 354 691 c 1
 254 691 l 2
EndSplineSet
Comment: "RBI(144 142), aSBI(144 143 142)"
EndChar

StartChar: uni2077.BoldItalic.3
Encoding: 1115826 -1 27
Width: 0
VWidth: 0
Flags: H
LayerCount: 2
Fore
SplineSet
235 680 m 2
 221 680 218 676 205 645 c 1
 156 645 l 1
 195 732 l 1
 234 732 l 2
 236 729 237 728 243 728 c 2
 438 728 l 1
 367 638 285 516 230 406 c 1
 163 406 l 1
 217 506 287 620 333 680 c 1
 235 680 l 2
EndSplineSet
Comment: "BI(108 105 103 102 97 90 89 88 79 78 76 62 41), BiSc(108 107 105 103 102 97 95 94 90), RBI(130 127 125 121 118 116 115 114 111), aSBI(126 122 120 117 115)"
EndChar

StartChar: uni2077.BoldItalic.4
Encoding: 1115827 -1 28
Width: 0
VWidth: 0
Flags: H
LayerCount: 2
Fore
SplineSet
235 708 m 2
 221 708 218 704 205 673 c 1
 156 673 l 1
 195 760 l 1
 234 760 l 2
 236 757 237 756 243 756 c 2
 438 756 l 1
 367 666 285 544 230 434 c 1
 163 434 l 1
 217 534 287 648 333 708 c 1
 235 708 l 2
EndSplineSet
Comment: "BI(35)"
EndChar

StartChar: uni2077.BoldItalic.5
Encoding: 1115828 -1 29
Width: 0
VWidth: 0
Flags: H
LayerCount: 2
Fore
SplineSet
234.86328125 634.47265625 m 2
 221.19140625 634.47265625 218.26171875 630.56640625 204.58984375 598.828125 c 1
 155.76171875 598.828125 l 1
 194.82421875 685.7421875 l 1
 233.88671875 685.7421875 l 1
 235.83984375 683.30078125 236.81640625 682.32421875 242.67578125 682.32421875 c 2
 437.5 682.32421875 l 1
 367.1875 591.9921875 284.66796875 469.921875 229.98046875 360.05859375 c 1
 163.0859375 360.05859375 l 1
 217.28515625 460.64453125 287.109375 574.4140625 333.49609375 634.47265625 c 1
 234.86328125 634.47265625 l 2
EndSplineSet
Comment: "BI(4)"
EndChar

StartChar: uni2077.BoldSlant.1
Encoding: 1115840 -1 30
Width: 0
VWidth: 0
Flags: H
LayerCount: 2
Fore
SplineSet
368.374023438 697 m 1
 294.374023438 697 l 2
 262.374023438 697 221.673828125 689 193.833007812 638 c 1
 163.258789062 640 l 1
 180.823242188 685 199.262695312 720 208.977539062 761 c 0
 209.615234375 764 210.403320312 763 213.403320312 763 c 0
 230.765625 760 228.127929688 757 262.127929688 757 c 2
 368.127929688 757 l 2
 406.127929688 757 428.765625 760 446.615234375 764 c 1
 460.27734375 753 l 1
 388.147460938 663 288.901367188 516 233.733398438 407 c 1
 166.307617188 405 l 1
 236.176757812 522 333.234375 654 368.374023438 697 c 1
 368.374023438 697 l 1
EndSplineSet
Comment: "aBL(154 153 151 150 148 147 144)"
EndChar

StartChar: uni2077.BoldSlant.2
Encoding: 1115841 -1 31
Width: 0
VWidth: 0
Flags: H
LayerCount: 2
Fore
SplineSet
368.374023438 697 m 1
 294.374023438 697 l 2
 262.374023438 697 221.673828125 689 193.833007812 638 c 1
 163.258789062 640 l 1
 180.823242188 685 199.262695312 720 208.977539062 761 c 0
 209.615234375 764 210.403320312 763 213.403320312 763 c 0
 230.765625 760 228.127929688 757 262.127929688 757 c 2
 368.127929688 757 l 2
 406.127929688 757 428.765625 760 446.615234375 764 c 1
 460.27734375 753 l 1
 388.147460938 663 288.901367188 516 233.732421875 407 c 1
 166.307617188 405 l 1
 236.176757812 522 333.234375 654 368.374023438 697 c 1
EndSplineSet
Comment: "aBL(143 142 140 139 132)"
EndChar

StartChar: uni2077.BoldSlant.3
Encoding: 1115842 -1 32
Width: 0
VWidth: 0
Flags: H
LayerCount: 2
Fore
SplineSet
242.249023438 687 m 1
 228.249023438 687 225.3984375 683 211.596679688 651 c 1
 162.596679688 651 l 1
 202.301757812 739 l 1
 241.301757812 739 l 2
 243.6640625 736 244.451171875 735 250.451171875 735 c 2
 445.451171875 735 l 1
 373.321289062 645 290.176757812 522 235.0078125 413 c 1
 168.0078125 413 l 1
 222.263671875 513 293.495117188 627 340.249023438 687 c 1
 242.249023438 687 l 1
EndSplineSet
Comment: "BSl(108 107 105 103 102 97 95 94 90 89 88 79 78 76), aBL(126 122 120 117 115)"
EndChar

StartChar: uni2077.Mono.1
Encoding: 1115872 -1 34
Width: 0
VWidth: 0
Flags: H
LayerCount: 2
Fore
SplineSet
301 691 m 2
 273 691 266 685 254 637 c 1
 233 640 l 1
 238 668 245 708 246 734 c 1
 264 734 l 1
 264 730 269 729 285 729 c 2
 459 729 l 1
 406 638 349 516 318 411 c 1
 284 411 l 1
 319 522 375 646 401 691 c 1
 301 691 l 2
EndSplineSet
Comment: "M(170)"
EndChar

StartChar: uni2077.Underline.1
Encoding: 1115888 -1 35
Width: 0
VWidth: 0
Flags: H
LayerCount: 2
Fore
SplineSet
92.7734375 643.26171875 m 2
 65.4296875 643.26171875 61.03515625 639.35546875 54.19921875 607.12890625 c 1
 38.0859375 607.12890625 l 1
 57.12890625 685.7421875 l 1
 70.3125 685.7421875 l 1
 72.75390625 683.30078125 75.1953125 682.32421875 90.8203125 682.32421875 c 2
 269.53125 682.32421875 l 1
 216.796875 591.50390625 160.15625 470.41015625 128.90625 364.94140625 c 1
 94.7265625 364.94140625 l 1
 129.39453125 469.43359375 177.734375 586.62109375 211.9140625 643.26171875 c 1
 92.7734375 643.26171875 l 2
EndSplineSet
Comment: "U_Re(4)"
EndChar

StartChar: uni2078.Display.1
Encoding: 1115904 -1 36
Width: 0
VWidth: 0
Flags: H
LayerCount: 2
Fore
SplineSet
159 708 m 0
 135 708 111 699 111 669 c 0
 111 654 114 631 151 611 c 2
 171 601 l 1
 187 610 208 638 208 667 c 0
 208 694 184 708 159 708 c 0
255 667 m 0
 255 652 251 622 192 588 c 1
 231 567 l 2
 262 550 280 525 280 494 c 0
 280 462 249 405 159 405 c 0
 115 405 47 421 47 487 c 0
 47 523 92 560 130 580 c 1
 118 586 l 2
 78 605 62 631 62 660 c 0
 62 705 110 734 163 734 c 0
 208 734 255 707 255 667 c 0
152 569 m 1
 136 560 97 521 97 487 c 0
 97 442 136 431 160 431 c 0
 196 431 222 443 222 484 c 0
 222 509 221 535 181 555 c 2
 152 569 l 1
EndSplineSet
Comment: "DR(170 166 148 146 144 143 142 141), aDRS(154 153 151 150 148 147 144 143 142)"
EndChar

StartChar: uni2078.DisplayItalic.1
Encoding: 1115920 -1 37
Width: 0
VWidth: 0
Flags: H
LayerCount: 2
Fore
SplineSet
299.712890625 708 m 0
 275.712890625 708 249.799804688 699 243.422851562 669 c 0
 240.234375 654 238.345703125 631 271.094726562 611 c 2
 288.96875 601 l 1
 306.881835938 610 333.833007812 638 339.998046875 667 c 0
 345.736328125 694 324.712890625 708 299.712890625 708 c 0
386.998046875 667 m 0
 383.809570312 652 373.432617188 622 307.206054688 588 c 1
 341.7421875 567 l 2
 369.12890625 550 381.814453125 525 375.225585938 494 c 0
 368.423828125 462 325.307617188 405 235.307617188 405 c 0
 191.307617188 405 126.708984375 421 140.737304688 487 c 0
 148.389648438 523 201.25390625 560 243.504882812 580 c 1
 232.780273438 586 l 2
 196.819335938 605 186.345703125 631 192.509765625 660 c 0
 202.075195312 705 256.239257812 734 309.239257812 734 c 0
 354.239257812 734 395.5 707 386.998046875 667 c 0
263.166992188 569 m 1
 245.25390625 560 197.96484375 521 190.737304688 487 c 0
 181.172851562 442 217.833984375 431 241.833984375 431 c 0
 277.833984375 431 306.384765625 443 315.099609375 484 c 0
 320.4140625 509 324.940429688 535 289.19140625 555 c 2
 263.166992188 569 l 1
EndSplineSet
Comment: "aDRL(153 151 150 148 147 144)"
EndChar

StartChar: uni2078.DisplayItalic.2
Encoding: 1115921 -1 38
Width: 0
VWidth: 0
Flags: H
LayerCount: 2
Fore
SplineSet
299.712890625 708 m 0
 275.712890625 708 249.799804688 699 243.422851562 669 c 0
 240.234375 654 238.345703125 631 271.094726562 611 c 2
 288.96875 601 l 1
 306.881835938 610 333.833984375 638 339.998046875 667 c 0
 345.736328125 694 324.712890625 708 299.712890625 708 c 0
386.998046875 667 m 0
 383.809570312 652 373.432617188 622 307.206054688 588 c 1
 341.7421875 567 l 2
 369.12890625 550 381.814453125 525 375.225585938 494 c 0
 368.423828125 462 325.307617188 405 235.307617188 405 c 0
 191.307617188 405 126.708984375 421 140.737304688 487 c 0
 148.389648438 523 201.25390625 560 243.504882812 580 c 1
 232.780273438 586 l 2
 196.819335938 605 186.345703125 631 192.509765625 660 c 0
 202.075195312 705 256.239257812 734 309.239257812 734 c 0
 354.239257812 734 395.5 707 386.998046875 667 c 0
263.166992188 569 m 1
 245.25390625 560 197.96484375 521 190.737304688 487 c 0
 181.172851562 442 217.833984375 431 241.833984375 431 c 0
 277.833984375 431 306.384765625 443 315.099609375 484 c 0
 320.4140625 509 324.940429688 535 289.19140625 555 c 2
 263.166992188 569 l 1
EndSplineSet
Comment: "aDRL(143 142)"
EndChar

StartChar: uni2078.Regular.1
Encoding: 1115936 -1 39
Width: 0
VWidth: 0
Flags: H
LayerCount: 2
Fore
SplineSet
159 708 m 0
 135 708 111 699 111 669 c 0
 111 654 114 631 151 611 c 2
 171 601 l 1
 187 610 208 638 208 667 c 0
 208 694 184 708 159 708 c 0
255 667 m 0
 255 652 251 622 192 588 c 1
 231 567 l 2
 262 550 280 525 280 494 c 0
 280 462 249 405 159 405 c 0
 115 405 47 421 47 487 c 0
 47 523 92 560 130 580 c 1
 118 586 l 2
 78 605 62 631 62 660 c 0
 62 705 110 734 163 734 c 0
 208 734 255 707 255 667 c 0
152 569 m 1
 136 560 97 521 97 487 c 0
 97 442 136 431 160 431 c 0
 196 431 222 443 222 484 c 0
 222 509 221 535 181 555 c 2
 152 569 l 1
EndSplineSet
Comment: "R(170 166 153 152 151 148 146 144 142 139 130 127 125 121 118 116 115 114 111), Re(108 105 103 96 89 88), Sc(108 107 105 103), aS(154 153 151 150 148 147 144 143 142 140 139 132 126 122 120 117 115)"
EndChar

StartChar: uni2078.Regular.2
Encoding: 1115938 -1 40
Width: 0
VWidth: 0
Flags: H
LayerCount: 2
Fore
SplineSet
152 569 m 1
 136 560 97 521 97 487 c 0
 97 442 136 431 160 431 c 0
 196 431 222 443 222 484 c 0
 222 509 221 535 181 555 c 2
 152 569 l 1
255 667 m 0
 255 652 251 622 192 588 c 1
 231 567 l 2
 262 550 280 525 280 494 c 0
 280 462 249 405 159 405 c 0
 115 405 47 421 47 487 c 0
 47 523 92 560 130 580 c 1
 118 586 l 2
 78 605 62 631 62 660 c 0
 62 705 110 734 163 734 c 0
 208 734 255 707 255 667 c 0
159 708 m 0
 135 708 111 699 111 669 c 0
 111 654 114 631 151 611 c 2
 171 601 l 1
 187 610 208 638 208 667 c 0
 208 694 184 708 159 708 c 0
EndSplineSet
Comment: "Re(102 97), Sc(102 97)"
EndChar

StartChar: uni2078.Regular.3
Encoding: 1115939 -1 41
Width: 0
VWidth: 0
Flags: H
LayerCount: 2
Fore
SplineSet
159 712 m 0
 130 712 107 699 107 669 c 0
 107 654 114 631 151 611 c 2
 171 601 l 1
 187 610 210 638 210 667 c 0
 210 694 194 712 159 712 c 0
254 667 m 0
 254 652 251 622 192 588 c 1
 231 567 l 2
 262 550 279 525 279 494 c 0
 279 462 249 405 159 405 c 0
 115 405 48 421 48 487 c 0
 48 523 92 560 130 580 c 1
 118 586 l 2
 78 605 63 631 63 660 c 0
 63 705 110 734 163 734 c 0
 208 734 254 707 254 667 c 0
152 569 m 1
 136 560 95 521 95 487 c 0
 95 442 136 427 160 427 c 0
 196 427 226 443 226 484 c 0
 226 509 221 535 181 555 c 2
 152 569 l 1
EndSplineSet
Comment: "Re(90 79 78 76 61 41), Sc(95 94 90)"
EndChar

StartChar: uni2078.Regular.4
Encoding: 1115940 -1 42
Width: 0
VWidth: 0
Flags: H
LayerCount: 2
Fore
SplineSet
159 720 m 0
 130 720 106 699 106 669 c 0
 106 654 114 631 151 611 c 2
 171 601 l 1
 187 610 215 638 215 667 c 0
 215 694 194 720 159 720 c 0
254 667 m 0
 254 652 251 622 192 588 c 1
 231 567 l 2
 262 550 279 525 279 494 c 0
 279 462 249 405 159 405 c 0
 115 405 48 421 48 487 c 0
 48 523 92 560 130 580 c 1
 118 586 l 2
 78 605 63 631 63 660 c 0
 63 705 110 734 163 734 c 0
 208 734 254 707 254 667 c 0
152 569 m 1
 136 560 90 521 90 487 c 0
 90 442 136 421 160 421 c 0
 196 421 231 443 231 484 c 0
 231 509 221 535 181 555 c 2
 152 569 l 1
EndSplineSet
Comment: "C(89 88 79 78 76), C_Re(61 41)"
EndChar

StartChar: uni2078.Regular.5
Encoding: 1115941 -1 43
Width: 0
VWidth: 0
Flags: H
LayerCount: 2
Fore
SplineSet
152 569 m 1
 136 560 95 521 95 487 c 0
 95 442 136 427 160 427 c 0
 196 427 226 443 226 484 c 0
 226 509 221 535 181 555 c 2
 152 569 l 1
254 667 m 0
 254 652 251 622 192 588 c 1
 231 567 l 2
 262 550 279 525 279 494 c 0
 279 462 249 405 159 405 c 0
 115 405 48 421 48 487 c 0
 48 523 92 560 130 580 c 1
 118 586 l 2
 78 605 63 631 63 660 c 0
 63 705 110 734 163 734 c 0
 208 734 254 707 254 667 c 0
159 712 m 0
 130 712 107 699 107 669 c 0
 107 654 114 631 151 611 c 2
 171 601 l 1
 187 610 210 638 210 667 c 0
 210 694 194 712 159 712 c 0
EndSplineSet
Comment: "Re(75 62)"
EndChar

StartChar: uni2078.Regular.6
Encoding: 1115942 -1 44
Width: 0
VWidth: 0
Flags: H
LayerCount: 2
Fore
SplineSet
152 569 m 1
 136 560 90 521 90 487 c 0
 90 442 136 421 160 421 c 0
 196 421 231 443 231 484 c 0
 231 509 221 535 181 555 c 2
 152 569 l 1
254 667 m 0
 254 652 251 622 192 588 c 1
 231 567 l 2
 262 550 279 525 279 494 c 0
 279 462 249 405 159 405 c 0
 115 405 48 421 48 487 c 0
 48 523 92 560 130 580 c 1
 118 586 l 2
 78 605 63 631 63 660 c 0
 63 705 110 734 163 734 c 0
 208 734 254 707 254 667 c 0
159 720 m 0
 130 720 106 699 106 669 c 0
 106 654 114 631 151 611 c 2
 171 601 l 1
 187 610 215 638 215 667 c 0
 215 694 194 720 159 720 c 0
EndSplineSet
Comment: "C_Re(62)"
EndChar

StartChar: uni2078.Regular.7
Encoding: 1115943 -1 45
Width: 0
VWidth: 0
Flags: H
LayerCount: 2
Fore
SplineSet
159 740 m 0
 130 740 107 727 107 697 c 0
 107 682 114 659 151 639 c 2
 171 629 l 1
 187 638 210 666 210 695 c 0
 210 722 194 740 159 740 c 0
254 695 m 0
 254 680 251 650 192 616 c 1
 231 595 l 2
 262 578 279 553 279 522 c 0
 279 490 249 433 159 433 c 0
 115 433 48 449 48 515 c 0
 48 551 92 588 130 608 c 1
 118 614 l 2
 78 633 63 659 63 688 c 0
 63 733 110 762 163 762 c 0
 208 762 254 735 254 695 c 0
152 597 m 1
 136 588 95 549 95 515 c 0
 95 470 136 455 160 455 c 0
 196 455 226 471 226 512 c 0
 226 537 221 563 181 583 c 2
 152 597 l 1
EndSplineSet
Comment: "Re(35)"
EndChar

StartChar: uni2078.Regular.8
Encoding: 1115944 -1 46
Width: 0
VWidth: 0
Flags: H
LayerCount: 2
Fore
SplineSet
159 748 m 0
 130 748 106 727 106 697 c 0
 106 682 114 659 151 639 c 2
 171 629 l 1
 187 638 215 666 215 695 c 0
 215 722 194 748 159 748 c 0
254 695 m 0
 254 680 251 650 192 616 c 1
 231 595 l 2
 262 578 279 553 279 522 c 0
 279 490 249 433 159 433 c 0
 115 433 48 449 48 515 c 0
 48 551 92 588 130 608 c 1
 118 614 l 2
 78 633 63 659 63 688 c 0
 63 733 110 762 163 762 c 0
 208 762 254 735 254 695 c 0
152 597 m 1
 136 588 90 549 90 515 c 0
 90 470 136 449 160 449 c 0
 196 449 231 471 231 512 c 0
 231 537 221 563 181 583 c 2
 152 597 l 1
EndSplineSet
Comment: "C_Re(35)"
EndChar

StartChar: uni2078.Regular.9
Encoding: 1115945 -1 47
Width: 0
VWidth: 0
Flags: H
LayerCount: 2
Fore
SplineSet
159.1796875 666.2109375 m 0
 129.8828125 666.2109375 106.4453125 652.5390625 106.4453125 623.2421875 c 0
 106.4453125 607.6171875 114.2578125 585.15625 150.390625 565.13671875 c 2
 170.8984375 554.39453125 l 1
 186.5234375 564.16015625 209.47265625 591.50390625 209.47265625 620.80078125 c 0
 209.47265625 647.65625 193.84765625 666.2109375 159.1796875 666.2109375 c 0
253.41796875 620.80078125 m 0
 253.41796875 605.6640625 250.48828125 575.87890625 191.40625 542.1875 c 1
 230.46875 520.703125 l 2
 261.71875 504.1015625 279.296875 478.7109375 279.296875 447.94921875 c 0
 279.296875 415.72265625 249.0234375 358.59375 159.1796875 358.59375 c 0
 115.234375 358.59375 47.8515625 375.1953125 47.8515625 440.625 c 0
 47.8515625 477.24609375 91.796875 513.37890625 129.8828125 533.88671875 c 1
 118.1640625 540.234375 l 1
 78.125 558.7890625 62.5 584.66796875 62.5 613.96484375 c 0
 62.5 658.88671875 110.3515625 688.18359375 163.0859375 688.18359375 c 0
 208.0078125 688.18359375 253.41796875 660.3515625 253.41796875 620.80078125 c 0
151.3671875 522.65625 m 1
 135.7421875 513.8671875 95.21484375 474.31640625 95.21484375 440.625 c 0
 95.21484375 395.703125 136.23046875 380.56640625 160.15625 380.56640625 c 0
 196.2890625 380.56640625 225.5859375 396.6796875 225.5859375 438.18359375 c 0
 225.5859375 463.0859375 220.703125 488.4765625 180.6640625 508.49609375 c 2
 151.3671875 522.65625 l 1
EndSplineSet
Comment: "Re(4)"
EndChar

StartChar: uni2078.Regular.10
Encoding: 1115937 -1 48
Width: 0
VWidth: 0
Flags: H
LayerCount: 2
Fore
SplineSet
159.1796875 674.0234375 m 0
 129.8828125 674.0234375 105.46875 652.5390625 105.46875 623.2421875 c 0
 105.46875 607.6171875 114.2578125 585.15625 150.390625 565.13671875 c 2
 170.8984375 554.39453125 l 1
 186.5234375 564.16015625 214.84375 591.50390625 214.84375 620.80078125 c 0
 214.84375 647.65625 193.84765625 674.0234375 159.1796875 674.0234375 c 0
253.41796875 620.80078125 m 0
 253.41796875 605.6640625 250.48828125 575.87890625 191.40625 542.1875 c 1
 230.46875 520.703125 l 2
 261.71875 504.1015625 279.296875 478.71484375 279.296875 447.953125 c 0
 279.296875 415.7265625 249.0234375 358.59765625 159.1796875 358.59765625 c 0
 115.234375 358.59765625 47.8515625 375.19921875 47.8515625 440.62890625 c 0
 47.8515625 477.25 91.796875 513.37890625 129.8828125 533.88671875 c 1
 118.1640625 540.234375 l 1
 78.125 558.7890625 62.5 584.66796875 62.5 613.96484375 c 0
 62.5 658.88671875 110.3515625 688.18359375 163.0859375 688.18359375 c 0
 208.0078125 688.18359375 253.41796875 660.3515625 253.41796875 620.80078125 c 0
151.3671875 522.65625 m 1
 135.7421875 513.8671875 90.33203125 474.3203125 90.33203125 440.62890625 c 0
 90.33203125 395.70703125 136.23046875 375.19921875 160.15625 375.19921875 c 0
 196.2890625 375.19921875 230.46875 396.68359375 230.46875 438.1875 c 0
 230.46875 463.08984375 220.703125 488.4765625 180.6640625 508.49609375 c 2
 151.3671875 522.65625 l 1
EndSplineSet
Comment: "C_Re(4)"
EndChar

StartChar: uni2078.Italic.1
Encoding: 1115952 -1 49
Width: 0
VWidth: 0
Flags: H
LayerCount: 2
Fore
SplineSet
290 708 m 0
 259.200195312 708 232.299804688 693.599609375 232.299804688 654.299804688 c 0
 232.299804688 641 236.5 624.200195312 260 610 c 2
 278 600 l 1
 296.099609375 609.099609375 331 642.200195312 331 675.900390625 c 0
 331 697 312.099609375 708 290 708 c 0
298 589 m 1
 332 569 l 2
 354.099609375 555.099609375 365.799804688 533.700195312 365.799804688 510.099609375 c 0
 365.799804688 463.799804688 318 405 223 405 c 0
 183.400390625 405 126.799804688 418 126.799804688 468.700195312 c 0
 126.799804688 521.200195312 185.400390625 557.299804688 233 580 c 1
 222 586 l 2
 192.700195312 601.5 181.299804688 621.5 181.299804688 644.099609375 c 0
 181.299804688 701.799804688 243.5 734 300 734 c 0
 340.799804688 734 378.200195312 711.799804688 378.200195312 677.900390625 c 0
 378.200195312 650.599609375 368.900390625 625 298 589 c 1
252 569 m 1
 231.700195312 558.799804688 177.299804688 515.900390625 177.299804688 472.799804688 c 0
 177.299804688 439.599609375 208.799804688 431 230 431 c 0
 274.5 431 307.900390625 455.099609375 307.900390625 510.200195312 c 0
 307.900390625 526.400390625 301.5 542 278 555 c 2
 252 569 l 1
EndSplineSet
Comment: "RI(170 153 152 151 148), aSI(154 153 151 150 148)"
EndChar

StartChar: uni2078.Italic.2
Encoding: 1115953 -1 50
Width: 0
VWidth: 0
Flags: H
LayerCount: 2
Fore
SplineSet
244.5 427 m 0
 309.700195312 427 326 475 326 506.099609375 c 0
 326 523.700195312 318.900390625 540.900390625 293.799804688 555 c 2
 267.900390625 569 l 1
 255.599609375 562.900390625 191.099609375 519.799804688 191.099609375 472.900390625 c 0
 191.099609375 438.799804688 223.200195312 427 244.5 427 c 0
392.900390625 678 m 0
 392.900390625 624 312.299804688 588 312.200195312 588 c 2
 346.5 567 l 2
 368.599609375 553.200195312 380.299804688 534.200195312 380.299804688 511 c 0
 380.299804688 466.599609375 331.900390625 405 238.599609375 405 c 0
 199 405 143.599609375 418 143.599609375 468.700195312 c 0
 143.599609375 525.700195312 217.299804688 565.299804688 248.400390625 580 c 1
 237.700195312 586 l 2
 208.799804688 601.299804688 197.200195312 621.200195312 197.200195312 643.599609375 c 0
 197.200195312 703.700195312 264.200195312 734 315.5 734 c 0
 356.200195312 734 392.900390625 711.900390625 392.900390625 678 c 0
294 601 m 1
 317.200195312 612.599609375 349.099609375 648 349.099609375 679.400390625 c 0
 349.099609375 699.400390625 335.900390625 712 306.599609375 712 c 0
 259.099609375 712 243.900390625 680 243.900390625 658.599609375 c 0
 243.900390625 644.5 250.599609375 626.799804688 276.299804688 611 c 2
 294 601 l 1
EndSplineSet
Comment: "ISc(108 107 105 103 95 94 90), It(108 105 103 96 90 89 79 78 76), RI(166 146 144 142 130 127 125 121 118 116 115 114 111), aSI(147 144 143 142 140 139 132 126 122 120 117 115)"
EndChar

StartChar: uni2078.Italic.3
Encoding: 1115954 -1 51
Width: 0
VWidth: 0
Flags: H
LayerCount: 2
Fore
SplineSet
294 601 m 1
 317.200195312 612.599609375 349.099609375 648 349.099609375 679.400390625 c 0
 349.099609375 699.400390625 335.900390625 712 306.599609375 712 c 0
 259.099609375 712 243.900390625 680 243.900390625 658.599609375 c 0
 243.900390625 644.5 250.599609375 626.799804688 276.299804688 611 c 2
 294 601 l 1
392.900390625 678 m 0
 392.900390625 624 312.299804688 588 312.200195312 588 c 2
 346.5 567 l 2
 368.599609375 553.200195312 380.299804688 534.200195312 380.299804688 511 c 0
 380.299804688 466.599609375 331.900390625 405 238.599609375 405 c 0
 199 405 143.599609375 418 143.599609375 468.700195312 c 0
 143.599609375 525.700195312 217.299804688 565.299804688 248.400390625 580 c 1
 237.700195312 586 l 2
 208.799804688 601.299804688 197.200195312 621.200195312 197.200195312 643.599609375 c 0
 197.200195312 703.700195312 264.200195312 734 315.5 734 c 0
 356.200195312 734 392.900390625 711.900390625 392.900390625 678 c 0
244.5 427 m 0
 309.700195312 427 326 475 326 506.099609375 c 0
 326 523.700195312 318.900390625 540.900390625 293.799804688 555 c 2
 267.900390625 569 l 1
 255.599609375 562.900390625 191.099609375 519.799804688 191.099609375 472.900390625 c 0
 191.099609375 438.799804688 223.200195312 427 244.5 427 c 0
EndSplineSet
Comment: "ISc(102 97), It(102 97 88)"
EndChar

StartChar: uni2078.Italic.4
Encoding: 1115955 -1 52
Width: 0
VWidth: 0
Flags: H
LayerCount: 2
Fore
SplineSet
294.041015625 601 m 1
 317.208007812 612.5859375 349.143554688 648.051757812 349.143554688 679.419921875 c 0
 349.143554688 699.37890625 335.956054688 712 306.6484375 712 c 0
 259.159179688 712 243.948242188 679.943359375 243.948242188 658.571289062 c 0
 243.948242188 644.454101562 250.543945312 626.791992188 276.2578125 611 c 2
 294.041015625 601 l 1
392.9140625 678.005859375 m 0
 392.9140625 624.001953125 312.221679688 588.033203125 312.158203125 588 c 2
 346.502929688 567 l 2
 368.560546875 553.23046875 380.268554688 534.209960938 380.268554688 511.004882812 c 0
 380.268554688 466.55859375 331.890625 405 238.588867188 405 c 0
 198.986328125 405 143.623046875 417.961914062 143.623046875 468.677734375 c 0
 143.623046875 525.643554688 217.297851562 565.34765625 248.384765625 580 c 1
 237.71484375 586 l 2
 208.810546875 601.345703125 197.2265625 621.256835938 197.2265625 643.627929688 c 0
 197.2265625 703.725585938 264.190429688 734 315.526367188 734 c 0
 356.262695312 734 392.9140625 711.873046875 392.9140625 678.005859375 c 0
244.465820312 427 m 0
 309.653320312 427 325.950195312 474.99609375 325.950195312 506.14453125 c 0
 325.950195312 523.778320312 318.9453125 540.883789062 293.842773438 555 c 2
 267.946289062 569 l 1
 255.655273438 562.852539062 191.122070312 519.796875 191.122070312 472.885742188 c 0
 191.122070312 438.8046875 223.174804688 427 244.465820312 427 c 0
EndSplineSet
Comment: "It(62)"
EndChar

StartChar: uni2078.Italic.5
Encoding: 1115956 -1 53
Width: 0
VWidth: 0
Flags: H
LayerCount: 2
Fore
SplineSet
244 427 m 0
 310 427 326 475 326 506 c 0
 326 524 319 541 294 555 c 2
 268 569 l 1
 256 563 191 520 191 473 c 0
 191 439 223 427 244 427 c 0
393 678 m 0
 393 624 312 588 312 588 c 1
 347 567 l 2
 369 553 380 534 380 511 c 0
 380 467 332 405 239 405 c 0
 199 405 144 418 144 469 c 0
 144 526 217 565 248 580 c 1
 238 586 l 2
 209 601 197 621 197 644 c 0
 197 704 264 734 316 734 c 0
 356 734 393 712 393 678 c 0
294 601 m 1
 317 613 349 648 349 679 c 0
 349 699 336 712 307 712 c 0
 259 712 244 680 244 659 c 0
 244 644 251 627 276 611 c 2
 294 601 l 1
EndSplineSet
Comment: "It(61 41)"
EndChar

StartChar: uni2078.Italic.6
Encoding: 1115957 -1 54
Width: 0
VWidth: 0
Flags: H
LayerCount: 2
Fore
SplineSet
289 740 m 0
 259 740 233 726 228 697 c 0
 225 681 228 659 260 639 c 2
 279 628 l 1
 296 638 324 665 330 695 c 0
 335 721 323 740 289 740 c 0
374 695 m 0
 371 679 362 650 297 616 c 1
 332 595 l 2
 360 578 372 553 366 522 c 0
 360 490 319 432 229 432 c 0
 185 432 121 449 133 514 c 0
 141 551 191 587 233 608 c 1
 223 614 l 2
 187 633 176 658 182 688 c 0
 190 733 244 762 297 762 c 0
 342 762 382 734 374 695 c 0
253 596 m 1
 235 588 188 548 181 514 c 0
 172 470 210 454 234 454 c 0
 270 454 303 470 311 512 c 0
 315 537 315 562 279 582 c 2
 253 596 l 1
EndSplineSet
Comment: "It(35)"
EndChar

StartChar: uni2078.Italic.7
Encoding: 1115958 -1 55
Width: 0
VWidth: 0
Flags: H
LayerCount: 2
Fore
SplineSet
288.57421875 666.2109375 m 0
 259.27734375 666.2109375 233.3984375 652.5390625 227.5390625 623.2421875 c 0
 227.0234375 620.493164062 226.705078125 617.529296875 226.705078125 614.409179688 c 0
 226.705078125 599.78515625 233.69921875 581.630859375 260.25390625 565.13671875 c 2
 278.80859375 554.39453125 l 1
 296.38671875 564.16015625 324.21875 591.50390625 330.078125 620.80078125 c 0
 330.881835938 624.819335938 331.291992188 628.65234375 331.291992188 632.265625 c 0
 331.291992188 652.79296875 318.053710938 666.2109375 288.57421875 666.2109375 c 0
374.0234375 620.80078125 m 0
 371.064453125 605.668945312 362.3046875 575.87890625 296.875 542.1875 c 1
 331.54296875 520.703125 l 2
 355.23046875 506.81640625 367.64453125 486.784179688 367.64453125 462.6015625 c 0
 367.64453125 457.87109375 367.169921875 452.982421875 366.2109375 447.94921875 c 0
 359.86328125 415.72265625 318.84765625 358.59375 229.00390625 358.59375 c 0
 188.884765625 358.59375 131.674804688 372.4296875 131.674804688 424.622070312 c 0
 131.674804688 429.600585938 132.1953125 434.927734375 133.30078125 440.625 c 0
 140.625 477.24609375 191.40625 513.37890625 233.3984375 533.88671875 c 1
 223.14453125 540.234375 l 1
 192.484375 555.766601562 180.305664062 576.435546875 180.305664062 599.946289062 c 0
 180.305664062 604.516601562 180.766601562 609.194335938 181.640625 613.96484375 c 0
 190.4296875 658.88671875 244.140625 688.18359375 296.875 688.18359375 c 0
 338.010742188 688.18359375 374.98828125 664.858398438 374.98828125 630.546875 c 0
 374.98828125 627.387695312 374.674804688 624.135742188 374.0234375 620.80078125 c 0
252.9296875 522.65625 m 1
 235.3515625 513.8671875 187.5 474.31640625 180.6640625 440.625 c 0
 179.783203125 436.119140625 179.373046875 431.9140625 179.373046875 427.9921875 c 0
 179.373046875 392.819335938 212.361328125 380.56640625 233.88671875 380.56640625 c 0
 270.01953125 380.56640625 302.578125 396.709960938 310.546875 438.18359375 c 0
 311.83203125 444.869140625 312.778320312 451.587890625 312.778320312 458.2265625 c 0
 312.778320312 476.333007812 305.736328125 493.84765625 279.296875 508.49609375 c 2
 252.9296875 522.65625 l 1
EndSplineSet
Comment: "It(4)"
EndChar

StartChar: uni2078.Slant.1
Encoding: 1115968 -1 56
Width: 0
VWidth: 0
Flags: H
LayerCount: 2
Fore
SplineSet
299.712890625 708 m 0
 275.712890625 708 249.799804688 699 243.422851562 669 c 0
 240.234375 654 238.345703125 631 271.094726562 611 c 2
 288.96875 601 l 1
 306.881835938 610 333.833007812 638 339.998046875 667 c 0
 345.736328125 694 324.712890625 708 299.712890625 708 c 0
386.998046875 667 m 0
 383.809570312 652 373.432617188 622 307.206054688 588 c 1
 341.7421875 567 l 2
 369.12890625 550 381.814453125 525 375.225585938 494 c 0
 368.423828125 462 325.307617188 405 235.307617188 405 c 0
 191.307617188 405 126.708984375 421 140.737304688 487 c 0
 148.389648438 523 201.25390625 560 243.504882812 580 c 1
 232.780273438 586 l 2
 196.819335938 605 186.345703125 631 192.509765625 660 c 0
 202.075195312 705 256.239257812 734 309.239257812 734 c 0
 354.239257812 734 395.5 707 386.998046875 667 c 0
263.166992188 569 m 1
 245.25390625 560 197.96484375 521 190.737304688 487 c 0
 181.172851562 442 217.833984375 431 241.833984375 431 c 0
 277.833984375 431 306.384765625 443 315.099609375 484 c 0
 320.4140625 509 324.940429688 535 289.19140625 555 c 2
 263.166992188 569 l 1
EndSplineSet
Comment: "aRL(154 153 151 150 148 147 144)"
EndChar

StartChar: uni2078.Slant.2
Encoding: 1115969 -1 57
Width: 0
VWidth: 0
Flags: H
LayerCount: 2
Fore
SplineSet
299.712890625 708 m 0
 275.712890625 708 249.799804688 699 243.422851562 669 c 0
 240.234375 654 238.345703125 631 271.094726562 611 c 2
 288.96875 601 l 1
 306.881835938 610 333.833984375 638 339.998046875 667 c 0
 345.736328125 694 324.712890625 708 299.712890625 708 c 0
386.998046875 667 m 0
 383.809570312 652 373.432617188 622 307.206054688 588 c 1
 341.7421875 567 l 2
 369.12890625 550 381.814453125 525 375.225585938 494 c 0
 368.423828125 462 325.307617188 405 235.307617188 405 c 0
 191.307617188 405 126.708984375 421 140.737304688 487 c 0
 148.389648438 523 201.25390625 560 243.504882812 580 c 1
 232.780273438 586 l 2
 196.819335938 605 186.345703125 631 192.509765625 660 c 0
 202.075195312 705 256.239257812 734 309.239257812 734 c 0
 354.239257812 734 395.5 707 386.998046875 667 c 0
263.166992188 569 m 1
 245.25390625 560 197.96484375 521 190.737304688 487 c 0
 181.172851562 442 217.833984375 431 241.833984375 431 c 0
 277.833984375 431 306.384765625 443 315.099609375 484 c 0
 320.4140625 509 324.940429688 535 289.19140625 555 c 2
 263.166992188 569 l 1
EndSplineSet
Comment: "Sl(108 107 105 103 89 88), aRL(143 142 140 139 132 126 122 120 117 115)"
EndChar

StartChar: uni2078.Slant.3
Encoding: 1115970 -1 58
Width: 0
VWidth: 0
Flags: H
LayerCount: 2
Fore
SplineSet
263.166992188 569 m 1
 245.25390625 560 197.96484375 521 190.737304688 487 c 0
 181.172851562 442 217.833984375 431 241.833984375 431 c 0
 277.833984375 431 306.384765625 443 315.099609375 484 c 0
 320.4140625 509 324.940429688 535 289.19140625 555 c 2
 263.166992188 569 l 1
386.998046875 667 m 0
 383.809570312 652 373.432617188 622 307.206054688 588 c 1
 341.7421875 567 l 2
 369.12890625 550 381.814453125 525 375.225585938 494 c 0
 368.423828125 462 325.307617188 405 235.307617188 405 c 0
 191.307617188 405 126.708984375 421 140.737304688 487 c 0
 148.389648438 523 201.25390625 560 243.504882812 580 c 1
 232.780273438 586 l 2
 196.819335938 605 186.345703125 631 192.509765625 660 c 0
 202.075195312 705 256.239257812 734 309.239257812 734 c 0
 354.239257812 734 395.5 707 386.998046875 667 c 0
299.712890625 708 m 0
 275.712890625 708 249.799804688 699 243.422851562 669 c 0
 240.234375 654 238.345703125 631 271.094726562 611 c 2
 288.96875 601 l 1
 306.881835938 610 333.833984375 638 339.998046875 667 c 0
 345.736328125 694 324.712890625 708 299.712890625 708 c 0
EndSplineSet
Comment: "Sl(102 97)"
EndChar

StartChar: uni2078.Slant.4
Encoding: 1115971 -1 59
Width: 0
VWidth: 0
Flags: H
LayerCount: 2
Fore
SplineSet
300.561523438 712 m 0
 271.561523438 712 245.799804688 699 239.422851562 669 c 0
 236.234375 654 238.345703125 631 271.094726562 611 c 2
 288.96875 601 l 1
 306.881835938 610 335.833984375 638 341.998046875 667 c 0
 347.736328125 694 335.561523438 712 300.561523438 712 c 0
385.998046875 667 m 0
 382.809570312 652 373.432617188 622 307.206054688 588 c 1
 341.7421875 567 l 2
 369.12890625 550 380.814453125 525 374.225585938 494 c 0
 367.423828125 462 325.307617188 405 235.307617188 405 c 0
 191.307617188 405 127.708984375 421 141.737304688 487 c 0
 149.389648438 523 201.25390625 560 243.504882812 580 c 1
 232.780273438 586 l 2
 196.819335938 605 187.345703125 631 193.509765625 660 c 0
 203.075195312 705 256.239257812 734 309.239257812 734 c 0
 354.239257812 734 394.5 707 385.998046875 667 c 0
263.166992188 569 m 1
 245.25390625 560 195.96484375 521 188.737304688 487 c 0
 179.172851562 442 216.984375 427 240.984375 427 c 0
 276.984375 427 310.384765625 443 319.099609375 484 c 0
 324.4140625 509 324.940429688 535 289.19140625 555 c 2
 263.166992188 569 l 1
EndSplineSet
Comment: "Sl(95 94 90 79 78 76)"
EndChar

StartChar: uni2078.Semibold.1
Encoding: 1115984 -1 60
Width: 0
VWidth: 0
Flags: H
LayerCount: 2
Fore
SplineSet
172 710 m 0
 146 710 130 691 130 665 c 0
 130 649 142 630 171 614 c 0
 177 611 174 612 181 608 c 1
 194 619 215 638 215 663 c 0
 215 686 200 710 172 710 c 0
185 550 m 2
 165 559 l 1
 150 548 115 520 115 491 c 0
 115 450 147 431 173 431 c 0
 206 431 231 451 231 488 c 0
 231 513 217 534 185 550 c 2
278 663 m 0
 278 649 276 622 219 588 c 1
 250 570 l 2
 286 551 303 528 303 498 c 0
 303 464 273 405 172 405 c 0
 122 405 48 422 48 491 c 0
 48 524 88 557 127 579 c 1
 125 580 125 580 124 581 c 0
 78 603 63 627 63 656 c 0
 63 703 115 734 175 734 c 0
 228 734 278 705 278 663 c 0
EndSplineSet
Comment: "RZ(170 166 151 150 148 146 144 142 131)"
EndChar

StartChar: uni2078.SemiboldItalic.1
Encoding: 1116000 -1 61
Width: 0
VWidth: 0
Flags: H
LayerCount: 2
Fore
SplineSet
306 706 m 0
 286 706 266 687 260 660 c 0
 260 657 259 654 259 650 c 0
 259 637 265 622 286 610 c 0
 291.700195312 607.5 289.299804688 607.799804688 295 604 c 1
 309 614 329 633 334 658 c 0
 335 662 335 666 335 670 c 0
 335 690 325 706 306 706 c 0
287 546 m 0
 280.400390625 548.099609375 274.700195312 552.099609375 269 555 c 1
 250 544 216 517 210 487 c 0
 209 482 209 478 209 474 c 0
 209 442 234 427 250 427 c 0
 277 427 307 447 314 484 c 0
 315 490 316 496 316 501 c 0
 316 518 309 533 287 546 c 0
406 658 m 0
 403 645 392 618 329 584 c 1
 356 566 l 1
 355 566 l 1
 383 549 399 530 399 506 c 0
 399 503 399 499 398 494 c 0
 391 461 345 401 244 401 c 0
 198 401 133 416 133 471 c 0
 133 476 133 481 135 487 c 0
 142 521 190 553 234 575 c 1
 233 576 232 576 231 577 c 0
 196 595 181 616 181 639 c 0
 181 643 182 647 182 651 c 0
 192 698 254 729 314 729 c 0
 363 729 407 704 407 668 c 0
 407 665 406 662 406 658 c 0
EndSplineSet
Comment: "RZI(170 166 151 150 148 146 144 142), aSZI(154 153 151 150 148 147 144 143 142 140 139 132)"
EndChar

StartChar: uni2078.SemiBoldSlant.1
Encoding: 1116016 -1 62
Width: 0
VWidth: 0
Flags: H
LayerCount: 2
Fore
SplineSet
313.137695312 710 m 0
 287.137695312 710 267.098632812 691 261.572265625 665 c 0
 258.171875 649 266.1328125 630 291.732421875 614 c 0
 297.094726562 611 294.306640625 612 300.45703125 608 c 1
 315.794921875 619 340.833007812 638 346.147460938 663 c 0
 351.036132812 686 341.137695312 710 313.137695312 710 c 0
292.12890625 550 m 2
 274.041992188 559 l 1
 256.703125 548 215.751953125 520 209.587890625 491 c 0
 200.873046875 450 228.833984375 431 254.833984375 431 c 0
 287.833984375 431 317.084960938 451 324.950195312 488 c 0
 330.263671875 513 320.727539062 534 292.12890625 550 c 2
409.147460938 663 m 1
 406.171875 649 398.432617188 622 334.206054688 588 c 1
 361.379882812 570 l 2
 393.33984375 551 405.452148438 528 399.07421875 498 c 0
 391.84765625 464 349.306640625 405 248.306640625 405 c 0
 198.306640625 405 127.919921875 422 142.586914062 491 c 0
 149.600585938 524 196.615234375 557 240.291992188 579 c 1
 238.50390625 580 238.50390625 580 237.716796875 581 c 0
 196.392578125 603 186.494140625 627 192.658203125 656 c 0
 202.6484375 703 261.23828125 734 321.23828125 734 c 0
 374.23828125 734 418.07421875 705 409.146484375 663 c 1
 409.147460938 663 l 1
EndSplineSet
Comment: "aZL(154 153 151 150 148 147 144)"
EndChar

StartChar: uni2078.SemiBoldSlant.2
Encoding: 1116017 -1 63
Width: 0
VWidth: 0
Flags: H
LayerCount: 2
Fore
SplineSet
313.137695312 710 m 0
 287.137695312 710 267.098632812 691 261.572265625 665 c 0
 258.171875 649 266.1328125 630 291.732421875 614 c 0
 297.094726562 611 294.306640625 612 300.45703125 608 c 1
 315.794921875 619 340.833984375 638 346.147460938 663 c 0
 351.036132812 686 341.137695312 710 313.137695312 710 c 0
292.12890625 550 m 2
 274.041015625 559 l 1
 256.703125 548 215.751953125 520 209.587890625 491 c 0
 200.873046875 450 228.833984375 431 254.833984375 431 c 0
 287.833984375 431 317.084960938 451 324.950195312 488 c 0
 330.263671875 513 320.727539062 534 292.12890625 550 c 2
409.147460938 663 m 0
 406.171875 649 398.432617188 622 334.206054688 588 c 1
 361.379882812 570 l 2
 393.340820312 551 405.452148438 528 399.075195312 498 c 0
 391.848632812 464 349.307617188 405 248.307617188 405 c 0
 198.307617188 405 127.920898438 422 142.587890625 491 c 0
 149.6015625 524 196.616210938 557 240.29296875 579 c 1
 238.504882812 580 238.504882812 580 237.717773438 581 c 0
 196.393554688 603 186.495117188 627 192.659179688 656 c 0
 202.649414062 703 261.239257812 734 321.239257812 734 c 0
 374.239257812 734 418.075195312 705 409.147460938 663 c 0
EndSplineSet
Comment: "aZL(143 142 140 139 132)"
EndChar

StartChar: uni2078.Bold.1
Encoding: 1116032 -1 64
Width: 0
VWidth: 0
Flags: H
LayerCount: 2
Fore
SplineSet
182 738 m 0
 156 738 133 720 133 705 c 0
 133 688 142 673 171 656 c 0
 177 653 189 646 196 642 c 1
 213 649 225 669 225 691 c 0
 225 716 210 738 182 738 c 0
185 557 m 0
 177.5 560.200195312 161.700195312 567.099609375 155 570 c 1
 140 558 115 528 115 497 c 0
 115 462 144 432 173 432 c 0
 206 432 231 453 231 493 c 0
 231 520 217 540 185 557 c 0
288 691 m 0
 288 663 263 647 220 626 c 1
 250 608 l 2
 289 586 315 558 315 519 c 0
 315 473 276 404 172 404 c 0
 122 404 42 423 42 491 c 0
 42 527 53 543 127 589 c 1
 125 590 125 590 124 591 c 0
 78 615 63 643 63 674 c 0
 63 725 125 764 185 764 c 0
 238 764 288 736 288 691 c 0
EndSplineSet
Comment: "RB(170 166 153 152 151 150 148 146), aBS(154 153 151 150 148 147)"
EndChar

StartChar: uni2078.Bold.2
Encoding: 1116033 -1 65
Width: 0
VWidth: 0
Flags: H
LayerCount: 2
Fore
SplineSet
172 710 m 0
 146 710 130 691 130 665 c 0
 130 649 142 630 171 614 c 0
 177 611 174 612 181 608 c 1
 194 619 215 638 215 663 c 0
 215 686 200 710 172 710 c 0
185 550 m 2
 165 559 l 1
 150 548 115 520 115 491 c 0
 115 450 147 431 173 431 c 0
 206 431 231 451 231 488 c 0
 231 513 217 534 185 550 c 2
278 663 m 0
 278 649 276 622 219 588 c 1
 250 570 l 2
 286 551 303 528 303 498 c 0
 303 464 273 405 172 405 c 0
 122 405 48 422 48 491 c 0
 48 524 88 557 127 579 c 1
 125 580 125 580 124 581 c 0
 78 603 63 627 63 656 c 0
 63 703 115 734 175 734 c 0
 228 734 278 705 278 663 c 0
EndSplineSet
Comment: "BSc(108 107 105 103 95 94 90), Bd(108 105 103 99 90 89 79 78 76 61 41), RB(127 125 121 118 116 115 114 111), aBS(126 122 120 117 115), aZS(154 153 151 150 148 147 144 143 142 140 139 132)"
EndChar

StartChar: uni2078.Bold.3
Encoding: 1116034 -1 66
Width: 0
VWidth: 0
Flags: H
LayerCount: 2
Fore
SplineSet
182 738 m 0
 156 738 133 720 133 705 c 0
 133 688 142 673 171 656 c 0
 177 653 189 646 196 642 c 1
 213 649 225 669 225 691 c 0
 225 716 210 738 182 738 c 0
185 557 m 2
 155 570 l 1
 140 558 115 528 115 497 c 0
 115 462 144 432 173 432 c 0
 206 432 231 453 231 493 c 0
 231 520 217 540 185 557 c 2
288 691 m 0
 288 663 263 647 220 626 c 1
 250 608 l 2
 289 586 315 558 315 519 c 0
 315 473 276 404 172 404 c 0
 122 404 42 423 42 491 c 0
 42 527 53 543 127 589 c 1
 125 590 125 590 124 591 c 0
 78 615 63 643 63 674 c 0
 63 725 125 764 185 764 c 0
 238 764 288 736 288 691 c 0
EndSplineSet
Comment: "RB(144 143 142 139 130), aBS(144 143 142 140 139 132)"
EndChar

StartChar: uni2078.Bold.4
Encoding: 1116035 -1 67
Width: 0
VWidth: 0
Flags: H
LayerCount: 2
Fore
SplineSet
278 663 m 0
 278 649 276 622 219 588 c 1
 250 570 l 2
 286 551 303 528 303 498 c 0
 303 464 273 405 172 405 c 0
 122 405 48 422 48 491 c 0
 48 524 88 557 127 579 c 1
 125 580 125 580 124 581 c 0
 78 603 63 627 63 656 c 0
 63 703 115 734 175 734 c 0
 228 734 278 705 278 663 c 0
185 550 m 2
 165 559 l 1
 150 548 115 520 115 491 c 0
 115 450 147 431 173 431 c 0
 206 431 231 451 231 488 c 0
 231 513 217 534 185 550 c 2
172 710 m 0
 146 710 130 691 130 665 c 0
 130 649 142 630 171 614 c 0
 177 611 174 612 181 608 c 1
 194 619 215 638 215 663 c 0
 215 686 200 710 172 710 c 0
EndSplineSet
Comment: "BSc(102 97), Bd(102 97 88)"
EndChar

StartChar: uni2078.Bold.5
Encoding: 1116036 -1 68
Width: 0
VWidth: 0
Flags: H
LayerCount: 2
Fore
SplineSet
278 663 m 0
 278 649 276 622 219 588 c 1
 250 570 l 2
 286 551 303 528 303 498 c 0
 303 464 273 405 172 405 c 0
 122 405 48 422 48 491 c 0
 48 524 88 557 127 579 c 1
 125 580 125 580 124 581 c 0
 78 603 63 627 63 656 c 0
 63 703 115 734 175 734 c 0
 228 734 278 705 278 663 c 0
186 550 m 1
 165 559 l 1
 150 548 115 520 115 491 c 0
 115 450 147 431 173 431 c 0
 206 431 231 451 231 488 c 0
 231 513 217 534 185 550 c 1
 186 550 l 1
172 710 m 0
 146 710 130 691 130 665 c 0
 130 649 142 630 171 614 c 0
 177 611 174 612 181 608 c 1
 194 619 215 638 215 663 c 0
 215 686 200 710 172 710 c 0
EndSplineSet
Comment: "Bd(75 62)"
EndChar

StartChar: uni2078.Bold.6
Encoding: 1116037 -1 69
Width: 0
VWidth: 0
Flags: H
LayerCount: 2
Fore
SplineSet
172 743 m 0
 152 743 134 724 134 698 c 0
 134 682 142 663 171 647 c 0
 177 644 174 645 181 641 c 1
 194 652 211 671 211 696 c 0
 211 719 195 743 172 743 c 0
185 583 m 2
 165 592 l 1
 150 581 119 554 119 525 c 0
 119 484 155 465 173 465 c 0
 199 465 227 485 227 522 c 0
 227 547 217 567 185 583 c 2
278 696 m 0
 278 682 276 655 219 621 c 1
 250 603 l 2
 286 584 303 562 303 532 c 0
 303 498 273 439 172 439 c 0
 122 439 48 456 48 525 c 0
 48 558 88 590 127 612 c 1
 125 613 125 613 124 614 c 0
 78 636 63 660 63 689 c 0
 63 736 115 767 175 767 c 0
 228 767 278 738 278 696 c 0
EndSplineSet
Comment: "Bd(35)"
EndChar

StartChar: uni2078.Bold.7
Encoding: 1116038 -1 70
Width: 0
VWidth: 0
Flags: H
LayerCount: 2
Fore
SplineSet
171.38671875 668.65234375 m 0
 151.85546875 668.65234375 133.7890625 649.609375 133.7890625 623.73046875 c 0
 133.7890625 607.6171875 142.08984375 589.0625 170.8984375 572.94921875 c 1
 170.41015625 572.94921875 l 1
 177.24609375 569.53125 174.31640625 570.5078125 181.15234375 567.08984375 c 1
 193.359375 577.34375 210.9375 596.875 210.9375 621.2890625 c 0
 210.9375 645.21484375 194.82421875 668.65234375 171.38671875 668.65234375 c 0
186.03515625 508.49609375 m 1
 179.19921875 511.42578125 171.875 514.84375 165.0390625 518.26171875 c 1
 149.4140625 506.54296875 119.140625 479.6875 119.140625 450.390625 c 0
 119.140625 409.375 154.78515625 390.33203125 172.36328125 390.33203125 c 0
 199.21875 390.33203125 226.5625 410.3515625 226.5625 447.94921875 c 0
 226.5625 472.36328125 217.28515625 492.3828125 185.05859375 508.49609375 c 1
 186.03515625 508.49609375 l 1
277.83203125 621.2890625 m 0
 277.83203125 607.6171875 275.390625 581.25 219.23828125 546.58203125 c 1
 250 529.00390625 l 1
 249.51171875 529.00390625 l 1
 286.1328125 509.9609375 303.22265625 487.5 303.22265625 457.71484375 c 0
 303.22265625 423.53515625 272.4609375 364.453125 171.38671875 364.453125 c 0
 121.58203125 364.453125 48.33984375 382.03125 48.33984375 450.390625 c 0
 48.33984375 484.08203125 87.40234375 515.8203125 126.46484375 537.79296875 c 1
 125 538.76953125 124.51171875 538.76953125 123.53515625 539.74609375 c 0
 77.63671875 561.71875 62.5 585.64453125 62.5 614.453125 c 0
 62.5 661.81640625 114.74609375 692.578125 175.29296875 692.578125 c 0
 228.02734375 692.578125 277.83203125 663.28125 277.83203125 621.2890625 c 0
EndSplineSet
Comment: "Bd(4)"
EndChar

StartChar: uni2078.BoldItalic.1
Encoding: 1116048 -1 71
Width: 0
VWidth: 0
Flags: H
LayerCount: 2
Fore
SplineSet
317.5 738 m 0
 288 738 263.200195312 718.099609375 263.200195312 694.200195312 c 0
 263.200195312 681.400390625 269.299804688 669.299804688 287.799804688 656 c 2
 307.299804688 642 l 1
 327.099609375 649.900390625 348.400390625 668.799804688 348.400390625 699.099609375 c 0
 348.400390625 718.5 340.599609375 738 317.5 738 c 0
260.700195312 574 m 1
 241.599609375 560.299804688 201.799804688 522.599609375 201.799804688 482.799804688 c 0
 201.799804688 454.299804688 220.5 432 244 432 c 0
 277 432 313.200195312 459.900390625 313.200195312 507.900390625 c 0
 313.200195312 527.5 303.5 543.200195312 282.900390625 558 c 2
 260.700195312 574 l 1
329.400390625 626 m 1
 353.799804688 608 l 2
 380.599609375 589.5 398 566.799804688 398 537 c 0
 398 476.5 338.400390625 404 237.099609375 404 c 0
 194.299804688 404 131.5 419.799804688 131.5 473.900390625 c 0
 131.5 527.400390625 168.900390625 552.299804688 237.099609375 591 c 1
 237.099609375 591 220.400390625 602.599609375 220.200195312 602.700195312 c 0
 198.799804688 617.5 189.900390625 635.5 189.900390625 655.200195312 c 0
 189.900390625 686.799804688 203.5 712.099609375 224.700195312 730 c 0
 251.700195312 752.700195312 291.700195312 764 325.900390625 764 c 0
 370.799804688 764 408.599609375 741.299804688 408.599609375 703.799804688 c 0
 408.599609375 663.299804688 377.599609375 648.599609375 329.400390625 626 c 1
EndSplineSet
Comment: "RBI(170 166 153 152 151 150 148), aSBI(154 153 151 150 148)"
EndChar

StartChar: uni2078.BoldItalic.2
Encoding: 1116049 -1 72
Width: 0
VWidth: 0
Flags: H
LayerCount: 2
Fore
SplineSet
317.5 738 m 0
 293.099609375 738 267.599609375 720 264.400390625 705 c 0
 260.799804688 688 266.200195312 673 289.799804688 656 c 0
 294.799804688 653 304.599609375 646 310.299804688 642 c 1
 327.799804688 649 343.299804688 669 348 691 c 0
 353.299804688 716 343.799804688 738 317.5 738 c 0
281.900390625 557 m 0
 275.5 560.200195312 262 567.099609375 256.400390625 570 c 1
 239.700195312 558 209.900390625 528 203.299804688 497 c 0
 195.900390625 462 216.700195312 432 244 432 c 0
 275 432 303 453 311.5 493 c 0
 317.200195312 520 308.400390625 540 281.900390625 557 c 0
407.200195312 691 m 0
 401.200195312 663 374.299804688 647 329.400390625 626 c 1
 353.799804688 608 l 2
 385.799804688 586 404.299804688 558 396 519 c 0
 386.200195312 473 334.900390625 404 237.099609375 404 c 0
 190.099609375 404 118.900390625 423 133.400390625 491 c 0
 141.099609375 527 154.900390625 543 234.200195312 589 c 1
 232.5 590 232.5 590 231.799804688 591 c 0
 193.700195312 615 185.5 643 192.099609375 674 c 0
 202.900390625 725 269.5 764 325.900390625 764 c 0
 375.700195312 764 416.799804688 736 407.200195312 691 c 0
EndSplineSet
Comment: "RBI(146), aSBI(147)"
EndChar

StartChar: uni2078.BoldItalic.3
Encoding: 1116050 -1 73
Width: 0
VWidth: 0
Flags: H
LayerCount: 2
Fore
SplineSet
244.5 427 m 0
 309.700195312 427 326 475 326 506.099609375 c 0
 326 523.700195312 318.900390625 540.900390625 293.799804688 555 c 2
 267.900390625 569 l 1
 255.599609375 562.900390625 191.099609375 519.799804688 191.099609375 472.900390625 c 0
 191.099609375 438.799804688 223.200195312 427 244.5 427 c 0
392.900390625 678 m 0
 392.900390625 624 312.299804688 588 312.200195312 588 c 2
 346.5 567 l 2
 368.599609375 553.200195312 380.299804688 534.200195312 380.299804688 511 c 0
 380.299804688 466.599609375 331.900390625 405 238.599609375 405 c 0
 199 405 143.599609375 418 143.599609375 468.700195312 c 0
 143.599609375 525.700195312 217.299804688 565.299804688 248.400390625 580 c 1
 237.700195312 586 l 2
 208.799804688 601.299804688 197.200195312 621.200195312 197.200195312 643.599609375 c 0
 197.200195312 703.700195312 264.200195312 734 315.5 734 c 0
 356.200195312 734 392.900390625 711.900390625 392.900390625 678 c 0
294 601 m 1
 317.200195312 612.599609375 349.099609375 648 349.099609375 679.400390625 c 0
 349.099609375 699.400390625 335.900390625 712 306.599609375 712 c 0
 259.099609375 712 243.900390625 680 243.900390625 658.599609375 c 0
 243.900390625 644.5 250.599609375 626.799804688 276.299804688 611 c 2
 294 601 l 1
EndSplineSet
Comment: "RBI(144 142), aSBI(144 143 142)"
EndChar

StartChar: uni2078.BoldItalic.4
Encoding: 1116051 -1 74
Width: 0
VWidth: 0
Flags: H
LayerCount: 2
Fore
SplineSet
306 706 m 0
 286 706 266 687 260 660 c 0
 260 657 259 654 259 650 c 0
 259 637 265 622 286 610 c 0
 291.700195312 607.5 289.299804688 607.799804688 295 604 c 1
 309 614 329 633 334 658 c 0
 335 662 335 666 335 670 c 0
 335 690 325 706 306 706 c 0
287 546 m 0
 280.400390625 548.099609375 274.700195312 552.099609375 269 555 c 1
 250 544 216 517 210 487 c 0
 209 482 209 478 209 474 c 0
 209 442 234 427 250 427 c 0
 277 427 307 447 314 484 c 0
 315 490 316 496 316 501 c 0
 316 518 309 533 287 546 c 0
406 658 m 0
 403 645 392 618 329 584 c 1
 356 566 l 1
 355 566 l 1
 383 549 399 530 399 506 c 0
 399 503 399 499 398 494 c 0
 391 461 345 401 244 401 c 0
 198 401 133 416 133 471 c 0
 133 476 133 481 135 487 c 0
 142 521 190 553 234 575 c 1
 233 576 232 576 231 577 c 0
 196 595 181 616 181 639 c 0
 181 643 182 647 182 651 c 0
 192 698 254 729 314 729 c 0
 363 729 407 704 407 668 c 0
 407 665 406 662 406 658 c 0
EndSplineSet
Comment: "BI(108 105 103 90 89 79 78 76), BiSc(108 107 105 103 95 94 90), RBI(130 127 125 121 118 116 115 114 111), aSBI(126 122 120 117 115)"
EndChar

StartChar: uni2078.BoldItalic.5
Encoding: 1116052 -1 75
Width: 0
VWidth: 0
Flags: H
LayerCount: 2
Fore
SplineSet
406 658 m 0
 403 645 392 618 329 584 c 1
 356 566 l 1
 355 566 l 1
 383 549 399 530 399 506 c 0
 399 503 399 499 398 494 c 0
 391 461 345 401 244 401 c 0
 198 401 133 416 133 471 c 0
 133 476 133 481 135 487 c 0
 142 521 190 553 234 575 c 1
 233 576 232 576 231 577 c 0
 196 595 181 616 181 639 c 0
 181 643 182 647 182 651 c 0
 192 698 254 729 314 729 c 0
 363 729 407 704 407 668 c 0
 407 665 406 662 406 658 c 0
287 546 m 0
 280.400390625 548.099609375 274.700195312 552.099609375 269 555 c 1
 250 544 216 517 210 487 c 0
 209 482 209 478 209 474 c 0
 209 442 234 427 250 427 c 0
 277 427 307 447 314 484 c 0
 315 490 316 496 316 501 c 0
 316 518 309 533 287 546 c 0
306 706 m 0
 286 706 266 687 260 660 c 0
 260 657 259 654 259 650 c 0
 259 637 265 622 286 610 c 0
 291.700195312 607.5 289.299804688 607.799804688 295 604 c 1
 309 614 329 633 334 658 c 0
 335 662 335 666 335 670 c 0
 335 690 325 706 306 706 c 0
EndSplineSet
Comment: "BI(102 97 88), BiSc(102 97)"
EndChar

StartChar: uni2078.BoldItalic.6
Encoding: 1116053 -1 76
Width: 0
VWidth: 0
Flags: H
LayerCount: 2
Fore
SplineSet
406 658 m 0
 403 645 392 618 329 584 c 1
 356 566 l 1
 355 566 l 1
 383 549 399 530 399 506 c 0
 399 503 399 499 398 494 c 0
 391 461 345 401 244 401 c 0
 198 401 133 416 133 471 c 0
 133 476 133 481 135 487 c 0
 142 521 190 553 234 575 c 1
 233 576 232 576 231 577 c 0
 196 595 181 616 181 639 c 0
 181 643 182 647 182 651 c 0
 192 698 254 729 314 729 c 0
 363 729 407 704 407 668 c 0
 407 665 406 662 406 658 c 0
288 546 m 2
 281 548 275 552 269 555 c 1
 250 544 216 517 210 487 c 0
 209 482 209 478 209 474 c 0
 209 442 234 427 250 427 c 0
 277 427 307 447 314 484 c 0
 315 490 316 496 316 501 c 0
 316 518 309 533 287 546 c 1
 288 546 l 2
306 706 m 0
 286 706 266 687 260 660 c 0
 260 657 259 654 259 650 c 0
 259 637 265 622 286 610 c 1
 285 610 l 2
 292 607 289 608 295 604 c 1
 309 614 329 633 334 658 c 0
 335 662 335 666 335 670 c 0
 335 690 325 706 306 706 c 0
EndSplineSet
Comment: "BI(62)"
EndChar

StartChar: uni2078.BoldItalic.7
Encoding: 1116054 -1 77
Width: 0
VWidth: 0
Flags: H
LayerCount: 2
Fore
SplineSet
306 706 m 0
 286 706 266 687 260 660 c 0
 260 657 259 654 259 650 c 0
 259 637 265 622 286 610 c 0
 292 608 289 608 295 604 c 1
 309 614 329 633 334 658 c 0
 335 662 335 666 335 670 c 0
 335 690 325 706 306 706 c 0
287 546 m 0
 280 548 275 552 269 555 c 1
 250 544 216 517 210 487 c 0
 209 482 209 478 209 474 c 0
 209 442 234 427 250 427 c 0
 277 427 307 447 314 484 c 0
 315 490 316 496 316 501 c 0
 316 518 309 533 287 546 c 0
406 658 m 0
 403 645 392 618 329 584 c 1
 356 566 l 1
 355 566 l 1
 383 549 399 530 399 506 c 0
 399 503 399 499 398 494 c 0
 391 461 345 401 244 401 c 0
 198 401 133 416 133 471 c 0
 133 476 133 481 135 487 c 0
 142 521 190 553 234 575 c 1
 233 576 232 576 231 577 c 0
 196 595 181 616 181 639 c 0
 181 643 182 647 182 651 c 0
 192 698 254 729 314 729 c 0
 363 729 407 704 407 668 c 0
 407 665 406 662 406 658 c 0
EndSplineSet
Comment: "BI(41)"
EndChar

StartChar: uni2078.BoldItalic.8
Encoding: 1116055 -1 78
Width: 0
VWidth: 0
Flags: H
LayerCount: 2
Fore
SplineSet
306 734 m 0
 286 734 266 715 260 688 c 0
 260 685 259 682 259 678 c 0
 259 665 265 650 286 638 c 0
 292 636 289 636 295 632 c 1
 309 642 329 661 334 686 c 0
 335 690 335 694 335 698 c 0
 335 718 325 734 306 734 c 0
287 574 m 0
 280 576 275 580 269 583 c 1
 250 572 216 545 210 515 c 0
 209 510 209 506 209 502 c 0
 209 470 234 455 250 455 c 0
 277 455 307 475 314 512 c 0
 315 518 316 524 316 529 c 0
 316 546 309 561 287 574 c 0
406 686 m 0
 403 673 392 646 329 612 c 1
 356 594 l 1
 355 594 l 1
 383 577 399 558 399 534 c 0
 399 531 399 527 398 522 c 0
 391 489 345 429 244 429 c 0
 198 429 133 444 133 499 c 0
 133 504 133 509 135 515 c 0
 142 549 190 581 234 603 c 1
 233 604 232 604 231 605 c 0
 196 623 181 644 181 667 c 0
 181 671 182 675 182 679 c 0
 192 726 254 757 314 757 c 0
 363 757 407 732 407 696 c 0
 407 693 406 690 406 686 c 0
EndSplineSet
Comment: "BI(35)"
EndChar

StartChar: uni2078.BoldItalic.9
Encoding: 1116056 -1 79
Width: 0
VWidth: 0
Flags: H
LayerCount: 2
Fore
SplineSet
305.6640625 659.86328125 m 0
 286.1328125 659.86328125 265.625 640.8203125 260.25390625 614.453125 c 0
 259.765625 611.03515625 259.27734375 608.10546875 259.27734375 604.6875 c 0
 259.27734375 591.015625 265.13671875 576.3671875 285.64453125 564.16015625 c 1
 285.15625 564.16015625 l 1
 291.50390625 560.7421875 288.57421875 561.71875 294.921875 558.30078125 c 1
 309.08203125 568.5546875 329.1015625 587.59765625 333.984375 612.5 c 0
 334.9609375 616.40625 335.44921875 620.3125 335.44921875 624.21875 c 0
 335.44921875 643.75 325.1953125 659.86328125 305.6640625 659.86328125 c 0
287.59765625 499.70703125 m 1
 281.25 502.63671875 274.90234375 506.0546875 268.5546875 508.984375 c 1
 250.48828125 497.75390625 216.35546875 470.888671875 210.44921875 441.11328125 c 0
 209.48046875 436.228515625 208.984375 431.8359375 208.984375 427.9296875 c 0
 208.984375 396.19140625 234.375 381.54296875 250 381.54296875 c 0
 276.85546875 381.54296875 306.640625 401.5625 314.453125 438.671875 c 0
 315.4296875 444.53125 316.40625 449.90234375 316.40625 455.2734375 c 0
 316.40625 472.36328125 308.59375 487.01171875 286.62109375 499.70703125 c 1
 287.59765625 499.70703125 l 1
405.76171875 612.5 m 0
 402.83203125 598.828125 391.6015625 572.4609375 328.61328125 537.79296875 c 1
 355.95703125 520.21484375 l 1
 355.46875 520.21484375 l 1
 383.30078125 503.61328125 398.92578125 484.5703125 398.92578125 460.64453125 c 0
 398.92578125 456.73828125 398.92578125 452.83203125 397.94921875 448.4375 c 0
 391.11328125 414.74609375 344.7265625 355.6640625 243.65234375 355.6640625 c 0
 198.2421875 355.6640625 132.8125 369.82421875 132.8125 425 c 0
 132.8125 429.8828125 133.30078125 435.25390625 134.765625 441.11328125 c 0
 141.6015625 474.8046875 190.4296875 507.03125 233.88671875 529.00390625 c 1
 232.91015625 529.98046875 232.421875 529.98046875 231.4453125 530.95703125 c 0
 196.2890625 549.51171875 181.15234375 570.01953125 181.15234375 593.45703125 c 0
 181.15234375 597.36328125 181.640625 601.26953125 182.12890625 605.6640625 c 0
 191.89453125 652.5390625 253.90625 683.30078125 314.453125 683.30078125 c 0
 362.79296875 683.30078125 406.73828125 658.3984375 406.73828125 622.265625 c 0
 406.73828125 618.84765625 406.25 615.91796875 405.76171875 612.5 c 0
EndSplineSet
Comment: "BI(4)"
EndChar

StartChar: uni2078.BoldSlant.1
Encoding: 1116064 -1 80
Width: 0
VWidth: 0
Flags: H
LayerCount: 2
Fore
SplineSet
329.088867188 738 m 0
 303.088867188 738 276.262695312 720 273.075195312 705 c 0
 269.4609375 688 275.2734375 673 300.659179688 656 c 0
 306.021484375 653 316.534179688 646 322.68359375 642 c 1
 341.171875 649 357.422851562 669 362.098632812 691 c 0
 367.413085938 716 357.088867188 738 329.088867188 738 c 0
293.616210938 557 m 0
 286.796875 560.200195312 272.462890625 567.099609375 266.379882812 570 c 1
 248.829101562 558 217.452148438 528 210.86328125 497 c 0
 203.423828125 462 226.046875 432 255.046875 432 c 0
 288.046875 432 317.510742188 453 326.012695312 493 c 0
 331.751953125 520 322.002929688 540 293.616210938 557 c 0
425.098632812 691 m 0
 419.147460938 663 390.74609375 647 343.283203125 626 c 1
 369.45703125 608 l 2
 403.780273438 586 423.829101562 558 415.5390625 519 c 0
 405.76171875 473 352.095703125 404 248.096679688 404 c 0
 198.096679688 404 122.134765625 423 136.588867188 491 c 0
 144.240234375 527 158.640625 543 242.41796875 589 c 1
 240.630859375 590 240.630859375 590 239.84375 591 c 0
 198.944335938 615 189.896484375 643 196.485351562 674 c 0
 207.326171875 725 277.615234375 764 337.616210938 764 c 0
 390.616210938 764 434.665039062 736 425.098632812 691 c 0
EndSplineSet
Comment: "aBL(154 153 151 150 148 147)"
EndChar

StartChar: uni2078.BoldSlant.2
Encoding: 1116065 -1 81
Width: 0
VWidth: 0
Flags: H
LayerCount: 2
Fore
SplineSet
329.088867188 738 m 0
 303.088867188 738 276.262695312 720 273.075195312 705 c 0
 269.4609375 688 275.2734375 673 300.659179688 656 c 0
 306.021484375 653 316.534179688 646 322.68359375 642 c 1
 341.171875 649 357.422851562 669 362.098632812 691 c 0
 367.413085938 716 357.088867188 738 329.088867188 738 c 0
293.616210938 557 m 2
 266.379882812 570 l 1
 248.829101562 558 217.452148438 528 210.86328125 497 c 0
 203.423828125 462 226.046875 432 255.046875 432 c 0
 288.046875 432 317.510742188 453 326.012695312 493 c 0
 331.751953125 520 322.002929688 540 293.616210938 557 c 2
425.098632812 691 m 0
 419.147460938 663 390.74609375 647 343.283203125 626 c 1
 369.45703125 608 l 2
 403.780273438 586 423.829101562 558 415.5390625 519 c 0
 405.76171875 473 352.095703125 404 248.096679688 404 c 0
 198.096679688 404 122.134765625 423 136.588867188 491 c 0
 144.240234375 527 158.640625 543 242.41796875 589 c 1
 240.630859375 590 240.630859375 590 239.84375 591 c 0
 198.944335938 615 189.896484375 643 196.485351562 674 c 0
 207.326171875 725 277.615234375 764 337.616210938 764 c 0
 390.616210938 764 434.665039062 736 425.098632812 691 c 0
EndSplineSet
Comment: "aBL(144)"
EndChar

StartChar: uni2078.BoldSlant.3
Encoding: 1116066 -1 82
Width: 0
VWidth: 0
Flags: H
LayerCount: 2
Fore
SplineSet
329.088867188 738 m 0
 303.088867188 738 276.262695312 720 273.075195312 705 c 0
 269.4609375 688 275.2734375 673 300.659179688 656 c 0
 306.021484375 653 316.534179688 646 322.68359375 642 c 1
 341.171875 649 357.422851562 669 362.098632812 691 c 0
 367.413085938 716 357.088867188 738 329.088867188 738 c 0
293.616210938 557 m 2
 266.379882812 570 l 1
 248.829101562 558 217.452148438 528 210.86328125 497 c 0
 203.423828125 462 226.046875 432 255.046875 432 c 0
 288.046875 432 317.510742188 453 326.012695312 493 c 0
 331.751953125 520 322.002929688 540 293.616210938 557 c 2
425.098632812 691 m 0
 419.147460938 663 390.74609375 647 343.283203125 626 c 1
 369.45703125 608 l 2
 403.780273438 586 423.829101562 558 415.5390625 519 c 0
 405.76171875 473 352.095703125 404 248.095703125 404 c 0
 198.095703125 404 122.133789062 423 136.587890625 491 c 0
 144.239257812 527 158.640625 543 242.41796875 589 c 1
 240.630859375 590 240.630859375 590 239.84375 591 c 0
 198.944335938 615 189.896484375 643 196.485351562 674 c 0
 207.326171875 725 277.615234375 764 337.615234375 764 c 0
 390.615234375 764 434.6640625 736 425.098632812 691 c 0
EndSplineSet
Comment: "aBL(143 142 140 139 132)"
EndChar

StartChar: uni2078.BoldSlant.4
Encoding: 1116067 -1 83
Width: 0
VWidth: 0
Flags: H
LayerCount: 2
Fore
SplineSet
313.137695312 710 m 0
 287.137695312 710 267.098632812 691 261.572265625 665 c 0
 258.171875 649 266.1328125 630 291.732421875 614 c 0
 297.094726562 611 294.306640625 612 300.45703125 608 c 1
 315.794921875 619 340.833984375 638 346.147460938 663 c 0
 351.036132812 686 341.137695312 710 313.137695312 710 c 0
292.12890625 550 m 2
 274.041015625 559 l 1
 256.703125 548 215.751953125 520 209.587890625 491 c 0
 200.873046875 450 228.833984375 431 254.833984375 431 c 0
 287.833984375 431 317.084960938 451 324.950195312 488 c 0
 330.263671875 513 320.727539062 534 292.12890625 550 c 2
409.147460938 663 m 0
 406.171875 649 398.432617188 622 334.206054688 588 c 1
 361.379882812 570 l 2
 393.340820312 551 405.452148438 528 399.075195312 498 c 0
 391.848632812 464 349.307617188 405 248.307617188 405 c 0
 198.307617188 405 127.920898438 422 142.587890625 491 c 0
 149.6015625 524 196.616210938 557 240.29296875 579 c 1
 238.504882812 580 238.504882812 580 237.717773438 581 c 0
 196.393554688 603 186.495117188 627 192.659179688 656 c 0
 202.649414062 703 261.239257812 734 321.239257812 734 c 0
 374.239257812 734 418.075195312 705 409.147460938 663 c 0
EndSplineSet
Comment: "BSl(108 107 105 103 95 94 90 89 79 78 76), aBL(126 122 120 117 115)"
EndChar

StartChar: uni2078.BoldSlant.5
Encoding: 1116068 -1 84
Width: 0
VWidth: 0
Flags: H
LayerCount: 2
Fore
SplineSet
409.147460938 663 m 0
 406.171875 649 398.432617188 622 334.206054688 588 c 1
 361.379882812 570 l 2
 393.340820312 551 405.452148438 528 399.075195312 498 c 0
 391.848632812 464 349.307617188 405 248.307617188 405 c 0
 198.307617188 405 127.920898438 422 142.587890625 491 c 0
 149.6015625 524 196.616210938 557 240.29296875 579 c 1
 238.504882812 580 238.504882812 580 237.717773438 581 c 0
 196.393554688 603 186.495117188 627 192.659179688 656 c 0
 202.649414062 703 261.239257812 734 321.239257812 734 c 0
 374.239257812 734 418.075195312 705 409.147460938 663 c 0
292.12890625 550 m 2
 274.041015625 559 l 1
 256.703125 548 215.751953125 520 209.587890625 491 c 0
 200.873046875 450 228.833984375 431 254.833984375 431 c 0
 287.833984375 431 317.084960938 451 324.950195312 488 c 0
 330.263671875 513 320.727539062 534 292.12890625 550 c 2
313.137695312 710 m 0
 287.137695312 710 267.098632812 691 261.572265625 665 c 0
 258.171875 649 266.1328125 630 291.732421875 614 c 0
 297.094726562 611 294.306640625 612 300.45703125 608 c 1
 315.794921875 619 340.833984375 638 346.147460938 663 c 0
 351.036132812 686 341.137695312 710 313.137695312 710 c 0
EndSplineSet
Comment: "BSl(102 97 88)"
EndChar

StartChar: uni2078.Mono.1
Encoding: 1116096 -1 86
Width: 0
VWidth: 0
Flags: H
LayerCount: 2
Fore
SplineSet
342.299804688 708 m 0
 318.299804688 708 294.299804688 699 294.299804688 669 c 0
 294.299804688 654 297.299804688 631 334.299804688 611 c 2
 354.299804688 601 l 1
 370.299804688 610 391.299804688 638 391.299804688 667 c 0
 391.299804688 694 367.299804688 708 342.299804688 708 c 0
438.299804688 667 m 0
 438.299804688 652 434.299804688 622 375.299804688 588 c 1
 414.299804688 567 l 2
 445.299804688 550 463.299804688 525 463.299804688 494 c 0
 463.299804688 462 432.299804688 405 342.299804688 405 c 0
 298.299804688 405 230.299804688 421 230.299804688 487 c 0
 230.299804688 523 275.299804688 560 313.299804688 580 c 1
 301.299804688 586 l 2
 261.299804688 605 245.299804688 631 245.299804688 660 c 0
 245.299804688 705 293.299804688 734 346.299804688 734 c 0
 391.299804688 734 438.299804688 707 438.299804688 667 c 0
335.299804688 569 m 1
 319.299804688 560 280.299804688 521 280.299804688 487 c 0
 280.299804688 442 319.299804688 431 343.299804688 431 c 0
 379.299804688 431 405.299804688 443 405.299804688 484 c 0
 405.299804688 509 404.299804688 535 364.299804688 555 c 2
 335.299804688 569 l 1
EndSplineSet
Comment: "M(170)"
EndChar

StartChar: uni2078.Underline.1
Encoding: 1116112 -1 87
Width: 0
VWidth: 0
Flags: H
LayerCount: 2
Fore
SplineSet
159.1796875 669.140625 m 0
 129.8828125 669.140625 105.46875 647.65625 105.46875 618.359375 c 0
 105.46875 602.734375 114.2578125 582.71484375 150.390625 562.6953125 c 2
 170.8984375 551.953125 l 1
 186.5234375 561.71875 214.84375 586.62109375 214.84375 615.91796875 c 0
 214.84375 642.7734375 193.84765625 669.140625 159.1796875 669.140625 c 0
253.41796875 615.91796875 m 0
 253.41796875 600.78125 250.48828125 573.4375 191.40625 539.74609375 c 1
 230.46875 518.26171875 l 2
 261.71875 501.66015625 279.296875 480.6640625 279.296875 449.90234375 c 0
 279.296875 417.67578125 249.0234375 360.546875 159.1796875 360.546875 c 0
 115.234375 360.546875 47.8515625 377.1484375 47.8515625 442.578125 c 0
 47.8515625 479.19921875 91.796875 510.9375 129.8828125 531.4453125 c 1
 118.1640625 537.79296875 l 1
 78.125 556.34765625 62.5 579.78515625 62.5 609.08203125 c 0
 62.5 654.00390625 110.3515625 683.30078125 163.0859375 683.30078125 c 0
 208.0078125 683.30078125 253.41796875 655.46875 253.41796875 615.91796875 c 0
151.3671875 520.21484375 m 1
 135.7421875 511.42578125 90.33203125 476.26953125 90.33203125 442.578125 c 0
 90.33203125 397.65625 136.23046875 377.1484375 160.15625 377.1484375 c 0
 196.2890625 377.1484375 230.46875 398.6328125 230.46875 440.13671875 c 0
 230.46875 465.0390625 220.703125 486.03515625 180.6640625 506.0546875 c 2
 151.3671875 520.21484375 l 1
EndSplineSet
Comment: "U_Re(4)"
EndChar

StartChar: uni2074.Display.1
Encoding: 1115008 -1 88
Width: 0
VWidth: 0
Flags: H
LayerCount: 2
Fore
SplineSet
180 486 m 2
 180 510 l 1
 37 510 l 1
 33 522 l 1
 78 587 146 683 187 740 c 1
 218 730 l 1
 173 661 110 578 88 544 c 1
 180 544 l 1
 180 601 l 2
 180 607 186 616 188 619 c 0
 195 628 207 639 214 639 c 0
 220 639 228 638 228 629 c 2
 228 544 l 1
 284 544 l 1
 278 510 l 1
 228 510 l 1
 228 486 l 2
 228 445 245 442 279 440 c 1
 283 432 283 418 279 411 c 1
 249 412 233 412 203 412 c 0
 167.700195312 412 157 412 127 411 c 1
 123 417 122 432 127 440 c 1
 167 442 180 445 180 486 c 2
EndSplineSet
Comment: "DR(170 166 148 146 144 143 142 141), aDRS(154 153 151 150 148 147 144 143 142)"
EndChar

StartChar: uni2074.DisplayItalic.1
Encoding: 1115024 -1 89
Width: 0
VWidth: 0
Flags: H
LayerCount: 2
Fore
SplineSet
273.524414062 486 m 1
 278.625976562 510 l 1
 135.625976562 510 l 1
 134.176757812 522 l 1
 192.993164062 587 281.3984375 683 334.514648438 740 c 1
 363.388671875 730 l 1
 303.72265625 661 223.079101562 578 193.853515625 544 c 1
 285.853515625 544 l 1
 297.96875 601 l 2
 299.244140625 607 307.157226562 616 309.794921875 619 c 0
 318.708007812 628 333.045898438 639 340.045898438 639 c 0
 346.045898438 639 353.833007812 638 351.920898438 629 c 2
 333.853515625 544 l 1
 389.853515625 544 l 1
 376.625976562 510 l 1
 326.625976562 510 l 1
 321.524414062 486 l 2
 312.810546875 445 329.172851562 442 362.747070312 440 c 1
 365.046875 432 362.071289062 418 356.583007812 411 c 1
 326.795898438 412 310.795898438 412 280.795898438 412 c 0
 245.49609375 412 234.795898438 412 204.583007812 411 c 1
 201.858398438 417 204.046875 432 210.747070312 440 c 1
 251.172851562 442 264.810546875 445 273.524414062 486 c 1
 273.524414062 486 l 1
EndSplineSet
Comment: "aDRL(153 151 150 148 147 144)"
EndChar

StartChar: uni2074.DisplayItalic.2
Encoding: 1115025 -1 90
Width: 0
VWidth: 0
Flags: H
LayerCount: 2
Fore
SplineSet
273.524414062 486 m 2
 278.625976562 510 l 1
 135.625976562 510 l 1
 134.176757812 522 l 1
 192.993164062 587 281.3984375 683 334.514648438 740 c 1
 363.388671875 730 l 1
 303.72265625 661 223.080078125 578 193.853515625 544 c 1
 285.853515625 544 l 1
 297.96875 601 l 2
 299.244140625 607 307.157226562 616 309.794921875 619 c 0
 318.708007812 628 333.045898438 639 340.045898438 639 c 0
 346.045898438 639 353.833984375 638 351.920898438 629 c 2
 333.853515625 544 l 1
 389.853515625 544 l 1
 376.625976562 510 l 1
 326.625976562 510 l 1
 321.524414062 486 l 2
 312.810546875 445 329.172851562 442 362.747070312 440 c 1
 365.046875 432 362.071289062 418 356.583007812 411 c 1
 326.795898438 412 310.795898438 412 280.795898438 412 c 0
 245.49609375 412 234.795898438 412 204.583007812 411 c 1
 201.858398438 417 204.046875 432 210.747070312 440 c 1
 251.172851562 442 264.810546875 445 273.524414062 486 c 2
EndSplineSet
Comment: "aDRL(143 142)"
EndChar

StartChar: uni2074.Regular.1
Encoding: 1115040 -1 91
Width: 0
VWidth: 0
Flags: H
LayerCount: 2
Fore
SplineSet
180 683.700195312 m 1
 140.799804688 635.200195312 88.5 561.5 82 544 c 1
 180 544 l 1
 180 683.700195312 l 1
180 486 m 2
 180 510 l 1
 61.2001953125 510 l 2
 34.599609375 510 39.7001953125 530.200195312 42.2998046875 538.200195312 c 0
 45.2001953125 544.5 48.400390625 549.5 51.7998046875 555 c 0
 85 608.799804688 128.799804688 661 163.900390625 702 c 0
 172.900390625 712.5 184.299804688 723.700195312 199.599609375 732.799804688 c 0
 200.700195312 733.5 210 734 213.299804688 734 c 0
 219.599609375 734 232 732.900390625 232 724 c 2
 232 544 l 1
 288 544 l 1
 282 510 l 1
 232 510 l 1
 232 486 l 2
 232 445 249 442 283 440 c 1
 287 432 287 418 283 411 c 1
 253 412 234.599609375 412 205 412 c 0
 169.700195312 412 157 412 127 411 c 1
 123 417 122 432 127 440 c 1
 167 442 180 445 180 486 c 2
EndSplineSet
Comment: "R(170 166 153 152 151 148 146), aS(154 153 151 150 148 147)"
EndChar

StartChar: uni2074.Regular.2
Encoding: 1115042 -1 92
Width: 0
VWidth: 0
Flags: H
LayerCount: 2
Fore
SplineSet
180 486 m 2
 180 510 l 1
 37 510 l 1
 33 522 l 1
 78 587 146 683 187 740 c 1
 218 730 l 1
 173 661 110 578 88 544 c 1
 180 544 l 1
 180 601 l 2
 180 607 186 616 188 619 c 0
 195 628 207 639 214 639 c 0
 220 639 228 638 228 629 c 2
 228 544 l 1
 284 544 l 1
 278 510 l 1
 228 510 l 1
 228 486 l 2
 228 445 245 442 279 440 c 1
 283 432 283 418 279 411 c 1
 249 412 233 412 203 412 c 0
 167.700195312 412 157 412 127 411 c 1
 123 417 122 432 127 440 c 1
 167 442 180 445 180 486 c 2
EndSplineSet
Comment: "R(144 142 139 130 127 125 121 118 116 115 114 111), Re(108 105 103 102 97 96 89 88), Sc(108 107 105 103 102 97), aS(144 143 142 140 139 132 126 122 120 117 115)"
EndChar

StartChar: uni2074.Regular.3
Encoding: 1115043 -1 93
Width: 0
VWidth: 0
Flags: H
LayerCount: 2
Fore
SplineSet
227 629 m 2
 227 544 l 1
 284 544 l 1
 278 510 l 1
 227 510 l 1
 227 462 l 2
 227 443 241.299804688 441.200195312 259 439 c 2
 275 437 l 2
 279 436.5 280 435 280 433 c 2
 280 411 l 1
 280 411 234 412 204 412 c 0
 175 412 129 411 129 411 c 1
 129 433 l 2
 129 435 130 436.5 134 437 c 2
 149 439 l 2
 166 441.299804688 181 443.700195312 181 462 c 2
 181 510 l 1
 37 510 l 1
 33 522 l 1
 78 587 146 683 187 740 c 1
 218 730 l 1
 173 661 110 578 88 544 c 1
 181 544 l 1
 181 601 l 2
 181 607 186 615 188 618 c 0
 195 627 207 639 214 639 c 0
 220 639 227 638 227 629 c 2
EndSplineSet
Comment: "Re(90 79 78 76), Sc(95 94 90)"
EndChar

StartChar: uni2074.Regular.4
Encoding: 1115044 -1 94
Width: 0
VWidth: 0
Flags: H
LayerCount: 2
Fore
SplineSet
227 669 m 1
 227 550 l 1
 278 550 l 1
 278 521 l 1
 227 521 l 1
 227 458 l 2
 227 439 230 433 249 433 c 2
 265 433 l 2
 269 433 270 431 270 429 c 2
 270 411 l 1
 200 412 l 1
 132 411 l 1
 132 429 l 2
 132 431 133 433 137 433 c 2
 155 433 l 2
 173 433 178 436 178 458 c 2
 178 521 l 1
 32 521 l 1
 28 528 l 1
 57 562 72 599 80 626 c 0
 87 653 96 702 96 734 c 1
 131 734 l 1
 131 697 125 660 119 625 c 0
 113 597 99 564 90 550 c 1
 178 550 l 1
 178 644 l 1
 227 669 l 1
EndSplineSet
Comment: "C(89 88 79 78 76), C_Re(62 61 41)"
EndChar

StartChar: uni2074.Regular.5
Encoding: 1115045 -1 95
Width: 0
VWidth: 0
Flags: H
LayerCount: 2
Fore
SplineSet
227 629 m 2
 227 544 l 1
 284 544 l 1
 278 510 l 1
 227 510 l 1
 227 462 l 2
 227 443 241.318359375 441.209960938 259 439 c 2
 275 437 l 2
 278.96875 436.50390625 280 435 280 433 c 2
 280 411 l 1
 280 411 234 412 204 412 c 0
 175 412 129 411 129 411 c 1
 129 433 l 2
 129 435 130.03515625 436.471679688 134 437 c 2
 149 439 l 2
 165.96484375 441.26171875 181 443.666992188 181 462 c 2
 181 510 l 1
 37 510 l 1
 33 522 l 1
 78 587 146 683 187 740 c 1
 218 730 l 1
 173 661 110 578 88 544 c 1
 181 544 l 1
 181 601 l 2
 181 607 186 615 188 618 c 0
 195 627 207 639 214 639 c 0
 220 639 227 638 227 629 c 2
EndSplineSet
Comment: "Re(75 62)"
EndChar

StartChar: uni2074.Regular.6
Encoding: 1115046 -1 96
Width: 0
VWidth: 0
Flags: H
LayerCount: 2
Fore
SplineSet
227 629 m 2
 227 544 l 1
 284 544 l 1
 278 510 l 1
 227 510 l 1
 227 462 l 2
 227 443 241 441 259 439 c 2
 275 437 l 2
 279 437 280 435 280 433 c 2
 280 411 l 1
 280 411 234 412 204 412 c 0
 175 412 129 411 129 411 c 1
 129 433 l 2
 129 435 130 436 134 437 c 2
 149 439 l 2
 166 441 181 444 181 462 c 2
 181 510 l 1
 37 510 l 1
 33 522 l 1
 78 587 146 683 187 740 c 1
 218 730 l 1
 173 661 110 578 88 544 c 1
 181 544 l 1
 181 601 l 2
 181 607 186 615 188 618 c 0
 195 627 207 639 214 639 c 0
 220 639 227 638 227 629 c 2
EndSplineSet
Comment: "Re(61 41)"
EndChar

StartChar: uni2074.Regular.7
Encoding: 1115047 -1 97
Width: 0
VWidth: 0
Flags: H
LayerCount: 2
Fore
SplineSet
227 677 m 2
 227 572 l 1
 284 572 l 1
 278 538 l 1
 227 538 l 1
 227 490 l 2
 227 471 241 469 259 467 c 2
 275 465 l 2
 279 465 280 463 280 461 c 2
 280 439 l 1
 280 439 234 440 204 440 c 0
 175 440 129 439 129 439 c 1
 129 461 l 2
 129 463 130 464 134 465 c 2
 149 467 l 2
 166 469 181 472 181 490 c 2
 181 538 l 1
 37 538 l 1
 33 550 l 1
 78 615 146 711 187 768 c 1
 218 758 l 1
 173 689 110 606 88 572 c 1
 181 572 l 1
 181 649 l 2
 181 655 186 663 188 666 c 0
 195 675 207 687 214 687 c 0
 220 687 227 686 227 677 c 2
EndSplineSet
Comment: "Re(35)"
EndChar

StartChar: uni2074.Regular.8
Encoding: 1115048 -1 98
Width: 0
VWidth: 0
Flags: H
LayerCount: 2
Fore
SplineSet
227 697 m 1
 227 578 l 1
 278 578 l 1
 278 549 l 1
 227 549 l 1
 227 486 l 2
 227 467 230 461 249 461 c 2
 265 461 l 2
 269 461 270 459 270 457 c 2
 270 439 l 1
 200 440 l 1
 132 439 l 1
 132 457 l 2
 132 459 133 461 137 461 c 2
 155 461 l 2
 173 461 178 464 178 486 c 2
 178 549 l 1
 32 549 l 1
 28 556 l 1
 57 590 72 627 80 654 c 0
 87 681 96 730 96 762 c 1
 131 762 l 1
 131 725 125 688 119 653 c 0
 113 625 99 592 90 578 c 1
 178 578 l 1
 178 672 l 1
 227 697 l 1
EndSplineSet
Comment: "C_Re(35)"
EndChar

StartChar: uni2074.Regular.9
Encoding: 1115049 -1 99
Width: 0
VWidth: 0
Flags: H
LayerCount: 2
Fore
SplineSet
226.5625 603.22265625 m 2
 226.5625 497.75390625 l 1
 281.25 497.75390625 l 1
 278.3203125 463.57421875 l 1
 226.5625 463.57421875 l 1
 226.5625 413.76953125 l 2
 226.5625 395.21484375 230.46875 388.8671875 249.0234375 388.8671875 c 2
 264.6484375 388.8671875 l 2
 268.5546875 388.8671875 269.53125 386.42578125 269.53125 384.47265625 c 2
 269.53125 364.453125 l 1
 269.53125 364.453125 227.05078125 365.4296875 200.1953125 365.4296875 c 0
 176.26953125 365.4296875 138.671875 364.453125 138.671875 364.453125 c 1
 138.671875 384.9609375 l 2
 138.671875 386.42578125 139.6484375 388.8671875 143.5546875 388.8671875 c 2
 158.203125 388.8671875 l 2
 176.26953125 388.8671875 180.6640625 391.796875 180.6640625 413.28125 c 2
 180.6640625 463.57421875 l 1
 36.62109375 463.57421875 l 1
 32.71484375 475.29296875 l 1
 78.125 541.2109375 145.5078125 636.9140625 186.5234375 693.5546875 c 1
 216.30859375 683.7890625 l 1
 171.38671875 614.453125 112.3046875 531.93359375 89.84375 497.75390625 c 1
 180.6640625 497.75390625 l 1
 180.6640625 574.4140625 l 2
 180.6640625 581.25 185.546875 589.0625 187.5 591.9921875 c 0
 195.3125 600.78125 206.54296875 612.98828125 213.8671875 612.98828125 c 0
 219.7265625 612.98828125 226.5625 611.5234375 226.5625 603.22265625 c 2
EndSplineSet
Comment: "Re(4)"
EndChar

StartChar: uni2074.Regular.10
Encoding: 1115041 -1 100
Width: 0
VWidth: 0
Flags: H
LayerCount: 2
Fore
SplineSet
226.5625 623.2421875 m 2
 226.5625 504.1015625 l 1
 278.3203125 504.1015625 l 1
 278.3203125 474.8046875 l 1
 226.5625 474.8046875 l 1
 226.5625 411.81640625 l 2
 226.5625 393.26171875 230.46875 386.9140625 249.0234375 386.9140625 c 2
 264.6484375 386.9140625 l 2
 268.5546875 386.9140625 269.53125 384.47265625 269.53125 382.51953125 c 2
 269.53125 364.453125 l 1
 200.1953125 365.4296875 l 1
 132.32421875 364.453125 l 1
 132.32421875 383.0078125 l 2
 132.32421875 384.47265625 133.30078125 386.9140625 137.20703125 386.9140625 c 2
 155.2734375 386.9140625 l 2
 173.33984375 386.9140625 177.734375 389.84375 177.734375 411.328125 c 2
 177.734375 474.8046875 l 1
 32.2265625 474.8046875 l 1
 28.3203125 481.640625 l 1
 57.12890625 515.8203125 72.203125 552.944335938 79.58984375 580.2734375 c 0
 86.853515625 607.143554688 95.703125 655.46875 95.703125 688.18359375 c 1
 131.34765625 688.18359375 l 1
 131.34765625 651.07421875 125.48828125 613.96484375 118.65234375 578.3203125 c 0
 113.28125 550.48828125 98.6328125 517.7734375 90.33203125 504.1015625 c 1
 177.734375 504.1015625 l 1
 177.734375 597.36328125 l 1
 177.734375 597.36328125 226.5625 622.75390625 226.5625 623.2421875 c 2
EndSplineSet
Comment: "C_Re(4)"
EndChar

StartChar: uni2074.Italic.1
Encoding: 1115056 -1 101
Width: 0
VWidth: 0
Flags: H
LayerCount: 2
Fore
SplineSet
297 684 m 1
 247 635 178 561 168 544 c 1
 266 544 l 1
 297 684 l 1
253 486 m 2
 258 510 l 1
 140 510 l 2
 125.799804688 510 121.799804688 515.5 121.799804688 521.900390625 c 0
 121.799804688 527.700195312 125.099609375 534.200195312 127 538 c 0
 131 544 135 550 140 555 c 0
 185 609 241 661 285 702 c 0
 296 712 310 724 327 733 c 0
 328 734 338 734 341 734 c 0
 347 734 360 733 358 724 c 2
 318 544 l 1
 374 544 l 1
 360 510 l 1
 310 510 l 1
 305 486 l 2
 297.200195312 450.599609375 308.099609375 442.200195312 346 440 c 1
 348 432 345 418 339 411 c 1
 309 412 292 412 262 412 c 0
 227 412 213 412 183 411 c 1
 180 417 183 432 190 440 c 1
 230 442 244 445 253 486 c 2
EndSplineSet
Comment: "RI(170 153 152 151 148), aSI(154 153 151 150 148)"
EndChar

StartChar: uni2074.Italic.2
Encoding: 1115057 -1 102
Width: 0
VWidth: 0
Flags: H
LayerCount: 2
Fore
SplineSet
356.200195312 629 m 2
 337.400390625 544 l 1
 394.400390625 544 l 1
 380.900390625 510 l 1
 329.900390625 510 l 1
 319.200195312 462 l 2
 318.700195312 459.599609375 318.5 457.599609375 318.5 455.700195312 c 0
 318.5 442.5 330.700195312 440.799804688 346.099609375 439 c 2
 361.700195312 437 l 2
 365.700195312 437 366.200195312 435 365.799804688 433 c 2
 360.900390625 411 l 1
 360.900390625 411 315.099609375 412 285.099609375 412 c 0
 256.099609375 412 209.900390625 411 209.900390625 411 c 1
 214.799804688 433 l 2
 215.200195312 435 216.5 436 220.700195312 437 c 2
 236.099609375 439 l 2
 253.5 441 269.200195312 444 273.200195312 462 c 2
 283.900390625 510 l 1
 139.900390625 510 l 1
 138.5 522 l 1
 340.900390625 740 l 1
 369.599609375 730 l 1
 309.299804688 661 227.900390625 578 198.400390625 544 c 1
 291.400390625 544 l 1
 304 601 l 2
 307.5 616.599609375 337.799804688 639 345.5 639 c 0
 351.5 639 358.200195312 638 356.200195312 629 c 2
EndSplineSet
Comment: "ISc(108 107 105 103 102 97 95 94 90), It(108 105 103 102 97 96 90 89 88 79 78 76), RI(166 146 144 142 130 127 125 121 118 116 115 114 111), aSI(147 144 143 142 140 139 132 126 122 120 117 115)"
EndChar

StartChar: uni2074.Italic.3
Encoding: 1115058 -1 103
Width: 0
VWidth: 0
Flags: H
LayerCount: 2
Fore
SplineSet
356.248046875 629 m 2
 337.404296875 544 l 1
 394.404296875 544 l 1
 380.866210938 510 l 1
 329.866210938 510 l 1
 319.224609375 462 l 2
 318.700195312 459.633789062 318.451171875 457.53125 318.451171875 455.66015625 c 0
 318.451171875 442.501953125 330.755859375 440.750976562 346.125976562 439 c 2
 361.682617188 437 l 2
 365.682617188 437 366.239257812 435 365.795898438 433 c 2
 360.918945312 411 l 1
 360.918945312 411 315.140625 412 285.140625 412 c 0
 256.140625 412 209.918945312 411 209.918945312 411 c 1
 214.795898438 433 l 2
 215.239257812 435 216.4609375 436 220.682617188 437 c 2
 236.125976562 439 l 2
 253.569335938 441 269.234375 444 273.224609375 462 c 2
 283.866210938 510 l 1
 139.866210938 510 l 1
 138.526367188 522 l 1
 340.856445312 740 l 1
 369.638671875 730 l 1
 309.341796875 661 227.94140625 578 198.404296875 544 c 1
 291.404296875 544 l 1
 304.041015625 601 l 2
 307.495117188 616.579101562 337.734375 639 345.46484375 639 c 0
 351.46484375 639 358.243164062 638 356.248046875 629 c 2
EndSplineSet
Comment: "It(62)"
EndChar

StartChar: uni2074.Italic.4
Encoding: 1115059 -1 104
Width: 0
VWidth: 0
Flags: H
LayerCount: 2
Fore
SplineSet
356 629 m 2
 337 544 l 1
 395 544 l 1
 381 510 l 1
 330 510 l 1
 319 462 l 2
 319 460 318 458 318 456 c 0
 318 443 331 441 346 439 c 2
 362 437 l 2
 366 437 366 435 366 433 c 2
 361 411 l 1
 361 411 315 412 285 412 c 0
 256 412 210 411 210 411 c 1
 215 433 l 2
 215 435 216 436 221 437 c 2
 236 439 l 2
 254 441 269 444 273 462 c 2
 284 510 l 1
 140 510 l 1
 139 522 l 1
 341 740 l 1
 370 730 l 1
 309 661 228 578 198 544 c 1
 291 544 l 1
 304 601 l 2
 307 617 338 639 345 639 c 0
 351 639 358 638 356 629 c 2
EndSplineSet
Comment: "It(61 41)"
EndChar

StartChar: uni2074.Italic.5
Encoding: 1115060 -1 105
Width: 0
VWidth: 0
Flags: H
LayerCount: 2
Fore
SplineSet
344 677 m 2
 323 572 l 1
 378 572 l 1
 368 537 l 1
 316 537 l 1
 307 488 l 2
 303 469 306 463 325 463 c 2
 340 463 l 2
 344 463 345 460 344 458 c 2
 340 438 l 1
 340 438 298 439 271 439 c 0
 247 439 209 438 209 438 c 1
 213 459 l 2
 214 460 215 463 219 463 c 2
 234 463 l 2
 252 463 257 466 261 487 c 2
 271 537 l 1
 126 537 l 1
 125 549 l 1
 183 615 269 711 321 767 c 1
 349 758 l 1
 291 688 216 606 187 572 c 1
 277 572 l 1
 292 648 l 2
 293 655 300 663 303 666 c 0
 312 675 326 687 333 687 c 0
 338 687 345 685 344 677 c 2
EndSplineSet
Comment: "It(35)"
EndChar

StartChar: uni2074.Italic.6
Encoding: 1115061 -1 106
Width: 0
VWidth: 0
Flags: H
LayerCount: 2
Fore
SplineSet
343.75 603.22265625 m 2
 323.2421875 497.75390625 l 1
 377.9296875 497.75390625 l 1
 368.1640625 463.57421875 l 1
 316.40625 463.57421875 l 1
 307.12890625 413.76953125 l 2
 306.166015625 409.193359375 305.618164062 405.360351562 305.618164062 402.181640625 c 0
 305.618164062 392.470703125 310.728515625 388.8671875 324.70703125 388.8671875 c 2
 340.33203125 388.8671875 l 2
 344.23828125 388.8671875 344.7265625 386.42578125 344.23828125 384.47265625 c 2
 340.33203125 364.453125 l 1
 340.33203125 364.453125 298.33984375 365.4296875 270.99609375 365.4296875 c 0
 247.0703125 365.4296875 209.47265625 364.453125 209.47265625 364.453125 c 1
 213.37890625 384.9609375 l 2
 213.8671875 386.42578125 215.33203125 388.8671875 219.23828125 388.8671875 c 2
 233.88671875 388.8671875 l 2
 251.953125 388.8671875 256.8359375 391.796875 260.7421875 413.28125 c 2
 270.5078125 463.57421875 l 1
 126.46484375 463.57421875 l 1
 125 475.29296875 l 1
 183.10546875 541.2109375 269.04296875 636.9140625 321.2890625 693.5546875 c 1
 349.12109375 683.7890625 l 1
 291.015625 614.453125 215.8203125 531.93359375 186.5234375 497.75390625 c 1
 277.34375 497.75390625 l 1
 292.48046875 574.4140625 l 2
 293.45703125 581.25 299.8046875 589.0625 302.734375 591.9921875 c 0
 312.01171875 600.78125 325.68359375 612.98828125 333.0078125 612.98828125 c 0
 338.37890625 612.98828125 345.21484375 611.5234375 343.75 603.22265625 c 2
EndSplineSet
Comment: "It(4)"
EndChar

StartChar: uni2074.Slant.1
Encoding: 1115072 -1 107
Width: 0
VWidth: 0
Flags: H
LayerCount: 2
Fore
SplineSet
315.546875 683.700195312 m 1
 266.038085938 635.200195312 198.073242188 561.5 187.853515625 544 c 1
 285.853515625 544 l 1
 315.546875 683.700195312 l 1
273.524414062 486 m 2
 278.625976562 510 l 1
 159.825195312 510 l 2
 133.225585938 510 142.619140625 530.200195312 146.918945312 538.200195312 c 0
 151.158203125 544.5 155.420898438 549.5 159.990234375 555 c 0
 204.625976562 608.799804688 259.521484375 661 303.336914062 702 c 0
 314.569335938 712.5 328.349609375 723.700195312 345.583984375 732.799804688 c 0
 346.833007812 733.5 356.239257812 734 359.5390625 734 c 0
 365.838867188 734 378.004882812 732.900390625 376.11328125 724 c 2
 337.853515625 544 l 1
 393.853515625 544 l 1
 380.625976562 510 l 1
 330.625976562 510 l 1
 325.524414062 486 l 2
 316.810546875 445 333.172851562 442 366.747070312 440 c 1
 369.046875 432 366.071289062 418 360.583007812 411 c 1
 330.795898438 412 312.395507812 412 282.795898438 412 c 0
 247.49609375 412 234.795898438 412 204.583007812 411 c 1
 201.858398438 417 204.046875 432 210.747070312 440 c 1
 251.172851562 442 264.810546875 445 273.524414062 486 c 2
EndSplineSet
Comment: "aRL(154 153 151 150 148 147)"
EndChar

StartChar: uni2074.Slant.2
Encoding: 1115073 -1 108
Width: 0
VWidth: 0
Flags: H
LayerCount: 2
Fore
SplineSet
273.524414062 486 m 1
 278.625976562 510 l 1
 135.625976562 510 l 1
 134.176757812 522 l 1
 192.993164062 587 281.3984375 683 334.514648438 740 c 1
 363.388671875 730 l 1
 303.72265625 661 223.079101562 578 193.853515625 544 c 1
 285.853515625 544 l 1
 297.96875 601 l 2
 299.244140625 607 307.157226562 616 309.794921875 619 c 0
 318.708007812 628 333.045898438 639 340.045898438 639 c 0
 346.045898438 639 353.833007812 638 351.920898438 629 c 2
 333.853515625 544 l 1
 389.853515625 544 l 1
 376.625976562 510 l 1
 326.625976562 510 l 1
 321.524414062 486 l 2
 312.810546875 445 329.172851562 442 362.747070312 440 c 1
 365.046875 432 362.071289062 418 356.583007812 411 c 1
 326.795898438 412 310.795898438 412 280.795898438 412 c 0
 245.49609375 412 234.795898438 412 204.583007812 411 c 1
 201.858398438 417 204.046875 432 210.747070312 440 c 1
 251.172851562 442 264.810546875 445 273.524414062 486 c 1
 273.524414062 486 l 1
EndSplineSet
Comment: "aRL(144)"
EndChar

StartChar: uni2074.Slant.3
Encoding: 1115074 -1 109
Width: 0
VWidth: 0
Flags: H
LayerCount: 2
Fore
SplineSet
273.524414062 486 m 2
 278.625976562 510 l 1
 135.625976562 510 l 1
 134.176757812 522 l 1
 192.993164062 587 281.3984375 683 334.514648438 740 c 1
 363.388671875 730 l 1
 303.72265625 661 223.080078125 578 193.853515625 544 c 1
 285.853515625 544 l 1
 297.96875 601 l 2
 299.244140625 607 307.157226562 616 309.794921875 619 c 0
 318.708007812 628 333.045898438 639 340.045898438 639 c 0
 346.045898438 639 353.833984375 638 351.920898438 629 c 2
 333.853515625 544 l 1
 389.853515625 544 l 1
 376.625976562 510 l 1
 326.625976562 510 l 1
 321.524414062 486 l 2
 312.810546875 445 329.172851562 442 362.747070312 440 c 1
 365.046875 432 362.071289062 418 356.583007812 411 c 1
 326.795898438 412 310.795898438 412 280.795898438 412 c 0
 245.49609375 412 234.795898438 412 204.583007812 411 c 1
 201.858398438 417 204.046875 432 210.747070312 440 c 1
 251.172851562 442 264.810546875 445 273.524414062 486 c 2
EndSplineSet
Comment: "Sl(108 107 105 103 102 97 89 88), aRL(143 142 139 132 126 122 120 117 115)"
EndChar

StartChar: uni2074.Slant.4
Encoding: 1115075 -1 110
Width: 0
VWidth: 0
Flags: H
LayerCount: 2
Fore
SplineSet
273.525390625 486 m 2
 278.625976562 510 l 1
 135.625976562 510 l 1
 134.176757812 522 l 1
 192.993164062 587 281.3984375 683 334.514648438 740 c 1
 363.388671875 730 l 1
 303.72265625 661 223.080078125 578 193.853515625 544 c 1
 285.853515625 544 l 1
 297.96875 601 l 2
 299.244140625 607 307.157226562 616 309.794921875 619 c 0
 318.708007812 628 333.045898438 639 340.045898438 639 c 0
 346.045898438 639 353.833984375 638 351.920898438 629 c 2
 333.853515625 544 l 1
 389.853515625 544 l 1
 376.625976562 510 l 1
 326.625976562 510 l 1
 321.525390625 486 l 2
 312.810546875 445 329.172851562 442 362.747070312 440 c 1
 365.046875 432 362.071289062 418 356.583007812 411 c 1
 326.795898438 412 310.795898438 412 280.795898438 412 c 0
 245.49609375 412 234.795898438 412 204.583007812 411 c 1
 201.858398438 417 204.046875 432 210.747070312 440 c 1
 251.172851562 442 264.810546875 445 273.525390625 486 c 2
EndSplineSet
Comment: "aRL(140)"
EndChar

StartChar: uni2074.Slant.5
Encoding: 1115076 -1 111
Width: 0
VWidth: 0
Flags: H
LayerCount: 2
Fore
SplineSet
350.920898438 629 m 2
 332.853515625 544 l 1
 389.853515625 544 l 1
 376.625976562 510 l 1
 325.625976562 510 l 1
 315.423828125 462 l 2
 311.384765625 443 325.302734375 441.200195312 342.53515625 439 c 2
 358.109375 437 l 2
 362.002929688 436.5 362.684570312 435 362.259765625 433 c 2
 357.583007812 411 l 1
 357.583007812 411 311.795898438 412 281.795898438 412 c 0
 252.795898438 412 206.583007812 411 206.583007812 411 c 1
 211.259765625 433 l 2
 211.684570312 435 213.002929688 436.5 217.109375 437 c 2
 232.53515625 439 l 2
 250.0234375 441.299804688 265.534179688 443.700195312 269.423828125 462 c 2
 279.625976562 510 l 1
 135.625976562 510 l 1
 134.176757812 522 l 1
 192.993164062 587 281.3984375 683 334.514648438 740 c 1
 363.388671875 730 l 1
 303.72265625 661 223.080078125 578 193.853515625 544 c 1
 286.853515625 544 l 1
 298.96875 601 l 2
 300.244140625 607 306.944335938 615 309.58203125 618 c 0
 318.495117188 627 333.045898438 639 340.045898438 639 c 0
 346.045898438 639 352.833984375 638 350.920898438 629 c 2
EndSplineSet
Comment: "Sl(95 94 90 79 78 76)"
EndChar

StartChar: uni2074.Semibold.1
Encoding: 1115088 -1 112
Width: 0
VWidth: 0
Flags: H
LayerCount: 2
Fore
SplineSet
253 649 m 2
 253 548 l 1
 308 548 l 1
 305 506 l 1
 253 506 l 1
 253 465 l 2
 253 446 257 440 276 440 c 2
 292 440 l 2
 295 440 296 438 296 436 c 2
 296 411 l 1
 296 411 246 412 214 412 c 0
 185 412 139 411 139 411 c 1
 143 436 l 2
 143 438 144 440 147 440 c 2
 162 440 l 2
 180 440 185 443 185 464 c 2
 185 506 l 1
 34 506 l 1
 22 518 l 1
 67 584 138 683 179 740 c 1
 216 730 l 1
 91 548 l 1
 185 548 l 1
 185 621 l 2
 185 627 189 635 191 638 c 0
 199 647 233 659 241 659 c 0
 246 659 253 658 253 649 c 2
EndSplineSet
Comment: "RZ(170 166 151 150 148 146 144 142 131)"
EndChar

StartChar: uni2074.SemiboldItalic.1
Encoding: 1115104 -1 113
Width: 0
VWidth: 0
Flags: H
LayerCount: 2
Fore
SplineSet
380 665 m 1
 357 552 l 1
 409 552 l 1
 401 514 l 1
 350 514 l 1
 338 456 l 2
 335 442 335 437 339 437 c 2
 355 437 l 2
 372 437 375 431 375 427 c 2
 370 405 l 1
 285 406 l 1
 201 405 l 1
 206 428 l 2
 207 431 212 437 229 437 c 2
 247 437 l 2
 251 437 253 439 256 456 c 2
 268 514 l 1
 128 514 l 1
 124 525 l 1
 158 557 180 593 194 623 c 0
 206 648 224 693 230 729 c 1
 299 729 l 1
 292 690 278 655 264 618 c 0
 255 596 238 569 225 552 c 1
 276 552 l 1
 293 639 l 1
 293 639 346 664 347 665 c 2
 380 665 l 1
EndSplineSet
Comment: "RZI(170 166 151 150 148 146), aSZI(154 153 151 150 148 147)"
EndChar

StartChar: uni2074.SemiboldItalic.2
Encoding: 1115105 -1 114
Width: 0
VWidth: 0
Flags: H
LayerCount: 2
Fore
SplineSet
380 665 m 1
 357 552 l 1
 409 552 l 1
 401 514 l 1
 350 514 l 1
 338 456 l 2
 335.099609375 442 335 437 339 437 c 2
 355 437 l 2
 372 437 375 431 375 427 c 2
 370 405 l 1
 285 406 l 1
 201 405 l 1
 206 428 l 2
 207 431 212 437 229 437 c 2
 247 437 l 2
 251 437 253 439 256 456 c 2
 268 514 l 1
 128 514 l 1
 124 525 l 1
 158 557 180 593 194 623 c 0
 206 648 224 693 230 729 c 1
 299 729 l 1
 292 690 278 655 264 618 c 0
 255 596 238 569 225 552 c 1
 276 552 l 1
 293 639 l 1
 293 639 346 664 347 665 c 2
 380 665 l 1
EndSplineSet
Comment: "RZI(144 142), aSZI(144 143 142 140 139 132)"
EndChar

StartChar: uni2074.SemiBoldSlant.1
Encoding: 1115120 -1 115
Width: 0
VWidth: 0
Flags: H
LayerCount: 2
Fore
SplineSet
381.171875 649 m 2
 359.703125 548 l 1
 414.703125 548 l 1
 402.776367188 506 l 1
 350.776367188 506 l 1
 342.061523438 465 l 2
 338.022460938 446 340.747070312 440 359.747070312 440 c 2
 375.747070312 440 l 2
 378.747070312 440 379.322265625 438 378.897460938 436 c 2
 373.583007812 411 l 1
 373.583007812 411 323.795898438 412 291.795898438 412 c 0
 262.795898438 412 216.583007812 411 216.583007812 411 c 1
 225.897460938 436 l 2
 226.322265625 438 227.747070312 440 230.747070312 440 c 2
 245.747070312 440 l 2
 263.747070312 440 269.384765625 443 273.848632812 464 c 2
 282.776367188 506 l 1
 131.776367188 506 l 1
 122.327148438 518 l 1
 181.35546875 584 273.3984375 683 326.515625 740 c 1
 361.389648438 730 l 1
 197.703125 548 l 1
 291.703125 548 l 1
 307.219726562 621 l 2
 308.495117188 627 314.196289062 635 316.833007812 638 c 0
 326.74609375 647 363.296875 659 371.296875 659 c 0
 376.296875 659 383.084960938 658 381.171875 649 c 2
EndSplineSet
Comment: "aZL(154 153 151 150 148 147 144)"
EndChar

StartChar: uni2074.SemiBoldSlant.2
Encoding: 1115121 -1 116
Width: 0
VWidth: 0
Flags: H
LayerCount: 2
Fore
SplineSet
381.171875 649 m 2
 359.703125 548 l 1
 414.703125 548 l 1
 402.776367188 506 l 1
 350.776367188 506 l 1
 342.061523438 465 l 2
 338.022460938 446 340.747070312 440 359.747070312 440 c 2
 375.747070312 440 l 2
 378.747070312 440 379.322265625 438 378.897460938 436 c 2
 373.583007812 411 l 1
 373.583007812 411 323.795898438 412 291.795898438 412 c 0
 262.795898438 412 216.583007812 411 216.583007812 411 c 1
 225.897460938 436 l 2
 226.322265625 438 227.747070312 440 230.747070312 440 c 2
 245.747070312 440 l 2
 263.747070312 440 269.384765625 443 273.848632812 464 c 2
 282.776367188 506 l 1
 131.776367188 506 l 1
 122.327148438 518 l 1
 181.35546875 584 273.3984375 683 326.514648438 740 c 1
 361.388671875 730 l 1
 197.703125 548 l 1
 291.703125 548 l 1
 307.219726562 621 l 2
 308.495117188 627 314.1953125 635 316.833984375 638 c 0
 326.74609375 647 363.296875 659 371.296875 659 c 0
 376.296875 659 383.084960938 658 381.171875 649 c 2
EndSplineSet
Comment: "aZL(143 142 140 139 132)"
EndChar

StartChar: uni2074.Bold.1
Encoding: 1115136 -1 117
Width: 0
VWidth: 0
Flags: H
LayerCount: 2
Fore
SplineSet
258 495 m 2
 258 444 274 441 308 439 c 1
 312 431 312 416 308 409 c 1
 278 410 242 410 200 410 c 0
 164.700195312 410 134 410 104 409 c 1
 100 415 99 431 104 439 c 1
 144 441 175 444 175 495 c 2
 175 516 l 1
 29 516 l 1
 17 528 l 1
 62 594 155 707 196 764 c 1
 246 764 l 2
 251 764 258 763 258 754 c 2
 258 558 l 1
 318 558 l 1
 315 516 l 1
 258 516 l 1
 258 495 l 2
175 684.700195312 m 1
 80 558 l 1
 175 558 l 1
 175 684.700195312 l 1
EndSplineSet
Comment: "RB(170)"
EndChar

StartChar: uni2074.Bold.2
Encoding: 1115137 -1 118
Width: 0
VWidth: 0
Flags: H
LayerCount: 2
Fore
SplineSet
258 495 m 2
 258 444 274 441 308 439 c 1
 312 431 312 416 308 409 c 1
 278 410 242 410 200 410 c 0
 164.700195312 410 134 410 104 409 c 1
 100 415 99 431 104 439 c 1
 144 441 175 444 175 495 c 2
 175 516 l 1
 29 516 l 1
 17 528 l 1
 62 594 155 707 196 764 c 1
 246 764 l 2
 251 764 258 763 258 754 c 2
 258 558 l 1
 318 558 l 1
 315 516 l 1
 258 516 l 1
 258 495 l 2
175 684.700195312 m 1
 80 558 l 1
 175 558 l 1
 175 684.700195312 l 1
EndSplineSet
Comment: "RB(166 153 152 151 150 148 146 144 143 142 139 130), aBS(154 153 151 150 148 147 144 143 142 140 139 132)"
EndChar

StartChar: uni2074.Bold.3
Encoding: 1115138 -1 119
Width: 0
VWidth: 0
Flags: H
LayerCount: 2
Fore
SplineSet
253 649 m 2
 253 548 l 1
 308 548 l 1
 305 506 l 1
 253 506 l 1
 253 465 l 2
 253 446 257 440 276 440 c 2
 292 440 l 2
 295 440 296 438 296 436 c 2
 296 411 l 1
 296 411 246 412 214 412 c 0
 185 412 139 411 139 411 c 1
 143 436 l 2
 143 438 144 440 147 440 c 2
 162 440 l 2
 180 440 185 443 185 464 c 2
 185 506 l 1
 34 506 l 1
 22 518 l 1
 67 584 138 683 179 740 c 1
 216 730 l 1
 91 548 l 1
 185 548 l 1
 185 621 l 2
 185 627 189 635 191 638 c 0
 199 647 233 659 241 659 c 0
 246 659 253 658 253 649 c 2
EndSplineSet
Comment: "BSc(108 107 105 103 102 97 95 94 90), Bd(108 105 103 102 99 97 90 89 88 79 78 76 75 62 61 41), RB(127 125 121 118 116 115 114 111), aBS(126 122 120 117 115), aZS(154 153 151 150 148 147 144 143 142 140 139 132)"
EndChar

StartChar: uni2074.Bold.4
Encoding: 1115139 -1 120
Width: 0
VWidth: 0
Flags: H
LayerCount: 2
Fore
SplineSet
253 677 m 2
 253 576 l 1
 308 576 l 1
 305 534 l 1
 253 534 l 1
 253 493 l 2
 253 474 257 468 276 468 c 2
 292 468 l 2
 295 468 296 466 296 464 c 2
 296 439 l 1
 296 439 246 440 214 440 c 0
 185 440 139 439 139 439 c 1
 143 464 l 2
 143 466 144 468 147 468 c 2
 162 468 l 2
 180 468 185 471 185 492 c 2
 185 534 l 1
 34 534 l 1
 22 546 l 1
 67 612 138 711 179 768 c 1
 216 758 l 1
 91 576 l 1
 185 576 l 1
 185 649 l 2
 185 655 189 663 191 666 c 0
 199 675 233 687 241 687 c 0
 246 687 253 686 253 677 c 2
EndSplineSet
Comment: "Bd(35)"
EndChar

StartChar: uni2074.Bold.5
Encoding: 1115140 -1 121
Width: 0
VWidth: 0
Flags: H
LayerCount: 2
Fore
SplineSet
253.41796875 603.22265625 m 2
 253.41796875 501.66015625 l 1
 308.10546875 501.66015625 l 1
 305.17578125 459.66796875 l 1
 253.41796875 459.66796875 l 1
 253.41796875 418.65234375 l 2
 253.41796875 400.09765625 257.32421875 393.75 275.87890625 393.75 c 2
 291.50390625 393.75 l 2
 295.41015625 393.75 296.38671875 391.30859375 296.38671875 389.35546875 c 2
 296.38671875 364.453125 l 1
 296.38671875 364.453125 246.349609375 365.4296875 214.35546875 365.4296875 c 0
 184.8359375 365.4296875 138.671875 364.453125 138.671875 364.453125 c 1
 142.578125 389.84375 l 2
 142.578125 391.30859375 143.5546875 393.75 147.4609375 393.75 c 2
 162.109375 393.75 l 2
 180.17578125 393.75 184.5703125 396.6796875 184.5703125 418.1640625 c 2
 184.5703125 459.66796875 l 1
 33.69140625 459.66796875 l 1
 21.97265625 471.38671875 l 1
 67.3828125 537.3046875 137.6953125 636.9140625 178.7109375 693.5546875 c 1
 216.30859375 683.7890625 l 1
 91.30859375 501.66015625 l 1
 184.5703125 501.66015625 l 1
 184.5703125 574.4140625 l 2
 184.5703125 581.25 189.453125 589.0625 191.40625 591.9921875 c 0
 199.21875 600.78125 233.3984375 612.98828125 240.72265625 612.98828125 c 0
 246.09375 612.98828125 253.41796875 611.5234375 253.41796875 603.22265625 c 2
EndSplineSet
Comment: "Bd(4)"
EndChar

StartChar: uni2074.BoldItalic.1
Encoding: 1115152 -1 122
Width: 0
VWidth: 0
Flags: H
LayerCount: 2
Fore
SplineSet
346.099609375 495 m 2
 335.299804688 444 349.700195312 441 381.200195312 439 c 1
 383.299804688 431 380 416 374.799804688 409 c 1
 346.799804688 410 313 410 273.5 410 c 0
 240.299804688 410 211.5 410 183.099609375 409 c 1
 180.599609375 415 183.099609375 431 189.5 439 c 1
 227.5 441 257.299804688 444 268.099609375 495 c 2
 272.599609375 516 l 1
 135.299804688 516 l 1
 126.599609375 528 l 1
 182.900390625 594 294.299804688 707 345 764 c 1
 392 764 l 2
 396.700195312 764 403.099609375 763 401.200195312 754 c 2
 359.5 558 l 1
 415.900390625 558 l 1
 404.200195312 516 l 1
 350.599609375 516 l 1
 346.099609375 495 l 2
308.400390625 684.700195312 m 1
 192.200195312 558 l 1
 281.5 558 l 1
 308.400390625 684.700195312 l 1
EndSplineSet
Comment: "RBI(170 166 153 152 151 150 148 146), aSBI(154 153 151 150 148 147)"
EndChar

StartChar: uni2074.BoldItalic.2
Encoding: 1115153 -1 123
Width: 0
VWidth: 0
Flags: H
LayerCount: 2
Fore
SplineSet
356.200195312 629 m 2
 337.400390625 544 l 1
 394.400390625 544 l 1
 380.900390625 510 l 1
 329.900390625 510 l 1
 319.200195312 462 l 2
 318.700195312 459.599609375 318.5 457.599609375 318.5 455.700195312 c 0
 318.5 442.5 330.700195312 440.799804688 346.099609375 439 c 2
 361.700195312 437 l 2
 365.700195312 437 366.200195312 435 365.799804688 433 c 2
 360.900390625 411 l 1
 360.900390625 411 315.099609375 412 285.099609375 412 c 0
 256.099609375 412 209.900390625 411 209.900390625 411 c 1
 214.799804688 433 l 2
 215.200195312 435 216.5 436 220.700195312 437 c 2
 236.099609375 439 l 2
 253.5 441 269.200195312 444 273.200195312 462 c 2
 283.900390625 510 l 1
 139.900390625 510 l 1
 138.5 522 l 1
 340.900390625 740 l 1
 369.599609375 730 l 1
 309.299804688 661 227.900390625 578 198.400390625 544 c 1
 291.400390625 544 l 1
 304 601 l 2
 307.5 616.599609375 337.799804688 639 345.5 639 c 0
 351.5 639 358.200195312 638 356.200195312 629 c 2
EndSplineSet
Comment: "RBI(144 142), aSBI(144 143 142)"
EndChar

StartChar: uni2074.BoldItalic.3
Encoding: 1115154 -1 124
Width: 0
VWidth: 0
Flags: H
LayerCount: 2
Fore
SplineSet
380 665 m 1
 357 552 l 1
 409 552 l 1
 401 514 l 1
 350 514 l 1
 338 456 l 2
 335.099609375 442 335 437 339 437 c 2
 355 437 l 2
 372 437 375 431 375 427 c 2
 370 405 l 1
 285 406 l 1
 201 405 l 1
 206 428 l 2
 207 431 212 437 229 437 c 2
 247 437 l 2
 251 437 253 439 256 456 c 2
 268 514 l 1
 128 514 l 1
 124 525 l 1
 158 557 180 593 194 623 c 0
 206 648 224 693 230 729 c 1
 299 729 l 1
 292 690 278 655 264 618 c 0
 255 596 238 569 225 552 c 1
 276 552 l 1
 293 639 l 1
 293 639 346 664 347 665 c 2
 380 665 l 1
EndSplineSet
Comment: "BI(108 105 103 102 97 90 89 88 79 78 76), BiSc(108 107 105 103 102 97 95 94 90), RBI(130 127 125 121 118 116 115 114 111), aSBI(126 122 120 117 115)"
EndChar

StartChar: uni2074.BoldItalic.4
Encoding: 1115155 -1 125
Width: 0
VWidth: 0
Flags: H
LayerCount: 2
Fore
SplineSet
380 665 m 1
 357 552 l 1
 409 552 l 1
 401 514 l 1
 350 514 l 1
 338 456 l 2
 335 442 335 437 339 437 c 2
 355 437 l 2
 372 437 375 431 375 427 c 2
 370 405 l 1
 285 406 l 1
 201 405 l 1
 206 428 l 2
 207 431 212 437 229 437 c 2
 247 437 l 2
 251 437 253 439 256 456 c 2
 268 514 l 1
 128 514 l 1
 124 525 l 1
 158 557 180 593 194 623 c 0
 206 648 224 693 230 729 c 1
 299 729 l 1
 292 690 278 655 264 618 c 0
 255 596 238 569 225 552 c 1
 276 552 l 1
 293 639 l 1
 293 639 346 664 347 665 c 2
 380 665 l 1
EndSplineSet
Comment: "BI(62 41)"
EndChar

StartChar: uni2074.BoldItalic.5
Encoding: 1115156 -1 126
Width: 0
VWidth: 0
Flags: H
LayerCount: 2
Fore
SplineSet
380 693 m 1
 357 580 l 1
 409 580 l 1
 401 542 l 1
 350 542 l 1
 338 484 l 2
 335 470 335 465 339 465 c 2
 355 465 l 2
 372 465 375 459 375 455 c 2
 370 433 l 1
 285 434 l 1
 201 433 l 1
 206 456 l 2
 207 459 212 465 229 465 c 2
 247 465 l 2
 251 465 253 467 256 484 c 2
 268 542 l 1
 128 542 l 1
 124 553 l 1
 158 585 180 621 194 651 c 0
 206 676 224 721 230 757 c 1
 299 757 l 1
 292 718 278 683 264 646 c 0
 255 624 238 597 225 580 c 1
 276 580 l 1
 293 667 l 1
 293 667 346 692 347 693 c 2
 380 693 l 1
EndSplineSet
Comment: "BI(35)"
EndChar

StartChar: uni2074.BoldItalic.6
Encoding: 1115157 -1 127
Width: 0
VWidth: 0
Flags: H
LayerCount: 2
Fore
SplineSet
380.37109375 618.84765625 m 1
 357.421875 506.54296875 l 1
 408.69140625 506.54296875 l 1
 400.87890625 467.96875 l 1
 349.609375 467.96875 l 1
 337.890625 410.3515625 l 2
 334.9609375 395.703125 334.9609375 390.8203125 339.35546875 390.8203125 c 2
 354.98046875 390.8203125 l 2
 372.0703125 390.8203125 375.48828125 385.44921875 374.51171875 381.54296875 c 2
 370.1171875 359.08203125 l 1
 285.15625 360.05859375 l 1
 201.171875 359.08203125 l 1
 205.56640625 382.03125 l 2
 206.54296875 385.44921875 211.9140625 390.8203125 229.00390625 390.8203125 c 2
 247.0703125 390.8203125 l 2
 251.46484375 390.8203125 252.9296875 393.26171875 256.34765625 409.86328125 c 2
 268.06640625 467.96875 l 1
 127.9296875 467.96875 l 1
 123.53515625 478.7109375 l 1
 157.71484375 510.9375 180.17578125 547.55859375 193.84765625 576.85546875 c 0
 206.0546875 602.24609375 223.6328125 647.16796875 230.46875 682.8125 c 1
 299.31640625 682.8125 l 1
 291.50390625 643.75 278.3203125 609.08203125 264.16015625 572.4609375 c 0
 255.37109375 550 237.79296875 523.14453125 225.09765625 506.54296875 c 1
 275.87890625 506.54296875 l 1
 293.45703125 592.96875 l 1
 293.45703125 592.96875 346.19140625 617.87109375 346.6796875 618.84765625 c 2
 380.37109375 618.84765625 l 1
EndSplineSet
Comment: "BI(4)"
EndChar

StartChar: uni2074.BoldSlant.1
Encoding: 1115168 -1 128
Width: 0
VWidth: 0
Flags: H
LayerCount: 2
Fore
SplineSet
353.438476562 495 m 2
 342.59765625 444 357.959960938 441 391.53515625 439 c 1
 393.833984375 431 390.645507812 416 385.158203125 409 c 1
 355.37109375 410 319.37109375 410 277.37109375 410 c 0
 242.071289062 410 211.37109375 410 181.159179688 409 c 1
 178.434570312 415 180.834960938 431 187.536132812 439 c 1
 227.9609375 441 259.598632812 444 270.438476562 495 c 2
 274.90234375 516 l 1
 128.90234375 516 l 1
 119.453125 528 l 1
 178.481445312 594 295.5 707 348.615234375 764 c 1
 398.615234375 764 l 2
 403.615234375 764 410.403320312 763 408.490234375 754 c 2
 366.829101562 558 l 1
 426.829101562 558 l 1
 414.90234375 516 l 1
 357.90234375 516 l 1
 353.438476562 495 l 2
310.759765625 684.700195312 m 1
 188.829101562 558 l 1
 283.829101562 558 l 1
 310.759765625 684.700195312 l 1
EndSplineSet
Comment: "aBL(154 153 151 150 148 147 144)"
EndChar

StartChar: uni2074.BoldSlant.2
Encoding: 1115169 -1 129
Width: 0
VWidth: 0
Flags: H
LayerCount: 2
Fore
SplineSet
353.438476562 495 m 2
 342.59765625 444 357.959960938 441 391.53515625 439 c 1
 393.833984375 431 390.646484375 416 385.158203125 409 c 1
 355.370117188 410 319.370117188 410 277.370117188 410 c 0
 242.0703125 410 211.370117188 410 181.158203125 409 c 1
 178.43359375 415 180.833984375 431 187.53515625 439 c 1
 227.959960938 441 259.59765625 444 270.438476562 495 c 2
 274.901367188 516 l 1
 128.901367188 516 l 1
 119.452148438 528 l 1
 178.481445312 594 295.5 707 348.615234375 764 c 1
 398.615234375 764 l 2
 403.615234375 764 410.403320312 763 408.490234375 754 c 2
 366.829101562 558 l 1
 426.829101562 558 l 1
 414.901367188 516 l 1
 357.901367188 516 l 1
 353.438476562 495 l 2
310.759765625 684.700195312 m 1
 188.829101562 558 l 1
 283.829101562 558 l 1
 310.759765625 684.700195312 l 1
EndSplineSet
Comment: "aBL(143 142 140 139 132)"
EndChar

StartChar: uni2074.BoldSlant.3
Encoding: 1115170 -1 130
Width: 0
VWidth: 0
Flags: H
LayerCount: 2
Fore
SplineSet
381.171875 649 m 2
 359.703125 548 l 1
 414.703125 548 l 1
 402.776367188 506 l 1
 350.776367188 506 l 1
 342.061523438 465 l 2
 338.022460938 446 340.747070312 440 359.747070312 440 c 2
 375.747070312 440 l 2
 378.747070312 440 379.322265625 438 378.897460938 436 c 2
 373.583007812 411 l 1
 373.583007812 411 323.795898438 412 291.795898438 412 c 0
 262.795898438 412 216.583007812 411 216.583007812 411 c 1
 225.897460938 436 l 2
 226.322265625 438 227.747070312 440 230.747070312 440 c 2
 245.747070312 440 l 2
 263.747070312 440 269.384765625 443 273.848632812 464 c 2
 282.776367188 506 l 1
 131.776367188 506 l 1
 122.327148438 518 l 1
 181.35546875 584 273.3984375 683 326.514648438 740 c 1
 361.388671875 730 l 1
 197.703125 548 l 1
 291.703125 548 l 1
 307.219726562 621 l 2
 308.495117188 627 314.1953125 635 316.833984375 638 c 0
 326.74609375 647 363.296875 659 371.296875 659 c 0
 376.296875 659 383.084960938 658 381.171875 649 c 2
EndSplineSet
Comment: "BSl(108 107 105 103 102 97 95 94 90 89 88 79 78 76), aBL(126 122 120 117 115)"
EndChar

StartChar: uni2074.Mono.1
Encoding: 1115200 -1 132
Width: 0
VWidth: 0
Flags: H
LayerCount: 2
Fore
SplineSet
361.099609375 683.700195312 m 1
 321.900390625 635.200195312 269.599609375 561.5 263.099609375 544 c 1
 361.099609375 544 l 1
 361.099609375 683.700195312 l 1
361.099609375 486 m 2
 361.099609375 510 l 1
 242.299804688 510 l 2
 215.700195312 510 220.799804688 530.200195312 223.400390625 538.200195312 c 0
 226.299804688 544.5 229.5 549.5 232.900390625 555 c 0
 266.099609375 608.799804688 309.900390625 661 345 702 c 0
 354 712.5 365.400390625 723.700195312 380.700195312 732.799804688 c 0
 381.799804688 733.5 391.099609375 734 394.400390625 734 c 0
 400.700195312 734 413.099609375 732.900390625 413.099609375 724 c 2
 413.099609375 544 l 1
 469.099609375 544 l 1
 463.099609375 510 l 1
 413.099609375 510 l 1
 413.099609375 486 l 2
 413.099609375 445 430.099609375 442 464.099609375 440 c 1
 468.099609375 432 468.099609375 418 464.099609375 411 c 1
 434.099609375 412 415.700195312 412 386.099609375 412 c 0
 350.799804688 412 338.099609375 412 308.099609375 411 c 1
 304.099609375 417 303.099609375 432 308.099609375 440 c 1
 348.099609375 442 361.099609375 445 361.099609375 486 c 2
EndSplineSet
Comment: "M(170)"
EndChar

StartChar: uni2074.Underline.1
Encoding: 1115216 -1 133
Width: 0
VWidth: 0
Flags: H
LayerCount: 2
Fore
SplineSet
226.5625 622.75390625 m 2
 226.5625 503.61328125 l 1
 278.3203125 503.61328125 l 1
 278.3203125 474.31640625 l 1
 226.5625 474.31640625 l 1
 226.5625 411.328125 l 2
 226.5625 392.7734375 230.46875 386.42578125 249.0234375 386.42578125 c 2
 264.6484375 386.42578125 l 2
 268.5546875 386.42578125 269.53125 383.984375 269.53125 382.03125 c 2
 269.53125 363.96484375 l 1
 200.1953125 364.94140625 l 1
 132.32421875 363.96484375 l 1
 132.32421875 382.51953125 l 2
 132.32421875 383.984375 133.30078125 386.42578125 137.20703125 386.42578125 c 2
 155.2734375 386.42578125 l 2
 173.33984375 386.42578125 177.734375 389.35546875 177.734375 410.83984375 c 2
 177.734375 474.31640625 l 1
 32.2265625 474.31640625 l 1
 28.3203125 481.15234375 l 1
 57.12890625 515.33203125 72.203125 550.991210938 79.58984375 578.3203125 c 0
 86.853515625 605.190429688 95.703125 650.09765625 95.703125 682.8125 c 1
 131.34765625 682.8125 l 1
 131.34765625 645.703125 125.48828125 612.01171875 118.65234375 576.3671875 c 0
 113.28125 548.53515625 98.6328125 517.28515625 90.33203125 503.61328125 c 1
 177.734375 503.61328125 l 1
 177.734375 596.875 l 1
 177.734375 596.875 226.5625 622.265625 226.5625 622.75390625 c 2
EndSplineSet
Comment: "U_Re(4)"
EndChar

StartChar: uni00B3.Display.1
Encoding: 1114784 -1 134
Width: 0
VWidth: 0
Flags: H
LayerCount: 2
Fore
SplineSet
186 670 m 0
 186 696 164 704 148 704 c 0
 131 704 103 696 96 680 c 0
 91.2001953125 669 92 651 69 651 c 0
 50 651 46 666 46 669 c 0
 46 686 73 734 160 734 c 0
 212 734 245 712 245 675 c 0
 245 646 223 623 194 607 c 1
 227 604 274 577 274 519 c 0
 274 450 215 404 135 404 c 0
 108.799804688 404 38.2001953125 415.299804688 38.2001953125 446.799804688 c 0
 38.2001953125 460.099609375 50.7001953125 469 63 469 c 0
 77 469 87 464 93 452 c 0
 98.7001953125 440.5 107 434 139 434 c 0
 168 434 212 447 212 511 c 0
 212 568 161 572 137 572 c 0
 130 572 125 571 117 570 c 1
 111.599609375 576.5 112.299804688 587.900390625 115 597 c 1
 159 603 186 629 186 670 c 0
EndSplineSet
Comment: "DR(170 166 148 146 144 143 142 141), aDRS(154 153 151 150 148 147 144 143 142)"
EndChar

StartChar: uni00B3.DisplayItalic.1
Encoding: 1114800 -1 135
Width: 0
VWidth: 0
Flags: H
LayerCount: 2
Fore
SplineSet
318.635742188 670 m 0
 324.162109375 696 303.862304688 704 287.862304688 704 c 0
 270.862304688 704 241.162109375 696 230.760742188 680 c 0
 223.623046875 669 220.596679688 651 197.596679688 651 c 0
 178.596679688 651 177.78515625 666 178.422851562 669 c 0
 182.036132812 686 219.239257812 734 306.239257812 734 c 0
 358.239257812 734 386.5625 712 378.698242188 675 c 0
 372.534179688 646 345.645507812 623 313.244140625 607 c 1
 345.606445312 604 386.8671875 577 374.5390625 519 c 0
 359.873046875 450 291.095703125 404 211.095703125 404 c 0
 184.895507812 404 116.697265625 415.299804688 123.392578125 446.799804688 c 0
 126.219726562 460.099609375 140.611328125 469 152.911132812 469 c 0
 166.911132812 469 175.848632812 464 179.297851562 452 c 0
 182.553710938 440.5 189.471679688 434 221.471679688 434 c 0
 250.471679688 434 297.235351562 447 310.838867188 511 c 0
 322.954101562 568 272.8046875 572 248.8046875 572 c 0
 241.8046875 572 236.591796875 571 228.379882812 570 c 1
 224.361328125 576.5 227.484375 587.900390625 232.119140625 597 c 1
 277.393554688 603 309.920898438 629 318.635742188 670 c 0
EndSplineSet
Comment: "aDRL(153 151 150 148 147 144)"
EndChar

StartChar: uni00B3.DisplayItalic.2
Encoding: 1114801 -1 136
Width: 0
VWidth: 0
Flags: H
LayerCount: 2
Fore
SplineSet
318.635742188 670 m 0
 324.162109375 696 303.862304688 704 287.862304688 704 c 0
 270.862304688 704 241.162109375 696 230.760742188 680 c 0
 223.623046875 669 220.596679688 651 197.596679688 651 c 0
 178.596679688 651 177.78515625 666 178.422851562 669 c 0
 182.036132812 686 219.239257812 734 306.239257812 734 c 0
 358.239257812 734 386.561523438 712 378.698242188 675 c 0
 372.534179688 646 345.646484375 623 313.244140625 607 c 1
 345.606445312 604 386.8671875 577 374.5390625 519 c 0
 359.873046875 450 291.095703125 404 211.095703125 404 c 0
 184.896484375 404 116.697265625 415.299804688 123.392578125 446.799804688 c 0
 126.219726562 460.099609375 140.611328125 469 152.911132812 469 c 0
 166.911132812 469 175.848632812 464 179.297851562 452 c 0
 182.553710938 440.5 189.471679688 434 221.471679688 434 c 0
 250.471679688 434 297.235351562 447 310.838867188 511 c 0
 322.954101562 568 272.8046875 572 248.8046875 572 c 0
 241.8046875 572 236.591796875 571 228.379882812 570 c 1
 224.361328125 576.5 227.484375 587.900390625 232.119140625 597 c 1
 277.393554688 603 309.920898438 629 318.635742188 670 c 0
EndSplineSet
Comment: "aDRL(143 142)"
EndChar

StartChar: uni00B3.Regular.1
Encoding: 1114816 -1 137
Width: 0
VWidth: 0
Flags: H
LayerCount: 2
Fore
SplineSet
186 670 m 0
 186 696 164 704 148 704 c 0
 131 704 103 696 96 680 c 0
 91.2001953125 669 92 651 69 651 c 0
 50 651 46 666 46 669 c 0
 46 686 73 734 160 734 c 0
 212 734 245 712 245 675 c 0
 245 646 223 623 194 607 c 1
 227 604 274 577 274 519 c 0
 274 450 215 404 135 404 c 0
 108.799804688 404 38.2001953125 415.299804688 38.2001953125 446.799804688 c 0
 38.2001953125 460.099609375 50.7001953125 469 63 469 c 0
 77 469 87 464 93 452 c 0
 98.7001953125 440.5 107 434 139 434 c 0
 168 434 212 447 212 511 c 0
 212 568 161 572 137 572 c 0
 130 572 125 571 117 570 c 1
 111.599609375 576.5 112.299804688 587.900390625 115 597 c 1
 159 603 186 629 186 670 c 0
EndSplineSet
Comment: "R(170 166 153 152 151 148 146 144 142 139 130 127 125 121 118 116 115 114 111), Re(108 105 103 102 97 96 89 88), Sc(108 107 105 103 102 97), aS(154 153 151 150 148 147 144 143 142 140 139 132 126 122 120 117 115)"
EndChar

StartChar: uni00B3.Regular.2
Encoding: 1114817 -1 138
Width: 0
VWidth: 0
Flags: H
LayerCount: 2
Fore
SplineSet
188 670 m 0
 188 701 167 710 148 710 c 0
 128 710 94 700 93 675 c 0
 92 663 90 646 67 646 c 0
 48 646 44 661 44 664 c 0
 44 681 73 734 160 734 c 0
 212 734 245 712 245 675 c 0
 245 646 223 623 194 607 c 1
 227 604 274 577 274 519 c 0
 274 450 208 404 128 404 c 0
 91 404 39 420 39 441 c 0
 39 451 52 461 63 461 c 0
 77 461 83 454 89 447 c 0
 97 437 107 429 139 429 c 0
 158 429 215 442 215 511 c 0
 215 568 161 575 137 575 c 0
 130 575 125 574 117 573 c 1
 115 597 l 1
 159 603 188 629 188 670 c 0
EndSplineSet
Comment: "Re(90 79 78 76 75 62 61 41), Sc(95 94 90)"
EndChar

StartChar: uni00B3.Regular.3
Encoding: 1114818 -1 139
Width: 0
VWidth: 0
Flags: H
LayerCount: 2
Fore
SplineSet
188 670 m 0
 188 701 167 710 148 710 c 0
 128 710 94 700 93 675 c 0
 92 663 90 646 67 646 c 0
 48 646 44 661 44 664 c 0
 44 681 73 734 160 734 c 0
 212 734 245 712 245 675 c 0
 245 646 223 623 194 607 c 1
 227 604 274 577 274 519 c 0
 274 450 208 404 128 404 c 0
 91 404 39 420 39 441 c 0
 39 451 52 461 63 461 c 0
 77 461 83 454 89 447 c 0
 97 436 107 429 139 429 c 0
 158 429 215 442 215 511 c 0
 215 568 161 575 137 575 c 0
 130 575 125 574 117 573 c 1
 115 597 l 1
 159 603 188 629 188 670 c 0
EndSplineSet
Comment: "C(89 88 79 78 76), C_Re(62 61 41)"
EndChar

StartChar: uni00B3.Regular.4
Encoding: 1114819 -1 140
Width: 0
VWidth: 0
Flags: H
LayerCount: 2
Fore
SplineSet
188 698 m 0
 188 729 167 738 148 738 c 0
 128 738 94 728 93 703 c 0
 92 691 90 674 67 674 c 0
 48 674 44 689 44 692 c 0
 44 709 73 762 160 762 c 0
 212 762 245 740 245 703 c 0
 245 674 223 651 194 635 c 1
 227 632 274 605 274 547 c 0
 274 478 208 432 128 432 c 0
 91 432 39 448 39 469 c 0
 39 479 52 489 63 489 c 0
 77 489 83 482 89 475 c 0
 97 465 107 457 139 457 c 0
 158 457 215 470 215 539 c 0
 215 596 161 603 137 603 c 0
 130 603 125 602 117 601 c 1
 115 625 l 1
 159 631 188 657 188 698 c 0
EndSplineSet
Comment: "Re(35)"
EndChar

StartChar: uni00B3.Regular.5
Encoding: 1114820 -1 141
Width: 0
VWidth: 0
Flags: H
LayerCount: 2
Fore
SplineSet
188 698 m 0
 188 729 167 738 148 738 c 0
 128 738 94 728 93 703 c 0
 92 691 90 674 67 674 c 0
 48 674 44 689 44 692 c 0
 44 709 73 762 160 762 c 0
 212 762 245 740 245 703 c 0
 245 674 223 651 194 635 c 1
 227 632 274 605 274 547 c 0
 274 478 208 432 128 432 c 0
 91 432 39 448 39 469 c 0
 39 479 52 489 63 489 c 0
 77 489 83 482 89 475 c 0
 97 464 107 457 139 457 c 0
 158 457 215 470 215 539 c 0
 215 596 161 603 137 603 c 0
 130 603 125 602 117 601 c 1
 115 625 l 1
 159 631 188 657 188 698 c 0
EndSplineSet
Comment: "C_Re(35)"
EndChar

StartChar: uni00B3.Regular.6
Encoding: 1114821 -1 142
Width: 0
VWidth: 0
Flags: H
LayerCount: 2
Fore
SplineSet
188.4765625 623.73046875 m 0
 188.4765625 654.98046875 167.48046875 663.76953125 147.94921875 663.76953125 c 0
 128.41796875 663.76953125 94.23828125 654.00390625 92.7734375 629.1015625 c 0
 92.28515625 617.3828125 89.84375 599.8046875 67.3828125 599.8046875 c 0
 47.8515625 599.8046875 43.9453125 614.94140625 43.9453125 618.359375 c 0
 43.9453125 635.44921875 72.75390625 688.18359375 160.15625 688.18359375 c 0
 211.9140625 688.18359375 244.62890625 665.72265625 244.62890625 629.58984375 c 0
 244.62890625 600.29296875 222.65625 576.85546875 193.84765625 561.23046875 c 1
 227.05078125 557.8125 273.92578125 530.95703125 273.92578125 472.8515625 c 0
 273.92578125 404.00390625 207.51953125 358.59375 128.41796875 358.59375 c 0
 90.8203125 358.59375 38.57421875 374.21875 38.57421875 395.21484375 c 0
 38.57421875 405.46875 52.24609375 414.74609375 62.98828125 414.74609375 c 0
 76.66015625 414.74609375 82.51953125 408.3984375 88.8671875 401.07421875 c 0
 96.6796875 390.8203125 106.93359375 383.0078125 139.16015625 383.0078125 c 0
 158.203125 383.0078125 215.33203125 396.19140625 215.33203125 465.52734375 c 0
 215.33203125 522.16796875 161.1328125 529.00390625 136.71875 529.00390625 c 0
 129.8828125 529.00390625 124.51171875 528.515625 116.69921875 527.05078125 c 1
 114.74609375 551.46484375 l 1
 158.69140625 557.32421875 188.4765625 582.71484375 188.4765625 623.73046875 c 0
EndSplineSet
Comment: "Re(4)"
EndChar

StartChar: uni00B3.Regular.7
Encoding: 1114822 -1 143
Width: 0
VWidth: 0
Flags: H
LayerCount: 2
Fore
SplineSet
188.4765625 623.73046875 m 0
 188.4765625 654.98046875 167.48046875 663.76953125 147.94921875 663.76953125 c 0
 128.484375 663.76953125 94.2373046875 654.028320312 92.91796875 629.262695312 c 0
 92.28515625 617.3828125 89.73046875 599.8046875 67.3828125 599.8046875 c 0
 47.8515625 599.8046875 43.9453125 614.94140625 43.9453125 618.359375 c 0
 43.9453125 635.44921875 72.75390625 688.18359375 160.15625 688.18359375 c 0
 211.9140625 688.18359375 244.62890625 665.72265625 244.62890625 629.58984375 c 0
 244.62890625 600.29296875 222.65625 576.85546875 193.84765625 561.23046875 c 1
 227.05078125 557.8125 273.92578125 531.07421875 273.92578125 472.8515625 c 0
 273.92578125 404.00390625 207.51953125 358.59375 128.41796875 358.59375 c 0
 90.8203125 358.59375 38.57421875 374.21875 38.57421875 395.21484375 c 0
 38.57421875 405.46875 52.201171875 414.74609375 62.98828125 414.74609375 c 0
 76.521484375 414.74609375 82.56640625 408.608398438 88.623046875 401.001953125 c 0
 96.923828125 390.576171875 107.048828125 383.0078125 139.16015625 383.0078125 c 0
 158.203125 383.0078125 215.33203125 396.19140625 215.33203125 465.52734375 c 0
 215.33203125 522.16796875 161.1328125 529.00390625 136.71875 529.00390625 c 0
 129.8828125 529.00390625 124.51171875 528.515625 116.69921875 527.05078125 c 1
 114.74609375 551.46484375 l 1
 158.69140625 557.32421875 188.4765625 582.71484375 188.4765625 623.73046875 c 0
EndSplineSet
Comment: "C_Re(4)"
EndChar

StartChar: uni00B3.Italic.1
Encoding: 1114832 -1 144
Width: 0
VWidth: 0
Flags: H
LayerCount: 2
Fore
SplineSet
310 670 m 0
 310 674 311 677 311 681 c 0
 311 703 294 710 277 710 c 0
 257 710 221 700 215 675 c 0
 212 663 206 646 184 646 c 0
 165 646 164 661 164 664 c 0
 167 681 207 734 294 734 c 0
 341 734 368 716 368 686 c 0
 368 682 368 679 367 675 c 0
 361 646 335 623 303 607 c 1
 332 604 368 583 368 537 c 0
 368 532 367 525 366 519 c 0
 353 450 277 404 198 404 c 0
 162 404 115 419 115 439 c 0
 115 452 134 461 144 461 c 0
 157 461 162 454 167 447 c 0
 173 437 182 429 213 429 c 0
 232 429 292 442 306 511 c 0
 307 517 307 522 307 526 c 0
 307 569 262 575 240 575 c 0
 233 575 227 574 219 573 c 1
 222 597 l 1
 267 603 302 629 310 670 c 0
EndSplineSet
Comment: "It(62 61 41), RI(170 153 152 151 148 146), aSI(154 153 151 150 148 147)"
EndChar

StartChar: uni00B3.Italic.2
Encoding: 1114833 -1 145
Width: 0
VWidth: 0
Flags: H
LayerCount: 2
Fore
SplineSet
186 670 m 0
 186 696 164 704 148 704 c 0
 131 704 103 696 96 680 c 0
 91.2001953125 669 92 651 69 651 c 0
 50 651 46 666 46 669 c 0
 46 686 73 734 160 734 c 0
 212 734 245 712 245 675 c 0
 245 646 223 623 194 607 c 1
 227 604 274 577 274 519 c 0
 274 450 215 404 135 404 c 0
 108.799804688 404 38.2001953125 415.299804688 38.2001953125 446.799804688 c 0
 38.2001953125 460.099609375 50.7001953125 469 63 469 c 0
 77 469 87 464 93 452 c 0
 98.7001953125 440.5 107 434 139 434 c 0
 168 434 212 447 212 511 c 0
 212 568 161 572 137 572 c 0
 130 572 125 571 117 570 c 1
 111.599609375 576.5 112.299804688 587.900390625 115 597 c 1
 159 603 186 629 186 670 c 0
EndSplineSet
Comment: "RI(166)"
EndChar

StartChar: uni00B3.Italic.3
Encoding: 1114834 -1 146
Width: 0
VWidth: 0
Flags: H
LayerCount: 2
Fore
SplineSet
310 670 m 0
 310 674 311 677 311 681 c 0
 311 703 294 710 277 710 c 0
 257 710 221.200195312 699.900390625 215 675 c 0
 212 663 206 646 184 646 c 0
 165 646 164 661 164 664 c 0
 167 681 207 734 294 734 c 0
 341 734 368 716 368 686 c 0
 368 682 368 679 367 675 c 0
 361 646 335 623 303 607 c 1
 332 604 368 583 368 537 c 0
 368 532 367 525 366 519 c 0
 353 450 277 404 198 404 c 0
 162 404 115 419 115 439 c 0
 115 452 134 461 144 461 c 0
 157 461 162 454 167 447 c 0
 173 437 182 429 213 429 c 0
 232 429 292 442 306 511 c 0
 307 517 307 522 307 526 c 0
 307 569 262 575 240 575 c 0
 233 575 227 574 219 573 c 1
 222 597 l 1
 267 603 302 629 310 670 c 0
EndSplineSet
Comment: "ISc(108 107 105 103 102 97 95 94 90), It(108 105 103 102 97 96 90 89 88 79 78 76), RI(144 142 130 127 125 121 118 116 115 114 111), aSI(144 143 142 140 139 132 126 122 120 117 115)"
EndChar

StartChar: uni00B3.Italic.4
Encoding: 1114835 -1 147
Width: 0
VWidth: 0
Flags: H
LayerCount: 2
Fore
SplineSet
310 698 m 0
 310 702 311 705 311 709 c 0
 311 731 294 738 277 738 c 0
 257 738 221 728 215 703 c 0
 212 691 206 674 184 674 c 0
 165 674 164 689 164 692 c 0
 167 709 207 762 294 762 c 0
 341 762 368 744 368 714 c 0
 368 710 368 707 367 703 c 0
 361 674 335 651 303 635 c 1
 332 632 368 611 368 565 c 0
 368 560 367 553 366 547 c 0
 353 478 277 432 198 432 c 0
 162 432 115 447 115 467 c 0
 115 480 134 489 144 489 c 0
 157 489 162 482 167 475 c 0
 173 465 182 457 213 457 c 0
 232 457 292 470 306 539 c 0
 307 545 307 550 307 554 c 0
 307 597 262 603 240 603 c 0
 233 603 227 602 219 601 c 1
 222 625 l 1
 267 631 302 657 310 698 c 0
EndSplineSet
Comment: "It(35)"
EndChar

StartChar: uni00B3.Italic.5
Encoding: 1114836 -1 148
Width: 0
VWidth: 0
Flags: H
LayerCount: 2
Fore
SplineSet
309.5703125 623.73046875 m 0
 310.403320312 627.83203125 310.791015625 631.547851562 310.791015625 634.907226562 c 0
 310.791015625 657.138671875 293.823242188 663.76953125 276.85546875 663.76953125 c 0
 257.32421875 663.76953125 221.19140625 654.00390625 215.33203125 629.1015625 c 0
 212.40234375 617.3828125 206.0546875 599.8046875 184.08203125 599.8046875 c 0
 164.55078125 599.8046875 163.57421875 614.94140625 164.0625 618.359375 c 0
 167.48046875 635.44921875 206.54296875 688.18359375 293.9453125 688.18359375 c 0
 340.586914062 688.18359375 368.1953125 669.94140625 368.1953125 639.897460938 c 0
 368.1953125 636.6015625 367.86328125 633.159179688 367.1875 629.58984375 c 0
 361.328125 600.29296875 334.9609375 576.85546875 302.734375 561.23046875 c 1
 331.716796875 558.203125 367.598632812 536.77734375 367.598632812 491.528320312 c 0
 367.598632812 485.701171875 366.998046875 479.48046875 365.72265625 472.8515625 c 0
 352.478515625 404.015625 277.34375 358.59375 198.2421875 358.59375 c 0
 162.056640625 358.59375 115.015625 373.06640625 115.015625 392.873046875 c 0
 115.015625 405.775390625 134.41015625 414.74609375 143.5546875 414.74609375 c 0
 157.2265625 414.74609375 162.109375 408.3984375 166.50390625 401.07421875 c 0
 172.8515625 390.8203125 181.640625 383.0078125 213.37890625 383.0078125 c 0
 232.421875 383.0078125 292.209960938 396.244140625 305.6640625 465.52734375 c 0
 306.701171875 470.866210938 307.211914062 475.754882812 307.211914062 480.2421875 c 0
 307.211914062 523.393554688 261.860351562 529.00390625 239.74609375 529.00390625 c 0
 232.91015625 529.00390625 227.05078125 528.515625 219.23828125 527.05078125 c 1
 221.6796875 551.46484375 l 1
 267.08984375 557.32421875 301.7578125 582.71484375 309.5703125 623.73046875 c 0
EndSplineSet
Comment: "It(4)"
EndChar

StartChar: uni00B3.Slant.1
Encoding: 1114848 -1 149
Width: 0
VWidth: 0
Flags: H
LayerCount: 2
Fore
SplineSet
318.635742188 670 m 0
 324.162109375 696 303.862304688 704 287.862304688 704 c 0
 270.862304688 704 241.162109375 696 230.760742188 680 c 0
 223.623046875 669 220.596679688 651 197.596679688 651 c 0
 178.596679688 651 177.78515625 666 178.422851562 669 c 0
 182.036132812 686 219.239257812 734 306.239257812 734 c 0
 358.239257812 734 386.5625 712 378.698242188 675 c 0
 372.534179688 646 345.645507812 623 313.244140625 607 c 1
 345.606445312 604 386.8671875 577 374.5390625 519 c 0
 359.873046875 450 291.095703125 404 211.095703125 404 c 0
 184.895507812 404 116.697265625 415.299804688 123.392578125 446.799804688 c 0
 126.219726562 460.099609375 140.611328125 469 152.911132812 469 c 0
 166.911132812 469 175.848632812 464 179.297851562 452 c 0
 182.553710938 440.5 189.471679688 434 221.471679688 434 c 0
 250.471679688 434 297.235351562 447 310.838867188 511 c 0
 322.954101562 568 272.8046875 572 248.8046875 572 c 0
 241.8046875 572 236.591796875 571 228.379882812 570 c 1
 224.361328125 576.5 227.484375 587.900390625 232.119140625 597 c 1
 277.393554688 603 309.920898438 629 318.635742188 670 c 0
EndSplineSet
Comment: "aRL(154 153 151 150 148 147 144)"
EndChar

StartChar: uni00B3.Slant.2
Encoding: 1114849 -1 150
Width: 0
VWidth: 0
Flags: H
LayerCount: 2
Fore
SplineSet
318.635742188 670 m 0
 324.162109375 696 303.862304688 704 287.862304688 704 c 0
 270.862304688 704 241.162109375 696 230.760742188 680 c 0
 223.623046875 669 220.596679688 651 197.596679688 651 c 0
 178.596679688 651 177.78515625 666 178.422851562 669 c 0
 182.036132812 686 219.239257812 734 306.239257812 734 c 0
 358.239257812 734 386.561523438 712 378.698242188 675 c 0
 372.534179688 646 345.646484375 623 313.244140625 607 c 1
 345.606445312 604 386.8671875 577 374.5390625 519 c 0
 359.873046875 450 291.095703125 404 211.095703125 404 c 0
 184.896484375 404 116.697265625 415.299804688 123.392578125 446.799804688 c 0
 126.219726562 460.099609375 140.611328125 469 152.911132812 469 c 0
 166.911132812 469 175.848632812 464 179.297851562 452 c 0
 182.553710938 440.5 189.471679688 434 221.471679688 434 c 0
 250.471679688 434 297.235351562 447 310.838867188 511 c 0
 322.954101562 568 272.8046875 572 248.8046875 572 c 0
 241.8046875 572 236.591796875 571 228.379882812 570 c 1
 224.361328125 576.5 227.484375 587.900390625 232.119140625 597 c 1
 277.393554688 603 309.920898438 629 318.635742188 670 c 0
EndSplineSet
Comment: "Sl(108 107 105 103 102 97 89 88), aRL(143 142 140 139 132 126 122 120 117 115)"
EndChar

StartChar: uni00B3.Slant.3
Encoding: 1114850 -1 151
Width: 0
VWidth: 0
Flags: H
LayerCount: 2
Fore
SplineSet
320.635742188 670 m 0
 327.224609375 701 308.137695312 710 289.137695312 710 c 0
 269.137695312 710 233.01171875 700 226.698242188 675 c 0
 223.147460938 663 217.534179688 646 194.534179688 646 c 0
 175.534179688 646 174.72265625 661 175.360351562 664 c 0
 178.973632812 681 219.239257812 734 306.239257812 734 c 0
 358.239257812 734 386.561523438 712 378.698242188 675 c 0
 372.534179688 646 345.646484375 623 313.244140625 607 c 1
 345.606445312 604 386.8671875 577 374.5390625 519 c 0
 359.873046875 450 284.095703125 404 204.095703125 404 c 0
 167.095703125 404 118.49609375 420 122.959960938 441 c 0
 125.084960938 451 140.2109375 461 151.2109375 461 c 0
 165.2109375 461 169.72265625 454 174.235351562 447 c 0
 180.109375 437 188.409179688 429 220.409179688 429 c 0
 239.409179688 429 299.172851562 442 313.838867188 511 c 0
 325.954101562 568 273.442382812 575 249.442382812 575 c 0
 242.442382812 575 237.228515625 574 229.017578125 573 c 1
 232.119140625 597 l 1
 277.393554688 603 311.920898438 629 320.635742188 670 c 0
EndSplineSet
Comment: "Sl(95 94 90 79 78 76)"
EndChar

StartChar: uni00B3.Semibold.1
Encoding: 1114864 -1 152
Width: 0
VWidth: 0
Flags: H
LayerCount: 2
Fore
SplineSet
197 667 m 0
 197 694 179 706 160 706 c 0
 148 706 110 693 108 672 c 0
 108 659 107 635 78 635 c 0
 46 635 45 657 45 661 c 0
 45 679 69 734 172 734 c 0
 237 734 273 711 273 672 c 0
 273 648 254 624 224 606 c 1
 262 596 299 568 299 517 c 0
 299 447 228 404 138 404 c 0
 92 404 36 417 36 440 c 0
 36 456 46 472 64 472 c 0
 92 472 100 460 106 451 c 0
 113 441 131 434 148 434 c 0
 162 434 224 445 224 510 c 0
 224 563 190 574 149 574 c 0
 146 574 136 573 108 567 c 1
 105 594 l 1
 149 600 197 627 197 667 c 0
EndSplineSet
Comment: "RZ(170 166 151 150 148 146 144 142 131)"
EndChar

StartChar: uni00B3.SemiboldItalic.1
Encoding: 1114880 -1 153
Width: 0
VWidth: 0
Flags: H
LayerCount: 2
Fore
SplineSet
312 667 m 1
 312 679 l 2
 312 697 302 703 294 703 c 0
 282 703 253 693 248 672 c 0
 244 659 234 635 200 635 c 0
 173 635 170 650 170 658 c 2
 170 661 l 1
 174 679 209 734 312 734 c 0
 371 734 406 714 406 682 c 0
 406 679 406 676 405 672 c 0
 400 648 372 624 338 606 c 1
 370 597 402 574 402 534 c 0
 402 529 401 523 400 517 c 0
 386 447 300 400 210 400 c 0
 166 400 115 412 115 433 c 0
 115 434 115 435 116 436 c 0
 119 452 132 468 149 468 c 0
 177 468 184 456 188 447 c 0
 193 437 209 430 227 430 c 0
 240 430 293 445 306 510 c 0
 308 516 308 521 308 526 c 0
 308 565 272 574 256 574 c 0
 254 574 244 573 214 567 c 1
 217 594 l 1
 262 600 303 627 312 667 c 1
EndSplineSet
Comment: "RZI(170 166 151 150 148 146 144 142), aSZI(154 153 151 150 148 147 144 143 142 140 139 132)"
EndChar

StartChar: uni00B3.SemiBoldSlant.1
Encoding: 1114896 -1 154
Width: 0
VWidth: 0
Flags: H
LayerCount: 2
Fore
SplineSet
328.998046875 667 m 1
 334.736328125 694 319.287109375 706 300.287109375 706 c 0
 288.287109375 706 247.524414062 693 241.060546875 672 c 0
 238.296875 659 232.196289062 635 203.196289062 635 c 0
 171.196289062 635 174.872070312 657 175.72265625 661 c 0
 179.547851562 679 215.239257812 734 318.239257812 734 c 0
 383.239257812 734 414.350585938 711 406.060546875 672 c 0
 400.958984375 648 376.857421875 624 343.03125 606 c 1
 378.90625 596 409.954101562 568 399.114257812 517 c 0
 384.235351562 447 304.095703125 404 214.095703125 404 c 0
 168.095703125 404 114.858398438 417 119.747070312 440 c 0
 123.1484375 456 136.548828125 472 154.548828125 472 c 0
 182.548828125 472 187.998046875 460 192.084960938 451 c 0
 196.959960938 441 213.471679688 434 230.471679688 434 c 0
 244.471679688 434 308.810546875 445 322.625976562 510 c 0
 333.891601562 563 302.229492188 574 261.229492188 574 c 0
 258.229492188 574 248.017578125 573 218.7421875 567 c 1
 221.481445312 594 l 1
 266.755859375 600 320.495117188 627 328.998046875 667 c 1
 328.998046875 667 l 1
EndSplineSet
Comment: "aZL(154 153 151 150 148 147 144)"
EndChar

StartChar: uni00B3.SemiBoldSlant.2
Encoding: 1114897 -1 155
Width: 0
VWidth: 0
Flags: H
LayerCount: 2
Fore
SplineSet
328.998046875 667 m 0
 334.736328125 694 319.287109375 706 300.287109375 706 c 0
 288.287109375 706 247.524414062 693 241.060546875 672 c 0
 238.296875 659 232.196289062 635 203.196289062 635 c 0
 171.196289062 635 174.872070312 657 175.72265625 661 c 0
 179.547851562 679 215.239257812 734 318.239257812 734 c 0
 383.239257812 734 414.349609375 711 406.060546875 672 c 0
 400.958984375 648 376.857421875 624 343.03125 606 c 1
 378.90625 596 409.954101562 568 399.114257812 517 c 0
 384.235351562 447 304.095703125 404 214.095703125 404 c 0
 168.095703125 404 114.858398438 417 119.747070312 440 c 0
 123.1484375 456 136.548828125 472 154.548828125 472 c 0
 182.548828125 472 187.998046875 460 192.084960938 451 c 0
 196.959960938 441 213.471679688 434 230.471679688 434 c 0
 244.471679688 434 308.810546875 445 322.625976562 510 c 0
 333.891601562 563 302.228515625 574 261.228515625 574 c 0
 258.228515625 574 248.017578125 573 218.7421875 567 c 1
 221.481445312 594 l 1
 266.755859375 600 320.495117188 627 328.998046875 667 c 0
EndSplineSet
Comment: "aZL(143 142 139 132)"
EndChar

StartChar: uni00B3.SemiBoldSlant.3
Encoding: 1114898 -1 156
Width: 0
VWidth: 0
Flags: H
LayerCount: 2
Fore
SplineSet
328.998046875 667 m 0
 334.736328125 694 319.287109375 706 300.287109375 706 c 0
 288.287109375 706 247.524414062 693 241.060546875 672 c 0
 238.296875 659 232.1953125 635 203.1953125 635 c 0
 171.1953125 635 174.872070312 657 175.72265625 661 c 0
 179.547851562 679 215.239257812 734 318.239257812 734 c 0
 383.239257812 734 414.349609375 711 406.060546875 672 c 0
 400.958984375 648 376.857421875 624 343.03125 606 c 1
 378.90625 596 409.954101562 568 399.114257812 517 c 0
 384.235351562 447 304.095703125 404 214.095703125 404 c 0
 168.095703125 404 114.858398438 417 119.747070312 440 c 0
 123.1484375 456 136.548828125 472 154.548828125 472 c 0
 182.548828125 472 187.998046875 460 192.084960938 451 c 0
 196.959960938 441 213.471679688 434 230.471679688 434 c 0
 244.471679688 434 308.810546875 445 322.625976562 510 c 0
 333.891601562 563 302.228515625 574 261.228515625 574 c 0
 258.228515625 574 248.017578125 573 218.7421875 567 c 1
 221.481445312 594 l 1
 266.755859375 600 320.495117188 627 328.998046875 667 c 0
EndSplineSet
Comment: "aZL(140)"
EndChar

StartChar: uni00B3.Bold.1
Encoding: 1114912 -1 157
Width: 0
VWidth: 0
Flags: H
LayerCount: 2
Fore
SplineSet
197 681 m 0
 197 710 177 725 155 725 c 0
 133 725 110 709 108 686 c 0
 108 672 97 646 68 646 c 0
 36 646 35 670 35 674 c 0
 35 693 69 755 172 755 c 0
 237 755 283 728 283 686 c 0
 283 661 265 636 236 617 c 0
 235 616 234 614 236 613 c 0
 273 602 309 582 309 528 c 0
 309 452 228 405 138 405 c 0
 92 405 36 414 26 446 c 0
 19 468 35 491 61 491 c 0
 89 491 99 463 106 454 c 0
 114 445 127 435 148 435 c 0
 168 435 214 458 214 520 c 0
 214 564 180 576 139 576 c 0
 130 576 118 575 105 572 c 1
 105 602 l 1
 149 608 197 638 197 681 c 0
EndSplineSet
Comment: "RB(170 166 153 152 151 150 148 146), aBS(154 153 151 150 148 147)"
EndChar

StartChar: uni00B3.Bold.2
Encoding: 1114913 -1 158
Width: 0
VWidth: 0
Flags: H
LayerCount: 2
Fore
SplineSet
197 667 m 0
 197 694 179 706 160 706 c 0
 148 706 110 693 108 672 c 0
 108 659 107 635 78 635 c 0
 46 635 45 657 45 661 c 0
 45 679 69 734 172 734 c 0
 237 734 273 711 273 672 c 0
 273 648 254 624 224 606 c 1
 262 596 299 568 299 517 c 0
 299 447 228 404 138 404 c 0
 92 404 36 417 36 440 c 0
 36 456 46 472 64 472 c 0
 92 472 100 460 106 451 c 0
 113 441 131 434 148 434 c 0
 162 434 224 445 224 510 c 0
 224 563 190 574 149 574 c 0
 146 574 136 573 108 567 c 1
 105 594 l 1
 149 600 197 627 197 667 c 0
EndSplineSet
Comment: "BSc(108 107 105 103 102 97 95 94 90), Bd(108 105 103 102 99 97 90 89 88 79 78 76 75 62 61 41), RB(127 125 121 118 116 115 114 111), aBS(126 122 120 117 115), aZS(154 153 151 150 148 147 144 143 142 140 139 132)"
EndChar

StartChar: uni00B3.Bold.3
Encoding: 1114914 -1 159
Width: 0
VWidth: 0
Flags: H
LayerCount: 2
Fore
SplineSet
197 681 m 0
 197 710 177 725 155 725 c 0
 133 725 110 709 108 686 c 0
 108 672 97 646 68 646 c 0
 36 646 35 670 35 674 c 0
 35 693 69 755 172 755 c 0
 237 755 283 728 283 686 c 0
 283 661 265 636 236 617 c 0
 235 616 234 614 236 613 c 0
 273 602 309 582 309 528 c 0
 309 452 228 405 138 405 c 0
 92 405 36.099609375 414 26 446 c 0
 19.099609375 468 35 491 61 491 c 0
 89 491 99 463 106 454 c 0
 114 445 127 435 148 435 c 0
 168 435 214 458 214 520 c 0
 214 564 180 576 139 576 c 0
 130 576 118 575 105 572 c 1
 105 602 l 1
 149 608 197 638 197 681 c 0
EndSplineSet
Comment: "RB(144), aBS(144)"
EndChar

StartChar: uni00B3.Bold.4
Encoding: 1114915 -1 160
Width: 0
VWidth: 0
Flags: H
LayerCount: 2
Fore
SplineSet
197 689.700195312 m 0
 197 718.900390625 171.200195312 733.799804688 155 733.799804688 c 0
 143 733.799804688 110 717.799804688 108 695.099609375 c 0
 108 681.099609375 97 655.099609375 68 655.099609375 c 0
 36 655.099609375 35 678.900390625 35 683.200195312 c 0
 35 702.599609375 69 764 172 764 c 0
 237 764 283 737.200195312 283 695.099609375 c 0
 283 669.700195312 265 645 235.799804688 626 c 0
 234.299804688 625 233.799804688 622.900390625 236 622.200195312 c 0
 273 611 309 581.799804688 309 527.700195312 c 0
 309 452.099609375 228 404.599609375 138 404.599609375 c 0
 92 404.599609375 36 414 26 445.5 c 0
 19.099609375 467.299804688 34.7001953125 490.900390625 61 490.900390625 c 0
 89 490.900390625 98.599609375 466.099609375 106 457.400390625 c 0
 114 448 131 438 148 438 c 0
 162 438 214 458 214 520.099609375 c 0
 214 564 180 578.400390625 139 578.400390625 c 0
 130 578.400390625 118 577 105 573.900390625 c 1
 105 610.900390625 l 1
 149 617.400390625 197 646.5 197 689.700195312 c 0
EndSplineSet
Comment: "RB(143 142 139 130), aBS(143 142 140 139 132)"
EndChar

StartChar: uni00B3.Bold.5
Encoding: 1114916 -1 161
Width: 0
VWidth: 0
Flags: H
LayerCount: 2
Fore
SplineSet
190 695 m 0
 190 722 170 731 160 731 c 0
 148 731 117 721 115 700 c 0
 115 687 112 663 78 663 c 0
 46 663 45 685 45 689 c 0
 45 707 69 762 172 762 c 0
 237 762 273 739 273 700 c 0
 273 676 254 652 224 634 c 1
 262 624 299 596 299 545 c 0
 299 475 228 428 138 428 c 0
 92 428 36 441 36 464 c 0
 36 480 46 496 64 496 c 0
 92 496 100 484 106 475 c 0
 113 465 131 458 148 458 c 0
 162 458 217 473 217 538 c 0
 217 591 167 602 149 602 c 0
 146 602 136 601 108 595 c 1
 105 622 l 1
 149 628 190 655 190 695 c 0
EndSplineSet
Comment: "Bd(35)"
EndChar

StartChar: uni00B3.Bold.6
Encoding: 1114917 -1 162
Width: 0
VWidth: 0
Flags: H
LayerCount: 2
Fore
SplineSet
189.94140625 620.80078125 m 0
 189.94140625 648.6328125 170.41015625 657.421875 160.15625 657.421875 c 0
 148.4375 657.421875 116.69921875 647.65625 115.234375 626.171875 c 0
 114.74609375 612.98828125 111.81640625 589.0625 77.63671875 589.0625 c 0
 45.8984375 589.0625 44.921875 611.03515625 44.921875 615.4296875 c 0
 44.921875 633.49609375 68.84765625 688.18359375 172.36328125 688.18359375 c 0
 236.81640625 688.18359375 272.94921875 664.74609375 272.94921875 626.66015625 c 0
 272.94921875 601.7578125 254.39453125 578.3203125 224.12109375 559.765625 c 1
 262.20703125 550 299.31640625 522.16796875 299.31640625 471.38671875 c 0
 299.31640625 401.07421875 228.02734375 354.6875 138.18359375 354.6875 c 0
 91.796875 354.6875 36.1328125 367.3828125 36.1328125 390.33203125 c 0
 36.1328125 406.201171875 46.38671875 422.0703125 63.720703125 422.0703125 c 0
 91.552734375 422.0703125 100.3046875 410.28515625 106.4453125 401.07421875 c 0
 113.28125 390.8203125 130.859375 384.47265625 148.4375 384.47265625 c 0
 162.109375 384.47265625 216.796875 399.12109375 216.796875 464.0625 c 0
 216.796875 516.796875 166.9921875 528.515625 148.92578125 528.515625 c 0
 146.484375 528.515625 136.23046875 527.05078125 108.3984375 521.6796875 c 1
 105.46875 548.046875 l 1
 148.92578125 553.90625 189.94140625 581.25 189.94140625 620.80078125 c 0
EndSplineSet
Comment: "Bd(4)"
EndChar

StartChar: uni00B3.BoldItalic.1
Encoding: 1114928 -1 163
Width: 0
VWidth: 0
Flags: H
LayerCount: 2
Fore
SplineSet
231.299804688 435 m 0
 267.400390625 435 313.200195312 486 313.200195312 535.200195312 c 0
 313.200195312 566.799804688 286.5 576 252.799804688 576 c 0
 244.299804688 576 232.900390625 575 220 572 c 1
 226.400390625 602 l 1
 270.200195312 608.200195312 331 640.900390625 331 693.099609375 c 0
 331 714.200195312 317.099609375 725 299.5 725 c 0
 278.799804688 725 253.799804688 709 247 686 c 0
 244 672 228.200195312 646 200.900390625 646 c 0
 178.700195312 646 175.200195312 659 175.200195312 667.5 c 0
 175.200195312 670.5 175.700195312 673 175.900390625 674 c 0
 179.900390625 693 225.099609375 755 321.900390625 755 c 0
 377 755 412.900390625 733.099609375 412.900390625 698 c 0
 412.900390625 663.400390625 386.400390625 637.5 352.700195312 617 c 0
 351.900390625 616.299804688 351.099609375 615.299804688 351.099609375 614.299804688 c 0
 351.099609375 613.799804688 351.299804688 613.299804688 351.900390625 613 c 0
 379.5 603.700195312 405 587.799804688 405 550.099609375 c 0
 405 501 376.599609375 466.900390625 342.5 443.200195312 c 0
 307.200195312 418.700195312 261.099609375 405 215.5 405 c 0
 171.700195312 405 118.799804688 413.700195312 118.799804688 448.900390625 c 0
 118.799804688 470 138 491 161.400390625 491 c 0
 187.700195312 491 191.200195312 463 195.900390625 454 c 0
 201.5 445 211.599609375 435 231.299804688 435 c 0
EndSplineSet
Comment: "RBI(170)"
EndChar

StartChar: uni00B3.BoldItalic.2
Encoding: 1114929 -1 164
Width: 0
VWidth: 0
Flags: H
LayerCount: 2
Fore
SplineSet
231.299804688 435 m 0
 267.400390625 435 313.200195312 486 313.200195312 535.200195312 c 0
 313.200195312 566.799804688 286.5 576 252.799804688 576 c 0
 244.299804688 576 232.900390625 575 220 572 c 1
 226.400390625 602 l 1
 270.200195312 608.200195312 331 640.900390625 331 693.099609375 c 0
 331 714.200195312 317.099609375 725 299.5 725 c 0
 278.799804688 725 253.799804688 709 247 686 c 0
 244 672 228.200195312 646 200.900390625 646 c 0
 178.700195312 646 175.200195312 659 175.200195312 667.5 c 0
 175.200195312 670.5 175.700195312 673 175.900390625 674 c 0
 179.900390625 693 225.099609375 755 321.900390625 755 c 0
 377 755 412.900390625 733.099609375 412.900390625 698 c 0
 412.900390625 663.400390625 386.400390625 637.5 352.700195312 617 c 0
 351.900390625 616.299804688 351.099609375 615.299804688 351.099609375 614.299804688 c 0
 351.099609375 613.799804688 351.299804688 613.299804688 351.900390625 613 c 0
 379.5 603.700195312 404.900390625 587.799804688 404.900390625 550.099609375 c 0
 404.900390625 501 376.599609375 466.900390625 342.5 443.200195312 c 0
 307.200195312 418.700195312 261.099609375 405 215.5 405 c 0
 171.700195312 405 118.799804688 413.700195312 118.799804688 448.900390625 c 0
 118.799804688 470 138 491 161.400390625 491 c 0
 187.700195312 491 191.200195312 463 195.900390625 454 c 0
 201.5 445 211.599609375 435 231.299804688 435 c 0
EndSplineSet
Comment: "RBI(166 153 152 151 150 148), aSBI(154 153 151 150 148)"
EndChar

StartChar: uni00B3.BoldItalic.3
Encoding: 1114930 -1 165
Width: 0
VWidth: 0
Flags: H
LayerCount: 2
Fore
SplineSet
329.599609375 681 m 0
 335.799804688 710 320.200195312 725 299.5 725 c 0
 278.799804688 725 253.900390625 709 247.099609375 686 c 0
 244.099609375 672 228.200195312 646 200.900390625 646 c 0
 170.799804688 646 175 670 175.900390625 674 c 0
 179.900390625 693 225.099609375 755 321.900390625 755 c 0
 383 755 420.5 728 411.599609375 686 c 0
 406.299804688 661 384 636 352.700195312 617 c 0
 351.5 616 350.200195312 614 351.900390625 613 c 0
 384.299804688 602 413.900390625 582 402.400390625 528 c 0
 386.200195312 452 300.099609375 405 215.5 405 c 0
 172.299804688 405 121.599609375 414 119 446 c 0
 117.099609375 468 137 491 161.400390625 491 c 0
 187.700195312 491 191.200195312 463 195.900390625 454 c 0
 201.5 445 211.599609375 435 231.299804688 435 c 0
 250.099609375 435 298.200195312 458 311.400390625 520 c 0
 320.799804688 564 291.299804688 576 252.799804688 576 c 0
 244.299804688 576 232.900390625 575 220 572 c 1
 226.400390625 602 l 1
 269 608 320.5 638 329.599609375 681 c 0
EndSplineSet
Comment: "RBI(146), aSBI(147)"
EndChar

StartChar: uni00B3.BoldItalic.4
Encoding: 1114931 -1 166
Width: 0
VWidth: 0
Flags: H
LayerCount: 2
Fore
SplineSet
310 670 m 0
 310 674 311 677 311 681 c 0
 311 703 294 710 277 710 c 0
 257 710 221.200195312 699.900390625 215 675 c 0
 212 663 206 646 184 646 c 0
 165 646 164 661 164 664 c 0
 167 681 207 734 294 734 c 0
 341 734 368 716 368 686 c 0
 368 682 368 679 367 675 c 0
 361 646 335 623 303 607 c 1
 332 604 368 583 368 537 c 0
 368 532 367 525 366 519 c 0
 353 450 277 404 198 404 c 0
 162 404 115 419 115 439 c 0
 115 452 134 461 144 461 c 0
 157 461 162 454 167 447 c 0
 173 437 182 429 213 429 c 0
 232 429 292 442 306 511 c 0
 307 517 307 522 307 526 c 0
 307 569 262 575 240 575 c 0
 233 575 227 574 219 573 c 1
 222 597 l 1
 267 603 302 629 310 670 c 0
EndSplineSet
Comment: "RBI(144 142), aSBI(144 143 142)"
EndChar

StartChar: uni00B3.BoldItalic.5
Encoding: 1114932 -1 167
Width: 0
VWidth: 0
Flags: H
LayerCount: 2
Fore
SplineSet
312 667 m 1
 312 679 l 2
 312 697 302 703 294 703 c 0
 282 703 253 693 248 672 c 0
 244 659 234 635 200 635 c 0
 173 635 170 650 170 658 c 2
 170 661 l 1
 174 679 209 734 312 734 c 0
 371 734 406 714 406 682 c 0
 406 679 406 676 405 672 c 0
 400 648 372 624 338 606 c 1
 370 597 402 574 402 534 c 0
 402 529 401 523 400 517 c 0
 386 447 300 400 210 400 c 0
 166 400 115 412 115 433 c 0
 115 434 115 435 116 436 c 0
 119 452 132 468 149 468 c 0
 177 468 184 456 188 447 c 0
 193 437 209 430 227 430 c 0
 240 430 293 445 306 510 c 0
 308 516 308 521 308 526 c 0
 308 565 272 574 256 574 c 0
 254 574 244 573 214 567 c 1
 217 594 l 1
 262 600 303 627 312 667 c 1
EndSplineSet
Comment: "BI(108 105 103 102 97 90 89 88 79 78 76 62 41), BiSc(108 107 105 103 102 97 95 94 90), RBI(130 127 125 121 118 116 115 114 111), aSBI(126 122 120 117 115)"
EndChar

StartChar: uni00B3.BoldItalic.6
Encoding: 1114933 -1 168
Width: 0
VWidth: 0
Flags: H
LayerCount: 2
Fore
SplineSet
312 695 m 1
 312 707 l 2
 312 725 302 731 294 731 c 0
 282 731 253 721 248 700 c 0
 244 687 234 663 200 663 c 0
 173 663 170 678 170 686 c 2
 170 689 l 1
 174 707 209 762 312 762 c 0
 371 762 406 742 406 710 c 0
 406 707 406 704 405 700 c 0
 400 676 372 652 338 634 c 1
 370 625 402 602 402 562 c 0
 402 557 401 551 400 545 c 0
 386 475 300 428 210 428 c 0
 166 428 115 440 115 461 c 0
 115 462 115 463 116 464 c 0
 119 480 132 496 149 496 c 0
 177 496 184 484 188 475 c 0
 193 465 209 458 227 458 c 0
 240 458 293 473 306 538 c 0
 308 544 308 549 308 554 c 0
 308 593 272 602 256 602 c 0
 254 602 244 601 214 595 c 1
 217 622 l 1
 262 628 303 655 312 695 c 1
EndSplineSet
Comment: "BI(35)"
EndChar

StartChar: uni00B3.BoldItalic.7
Encoding: 1114934 -1 169
Width: 0
VWidth: 0
Flags: H
LayerCount: 2
Fore
SplineSet
311.5234375 620.80078125 m 0
 312.5 625.68359375 312.5 629.58984375 312.5 633.49609375 c 0
 312.5 651.5625 302.24609375 657.421875 293.9453125 657.421875 c 0
 282.2265625 657.421875 253.41796875 647.65625 247.55859375 626.171875 c 0
 244.140625 612.98828125 233.88671875 589.0625 199.70703125 589.0625 c 0
 173.33984375 589.0625 169.921875 604.19921875 169.921875 612.01171875 c 2
 169.921875 615.4296875 l 1
 173.828125 633.49609375 208.984375 688.18359375 312.5 688.18359375 c 0
 371.09375 688.18359375 406.25 668.65234375 406.25 636.42578125 c 0
 406.25 633.49609375 405.76171875 630.078125 405.2734375 626.66015625 c 0
 400.390625 601.7578125 372.0703125 578.3203125 337.890625 559.765625 c 1
 369.62890625 550.9765625 401.85546875 528.515625 401.85546875 488.4765625 c 0
 401.85546875 483.10546875 401.3671875 477.24609375 399.90234375 471.38671875 c 0
 385.7421875 401.07421875 300.29296875 354.6875 210.44921875 354.6875 c 0
 166.015625 354.6875 115.234375 366.40625 115.234375 387.40234375 c 0
 115.234375 388.37890625 115.234375 389.35546875 115.72265625 390.33203125 c 0
 118.65234375 406.4453125 132.32421875 422.0703125 149.4140625 422.0703125 c 0
 177.24609375 422.0703125 183.57421875 410.342773438 187.98828125 401.07421875 c 0
 192.87109375 390.8203125 208.984375 384.47265625 226.5625 384.47265625 c 0
 240.234375 384.47265625 292.96875 399.12109375 306.15234375 464.0625 c 0
 307.6171875 469.921875 308.10546875 475.29296875 308.10546875 480.17578125 c 0
 308.10546875 519.23828125 272.4609375 528.515625 256.34765625 528.515625 c 0
 253.90625 528.515625 243.65234375 527.05078125 214.35546875 521.6796875 c 1
 216.796875 548.046875 l 1
 261.71875 553.90625 303.22265625 581.25 311.5234375 620.80078125 c 0
EndSplineSet
Comment: "BI(4)"
EndChar

StartChar: uni00B3.BoldSlant.1
Encoding: 1114944 -1 170
Width: 0
VWidth: 0
Flags: H
LayerCount: 2
Fore
SplineSet
331.973632812 681 m 0
 338.137695312 710 321.326171875 725 299.326171875 725 c 0
 277.326171875 725 250.924804688 709 244.036132812 686 c 0
 241.060546875 672 224.534179688 646 195.534179688 646 c 0
 163.534179688 646 167.635742188 670 168.485351562 674 c 0
 172.524414062 693 219.702148438 755 322.703125 755 c 0
 387.703125 755 427.96484375 728 419.037109375 686 c 0
 413.723632812 661 390.409179688 636 357.37109375 617 c 0
 356.158203125 616 354.733398438 614 356.520507812 613 c 0
 391.182617188 602 422.931640625 582 411.453125 528 c 0
 395.298828125 452 304.307617188 405 214.307617188 405 c 0
 168.307617188 405 114.220703125 414 111.022460938 446 c 0
 108.69921875 468 129.587890625 491 155.587890625 491 c 0
 183.587890625 491 187.635742188 463 192.72265625 454 c 0
 198.810546875 445 209.684570312 435 230.684570312 435 c 0
 250.684570312 435 301.573242188 458 314.751953125 520 c 0
 324.104492188 564 292.655273438 576 251.655273438 576 c 0
 242.655273438 576 230.442382812 575 216.8046875 572 c 1
 223.181640625 602 l 1
 268.45703125 608 322.833007812 638 331.973632812 681 c 0
EndSplineSet
Comment: "aBL(154 153 151 150 148 147)"
EndChar

StartChar: uni00B3.BoldSlant.2
Encoding: 1114945 -1 171
Width: 0
VWidth: 0
Flags: H
LayerCount: 2
Fore
SplineSet
331.973632812 681 m 0
 338.137695312 710 321.326171875 725 299.326171875 725 c 0
 277.326171875 725 250.924804688 709 244.036132812 686 c 0
 241.060546875 672 224.534179688 646 195.534179688 646 c 0
 163.534179688 646 167.635742188 670 168.485351562 674 c 0
 172.524414062 693 219.702148438 755 322.703125 755 c 0
 387.703125 755 427.96484375 728 419.037109375 686 c 0
 413.723632812 661 390.409179688 636 357.37109375 617 c 0
 356.158203125 616 354.733398438 614 356.520507812 613 c 0
 391.182617188 602 422.931640625 582 411.453125 528 c 0
 395.298828125 452 304.307617188 405 214.307617188 405 c 0
 168.307617188 405 114.321289062 414 111.022460938 446 c 0
 108.798828125 468 129.587890625 491 155.587890625 491 c 0
 183.587890625 491 187.635742188 463 192.72265625 454 c 0
 198.810546875 445 209.684570312 435 230.684570312 435 c 0
 250.684570312 435 301.573242188 458 314.751953125 520 c 0
 324.104492188 564 292.655273438 576 251.655273438 576 c 0
 242.655273438 576 230.442382812 575 216.8046875 572 c 1
 223.181640625 602 l 1
 268.45703125 608 322.833007812 638 331.973632812 681 c 0
EndSplineSet
Comment: "aBL(144)"
EndChar

StartChar: uni00B3.BoldSlant.3
Encoding: 1114946 -1 172
Width: 0
VWidth: 0
Flags: H
LayerCount: 2
Fore
SplineSet
333.822265625 689.700195312 m 0
 340.029296875 718.900390625 317.396484375 733.799804688 301.196289062 733.799804688 c 0
 289.196289062 733.799804688 252.795898438 717.799804688 245.970703125 695.099609375 c 0
 242.995117188 681.099609375 226.467773438 655.099609375 197.467773438 655.099609375 c 0
 165.467773438 655.099609375 169.52734375 678.900390625 170.44140625 683.200195312 c 0
 174.564453125 702.599609375 221.615234375 764 324.615234375 764 c 0
 389.615234375 764 429.918945312 737.200195312 420.970703125 695.099609375 c 0
 415.571289062 669.700195312 392.321289062 645 359.083007812 626 c 0
 357.370117188 625 356.423828125 622.900390625 358.474609375 622.200195312 c 0
 393.094726562 611 422.887695312 581.799804688 411.388671875 527.700195312 c 0
 395.319335938 452.099609375 304.22265625 404.599609375 214.22265625 404.599609375 c 0
 168.22265625 404.599609375 114.220703125 414 110.916015625 445.5 c 0
 108.650390625 467.299804688 129.266601562 490.900390625 155.56640625 490.900390625 c 0
 183.56640625 490.900390625 187.89453125 466.099609375 193.4453125 457.400390625 c 0
 199.447265625 448 214.322265625 438 231.322265625 438 c 0
 245.322265625 438 301.573242188 458 314.7734375 520.099609375 c 0
 324.103515625 564 293.165039062 578.400390625 252.165039062 578.400390625 c 0
 243.165039062 578.400390625 230.8671875 577 217.208984375 573.900390625 c 1
 225.073242188 610.900390625 l 1
 270.455078125 617.400390625 324.640625 646.5 333.822265625 689.700195312 c 0
EndSplineSet
Comment: "aBL(143 142 140 139 132)"
EndChar

StartChar: uni00B3.BoldSlant.4
Encoding: 1114947 -1 173
Width: 0
VWidth: 0
Flags: H
LayerCount: 2
Fore
SplineSet
328.998046875 667 m 0
 334.736328125 694 319.287109375 706 300.287109375 706 c 0
 288.287109375 706 247.524414062 693 241.060546875 672 c 0
 238.296875 659 232.196289062 635 203.196289062 635 c 0
 171.196289062 635 174.872070312 657 175.72265625 661 c 0
 179.547851562 679 215.239257812 734 318.239257812 734 c 0
 383.239257812 734 414.349609375 711 406.060546875 672 c 0
 400.958984375 648 376.857421875 624 343.03125 606 c 1
 378.90625 596 409.954101562 568 399.114257812 517 c 0
 384.235351562 447 304.095703125 404 214.095703125 404 c 0
 168.095703125 404 114.858398438 417 119.747070312 440 c 0
 123.1484375 456 136.548828125 472 154.548828125 472 c 0
 182.548828125 472 187.998046875 460 192.084960938 451 c 0
 196.959960938 441 213.471679688 434 230.471679688 434 c 0
 244.471679688 434 308.810546875 445 322.625976562 510 c 0
 333.891601562 563 302.228515625 574 261.228515625 574 c 0
 258.228515625 574 248.017578125 573 218.7421875 567 c 1
 221.481445312 594 l 1
 266.755859375 600 320.495117188 627 328.998046875 667 c 0
EndSplineSet
Comment: "BSl(108 107 105 103 102 97 95 94 90 89 88 79 78 76), aBL(126 122 120 117 115)"
EndChar

StartChar: uni00B3.Outline.2
Encoding: 1114961 -1 175
Width: 0
VWidth: 0
Flags: H
LayerCount: 2
Fore
SplineSet
186 670 m 0
 186 696 164 704 148 704 c 0
 131 704 103 696 96 680 c 0
 91.2001953125 669 92 651 69 651 c 0
 50 651 46 666 46 669 c 0
 46 686 73 734 160 734 c 0
 212 734 245 712 245 675 c 0
 245 646 223 623 194 607 c 1
 227 604 274 577 274 519 c 0
 274 450 215 404 135 404 c 0
 108.799804688 404 38.2001953125 415.299804688 38.2001953125 446.799804688 c 0
 38.2001953125 460.099609375 50.7001953125 469 63 469 c 0
 77 469 87 464 93 452 c 0
 98.7001953125 440.5 107 434 139 434 c 0
 168 434 212 447 212 511 c 0
 212 568 161 572 137 572 c 0
 130 572 125 571 117 570 c 1
 111.599609375 576.5 112.299804688 587.900390625 115 597 c 1
 159 603 186 629 186 670 c 0
EndSplineSet
Comment: "I(146 144 142)"
EndChar

StartChar: uni00B3.Mono.1
Encoding: 1114976 -1 176
Width: 0
VWidth: 0
Flags: H
LayerCount: 2
Fore
SplineSet
293 667 m 0
 293 693 280 704 241 704 c 0
 224 704 191.5 699.5 183 680 c 0
 178.200195312 669 179 651 156 651 c 0
 137 651 133 666 133 669 c 0
 133 686 166 734 253 734 c 0
 308.5 734 352 717.5 352 671 c 0
 352 633 330 617 301 601 c 1
 334 598 381 574 381 516 c 0
 381 447 312 404 232 404 c 0
 205.799804688 404 125.200195312 415.299804688 125.200195312 446.799804688 c 0
 125.200195312 460.099609375 137.700195312 469 150 469 c 0
 164 469 174 464 180 452 c 0
 185.700195312 440.5 204 434 236 434 c 0
 265 434 319 453 319 508 c 0
 319 565 268 569 244 569 c 0
 237 569 232 568.5 224 567 c 1
 218.599609375 573.5 219.299804688 584.900390625 222 594 c 1
 266 600 293 626 293 667 c 0
EndSplineSet
Comment: "M(170)"
EndChar

StartChar: uni00B3.Underline.1
Encoding: 1114992 -1 177
Width: 0
VWidth: 0
Flags: H
LayerCount: 2
Fore
SplineSet
194.3359375 623.73046875 m 0
 194.3359375 654.98046875 167.48046875 666.69921875 147.94921875 666.69921875 c 0
 128.484375 666.69921875 93.2607421875 653.051757812 91.94140625 628.286132812 c 0
 91.30859375 616.40625 89.73046875 600.29296875 67.3828125 600.29296875 c 0
 47.8515625 600.29296875 46.38671875 613.96484375 46.38671875 617.3828125 c 0
 46.38671875 634.47265625 72.75390625 685.25390625 160.15625 685.25390625 c 0
 211.9140625 685.25390625 244.62890625 665.72265625 244.62890625 629.58984375 c 0
 244.62890625 600.29296875 222.65625 576.85546875 193.84765625 561.23046875 c 1
 227.05078125 557.8125 273.92578125 532.5390625 273.92578125 474.31640625 c 0
 273.92578125 405.46875 207.51953125 362.98828125 128.41796875 362.98828125 c 0
 90.8203125 362.98828125 38.57421875 377.1484375 38.57421875 398.14453125 c 0
 38.57421875 408.3984375 52.201171875 415.72265625 62.98828125 415.72265625 c 0
 76.521484375 415.72265625 82.56640625 409.584960938 88.623046875 401.978515625 c 0
 96.923828125 391.552734375 107.048828125 380.078125 139.16015625 380.078125 c 0
 158.203125 380.078125 220.21484375 397.65625 220.21484375 466.9921875 c 0
 220.21484375 523.6328125 161.1328125 534.375 136.71875 534.375 c 0
 129.8828125 534.375 124.51171875 533.88671875 116.69921875 532.421875 c 1
 114.74609375 549.0234375 l 1
 158.69140625 554.8828125 194.3359375 582.71484375 194.3359375 623.73046875 c 0
-17.08984375 -82.8125 m 1
 339.35546875 -82.8125 l 1
 332.03125 -121.875 l 1
 -24.4140625 -121.875 l 1
 -17.08984375 -82.8125 l 1
EndSplineSet
Comment: "U_Re(4)"
EndChar

StartChar: uni2076.Display.1
Encoding: 1115456 -1 178
Width: 0
VWidth: 0
Flags: H
LayerCount: 2
Fore
SplineSet
217 501 m 0
 217 523 213 578 156 578 c 0
 142 578 120 572 99 555 c 0
 98 550 98 542 98 536 c 0
 98 452 138 429 166 429 c 0
 210 429 217 463 217 501 c 0
274 506 m 0
 274 470 245 405 166 405 c 0
 116 405 45 434 45 538 c 0
 45 620 103 723 256 734 c 1
 256 715 l 1
 147 696 112 629 101 571 c 1
 115 585 142 602 167 602 c 0
 264 602 274 523 274 506 c 0
EndSplineSet
Comment: "DR(170 166 148 146 144 143 142 141), aDRS(154 153 151 150 148 147 144 143 142)"
EndChar

StartChar: uni2076.DisplayItalic.1
Encoding: 1115472 -1 179
Width: 0
VWidth: 0
Flags: H
LayerCount: 2
Fore
SplineSet
313.712890625 501 m 0
 318.389648438 523 326.080078125 578 269.080078125 578 c 0
 255.080078125 578 231.8046875 572 207.19140625 555 c 0
 205.12890625 550 203.427734375 542 202.15234375 536 c 0
 184.297851562 452 219.409179688 429 247.409179688 429 c 0
 291.409179688 429 305.635742188 463 313.712890625 501 c 0
371.776367188 506 m 0
 364.124023438 470 321.307617188 405 242.306640625 405 c 0
 192.306640625 405 127.470703125 434 149.577148438 538 c 0
 167.006835938 620 246.899414062 723 402.23828125 734 c 1
 398.19921875 715 l 1
 285.161132812 696 235.920898438 629 212.591796875 571 c 1
 229.568359375 585 260.181640625 602 285.181640625 602 c 0
 382.181640625 602 375.389648438 523 371.776367188 506 c 0
EndSplineSet
Comment: "aDRL(153 151 150 148 147 144)"
EndChar

StartChar: uni2076.DisplayItalic.2
Encoding: 1115473 -1 180
Width: 0
VWidth: 0
Flags: H
LayerCount: 2
Fore
SplineSet
313.712890625 501 m 0
 318.389648438 523 326.080078125 578 269.080078125 578 c 0
 255.080078125 578 231.8046875 572 207.19140625 555 c 0
 205.12890625 550 203.427734375 542 202.15234375 536 c 0
 184.297851562 452 219.409179688 429 247.409179688 429 c 0
 291.409179688 429 305.635742188 463 313.712890625 501 c 0
371.776367188 506 m 0
 364.124023438 470 321.307617188 405 242.307617188 405 c 0
 192.307617188 405 127.471679688 434 149.578125 538 c 0
 167.0078125 620 246.900390625 723 402.239257812 734 c 1
 398.200195312 715 l 1
 285.162109375 696 235.920898438 629 212.591796875 571 c 1
 229.568359375 585 260.181640625 602 285.181640625 602 c 0
 382.181640625 602 375.389648438 523 371.776367188 506 c 0
EndSplineSet
Comment: "aDRL(143 142)"
EndChar

StartChar: uni2076.Regular.1
Encoding: 1115488 -1 181
Width: 0
VWidth: 0
Flags: H
LayerCount: 2
Fore
SplineSet
217 501 m 0
 217 523 213 578 156 578 c 0
 142 578 120 572 99 555 c 0
 98 550 98 542 98 536 c 0
 98 452 138 429 166 429 c 0
 210 429 217 463 217 501 c 0
274 506 m 0
 274 470 245 405 166 405 c 0
 116 405 45 434 45 538 c 0
 45 620 103 723 256 734 c 1
 256 715 l 1
 147 696 112 629 101 571 c 1
 115 585 142 602 167 602 c 0
 264 602 274 523 274 506 c 0
EndSplineSet
Comment: "R(170 166 153 152 151 148 146 144 142 139 130 127 125 121 118 116 115 114 111), Re(108 105 103 96 90 89 88 79 78 76 61 41), Sc(108 107 105 103 95 94 90), aS(154 153 151 150 148 147 144 143 142 140 139 132 126 122 120 117 115)"
EndChar

StartChar: uni2076.Regular.2
Encoding: 1115489 -1 182
Width: 0
VWidth: 0
Flags: H
LayerCount: 2
Fore
SplineSet
274 506 m 0
 274 470 245 405 166 405 c 0
 116 405 45 434 45 538 c 0
 45 620 103 723 256 734 c 1
 256 715 l 1
 147 696 112 629 101 571 c 1
 115 585 142 602 167 602 c 0
 264 602 274 523 274 506 c 0
217 501 m 0
 217 523 213 578 156 578 c 0
 142 578 120 572 99 555 c 0
 98 550 98 542 98 536 c 0
 98 452 138 429 166 429 c 0
 210 429 217 463 217 501 c 0
EndSplineSet
Comment: "Re(102 97 75 62), Sc(102 97)"
EndChar

StartChar: uni2076.Regular.3
Encoding: 1115490 -1 183
Width: 0
VWidth: 0
Flags: H
LayerCount: 2
Fore
SplineSet
217 501 m 0
 217 523 210 582 153 582 c 0
 139 582 120 579 93 555 c 1
 93 536 l 2
 93 452 135 423 163 423 c 0
 207 423 217 463 217 501 c 0
271 506 m 0
 271 470 242 405 163 405 c 0
 113 405 42 434 42 538 c 0
 42 620 100 723 253 734 c 1
 253 723 l 1
 144 704 107 629 95 571 c 1
 110 585 139 600 164 600 c 0
 261 600 271 523 271 506 c 0
EndSplineSet
Comment: "C(89 88 79 78 76), C_Re(61 41)"
EndChar

StartChar: uni2076.Regular.4
Encoding: 1115491 -1 184
Width: 0
VWidth: 0
Flags: H
LayerCount: 2
Fore
SplineSet
271 506 m 0
 271 470 242 405 163 405 c 0
 113 405 42 434 42 538 c 0
 42 620 100 723 253 734 c 1
 253 723 l 1
 144 704 107 629 95 571 c 1
 110 585 139 600 164 600 c 0
 261 600 271 523 271 506 c 0
217 501 m 0
 217 523 210 582 153 582 c 0
 139 582 120 579 93 555 c 1
 93 536 l 2
 93 452 135 423 163 423 c 0
 207 423 217 463 217 501 c 0
EndSplineSet
Comment: "C_Re(62)"
EndChar

StartChar: uni2076.Regular.5
Encoding: 1115492 -1 185
Width: 0
VWidth: 0
Flags: H
LayerCount: 2
Fore
SplineSet
217 529 m 0
 217 551 213 606 156 606 c 0
 142 606 120 600 99 583 c 0
 98 578 98 570 98 564 c 0
 98 480 138 457 166 457 c 0
 210 457 217 491 217 529 c 0
274 534 m 0
 274 498 245 433 166 433 c 0
 116 433 45 462 45 566 c 0
 45 648 103 751 256 762 c 1
 256 743 l 1
 147 724 112 657 101 599 c 1
 115 613 142 630 167 630 c 0
 264 630 274 551 274 534 c 0
EndSplineSet
Comment: "Re(35)"
EndChar

StartChar: uni2076.Regular.6
Encoding: 1115493 -1 186
Width: 0
VWidth: 0
Flags: H
LayerCount: 2
Fore
SplineSet
217 529 m 0
 217 551 210 610 153 610 c 0
 139 610 120 607 93 583 c 1
 93 564 l 2
 93 480 135 451 163 451 c 0
 207 451 217 491 217 529 c 0
271 534 m 0
 271 498 242 433 163 433 c 0
 113 433 42 462 42 566 c 0
 42 648 100 751 253 762 c 1
 253 751 l 1
 144 732 107 657 95 599 c 1
 110 613 139 628 164 628 c 0
 261 628 271 551 271 534 c 0
EndSplineSet
Comment: "C_Re(35)"
EndChar

StartChar: uni2076.Regular.7
Encoding: 1115494 -1 187
Width: 0
VWidth: 0
Flags: H
LayerCount: 2
Fore
SplineSet
217.7734375 454.78515625 m 0
 217.7734375 476.7578125 212.890625 531.4453125 156.25 531.4453125 c 0
 142.578125 531.4453125 120.60546875 525.5859375 99.12109375 508.984375 c 1
 98.6328125 503.61328125 98.6328125 495.3125 98.6328125 489.453125 c 0
 98.6328125 405.95703125 138.18359375 383.0078125 166.50390625 383.0078125 c 0
 210.44921875 383.0078125 217.7734375 417.1875 217.7734375 454.78515625 c 0
273.92578125 459.66796875 m 0
 273.92578125 423.53515625 245.60546875 358.59375 166.50390625 358.59375 c 0
 116.69921875 358.59375 44.921875 387.40234375 44.921875 491.40625 c 0
 44.921875 573.4375 103.02734375 676.46484375 255.859375 688.18359375 c 1
 255.859375 668.65234375 l 1
 146.97265625 649.609375 112.3046875 583.203125 101.07421875 524.609375 c 1
 115.234375 539.2578125 142.578125 555.859375 167.48046875 555.859375 c 0
 264.16015625 555.859375 273.92578125 476.7578125 273.92578125 459.66796875 c 0
EndSplineSet
Comment: "Re(4)"
EndChar

StartChar: uni2076.Regular.8
Encoding: 1115495 -1 188
Width: 0
VWidth: 0
Flags: H
LayerCount: 2
Fore
SplineSet
217.28515625 454.78515625 m 0
 217.28515625 476.7578125 209.9609375 535.3515625 153.3203125 535.3515625 c 0
 139.6484375 535.3515625 120.1171875 532.421875 93.75 508.984375 c 1
 93.26171875 503.61328125 93.26171875 495.3125 93.26171875 489.453125 c 0
 93.26171875 405.95703125 135.25390625 376.66015625 163.57421875 376.66015625 c 0
 207.51953125 376.66015625 217.28515625 417.1875 217.28515625 454.78515625 c 0
270.99609375 459.66796875 m 0
 270.99609375 423.53515625 242.67578125 358.59375 163.57421875 358.59375 c 0
 113.76953125 358.59375 41.9921875 387.40234375 41.9921875 491.40625 c 0
 41.9921875 573.4375 100.09765625 676.46484375 252.9296875 688.18359375 c 1
 252.9296875 676.953125 l 1
 144.04296875 657.91015625 106.93359375 583.203125 95.703125 524.609375 c 1
 109.86328125 539.2578125 139.6484375 553.41796875 164.55078125 553.41796875 c 0
 261.23046875 553.41796875 270.99609375 476.7578125 270.99609375 459.66796875 c 0
EndSplineSet
Comment: "C_Re(4)"
EndChar

StartChar: uni2076.Italic.1
Encoding: 1115504 -1 189
Width: 0
VWidth: 0
Flags: H
LayerCount: 2
Fore
SplineSet
315.5 529.299804688 m 0
 315.5 552.5 306.799804688 578 268 578 c 0
 254 578 231 572 206 555 c 1
 199.599609375 539.099609375 195.599609375 509.299804688 195.599609375 493 c 0
 195.599609375 443.799804688 222.5 429 245 429 c 0
 268 429 283.099609375 438.299804688 293.400390625 452.599609375 c 0
 306.700195312 471 315.5 498.900390625 315.5 529.299804688 c 0
326.799804688 437.599609375 m 0
 305.5 419 276.599609375 405 240 405 c 0
 197.200195312 405 144.200195312 426.200195312 144.200195312 497.5 c 0
 144.200195312 526.400390625 152.099609375 555 162.299804688 578 c 0
 194.5 650.299804688 272.5 724.700195312 403 734 c 1
 399 715 l 1
 286 696 236 629 212 571 c 1
 229 585 260 602 285 602 c 0
 359.5 602 372.099609375 555.400390625 372.099609375 526.099609375 c 0
 372.099609375 490.299804688 356.900390625 464 326.799804688 437.599609375 c 0
EndSplineSet
Comment: "RI(170 153 152 151 148), aSI(154 153 151 150 148)"
EndChar

StartChar: uni2076.Italic.2
Encoding: 1115505 -1 190
Width: 0
VWidth: 0
Flags: H
LayerCount: 2
Fore
SplineSet
377.799804688 525.200195312 m 0
 377.799804688 472.200195312 323.599609375 405 245.599609375 405 c 0
 202.799804688 405 149.299804688 426.299804688 149.299804688 497.700195312 c 0
 149.299804688 595.900390625 237.5 721.900390625 408.5 734 c 1
 404.299804688 715 l 1
 291.099609375 696 241.299804688 629 217.400390625 571 c 1
 234.5 585 265.299804688 602 290.299804688 602 c 0
 365.5 602 377.799804688 554.5 377.799804688 525.200195312 c 0
317.900390625 501 m 0
 319.5 508 321.299804688 518.400390625 321.299804688 529.299804688 c 0
 321.299804688 552.5 312.700195312 578 273.900390625 578 c 0
 259.900390625 578 236.599609375 572 211.799804688 555 c 1
 207.099609375 543.799804688 201.400390625 511.900390625 201.400390625 493.400390625 c 0
 201.400390625 443.799804688 228.400390625 429 250.900390625 429 c 0
 294.900390625 429 309.5 463 317.900390625 501 c 0
EndSplineSet
Comment: "RI(166)"
EndChar

StartChar: uni2076.Italic.3
Encoding: 1115506 -1 191
Width: 0
VWidth: 0
Flags: H
LayerCount: 2
Fore
SplineSet
377.799804688 525.200195312 m 0
 377.799804688 472.200195312 323.599609375 405 245.599609375 405 c 0
 202.799804688 405 149.299804688 426.299804688 149.299804688 497.700195312 c 0
 149.299804688 595.900390625 237.5 721.900390625 408.5 734 c 1
 404.299804688 715 l 1
 291.099609375 696 241.299804688 629 217.400390625 571 c 1
 234.5 585 265.299804688 602 290.299804688 602 c 0
 365.5 602 377.799804688 554.5 377.799804688 525.200195312 c 0
317.900390625 501 m 0
 319.5 508 321.299804688 518.400390625 321.299804688 529.299804688 c 0
 321.299804688 552.5 312.700195312 578 273.900390625 578 c 0
 259.900390625 578 236.599609375 572 211.799804688 555 c 1
 207.099609375 543.799804688 201.400390625 511.900390625 201.400390625 493.400390625 c 0
 201.400390625 443.900390625 228.400390625 429 250.900390625 429 c 0
 294.900390625 429 309.5 463 317.900390625 501 c 0
EndSplineSet
Comment: "ISc(95 94 90), It(96 90 89 79 78 76), RI(146 144 142 130 127 125 121 118 116 115 114 111), aSI(147 144 143 142 140 139 132 126 122 120 117 115)"
EndChar

StartChar: uni2076.Italic.4
Encoding: 1115507 -1 192
Width: 0
VWidth: 0
Flags: H
LayerCount: 2
Fore
SplineSet
377.799804688 525.200195312 m 0
 377.799804688 472.200195312 323.599609375 405 245.599609375 405 c 0
 202.799804688 405 149.299804688 426.299804688 149.299804688 497.700195312 c 0
 149.299804688 595.900390625 237.5 721.900390625 408.5 734 c 1
 404.299804688 715 l 1
 291.099609375 696 241.299804688 629 217.400390625 571 c 1
 234.5 585 265.299804688 602 290.299804688 602 c 0
 365.5 602 377.799804688 554.5 377.799804688 525.200195312 c 0
317.900390625 501 m 0
 319.5 508 321.299804688 518.400390625 321.299804688 529.299804688 c 0
 321.299804688 552.5 312.700195312 578 273.900390625 578 c 0
 259.900390625 578 236.599609375 572 211.799804688 555 c 1
 207.099609375 543.799804688 201.400390625 511.900390625 201.400390625 493.400390625 c 0
 201.400390625 443.900390625 228.400390625 429 250.900390625 429 c 0
 294.900390625 429 309.299804688 463 317.900390625 501 c 0
EndSplineSet
Comment: "ISc(108 107 105 103), It(108 105 103)"
EndChar

StartChar: uni2076.Italic.5
Encoding: 1115508 -1 193
Width: 0
VWidth: 0
Flags: H
LayerCount: 2
Fore
SplineSet
317.900390625 501 m 0
 319.5 508 321.299804688 518.400390625 321.299804688 529.299804688 c 0
 321.299804688 552.5 312.700195312 578 273.900390625 578 c 0
 259.900390625 578 236.599609375 572 211.799804688 555 c 1
 207.099609375 543.799804688 201.400390625 511.900390625 201.400390625 493.400390625 c 0
 201.400390625 443.900390625 228.400390625 429 250.900390625 429 c 0
 294.900390625 429 309.400390625 463 317.900390625 501 c 0
377.799804688 525.200195312 m 0
 377.799804688 472.200195312 323.599609375 405 245.599609375 405 c 0
 202.799804688 405 149.299804688 426.299804688 149.299804688 497.700195312 c 0
 149.299804688 595.900390625 237.5 721.900390625 408.5 734 c 1
 404.299804688 715 l 1
 291.099609375 696 241.299804688 629 217.400390625 571 c 1
 234.5 585 265.299804688 602 290.299804688 602 c 0
 365.5 602 377.799804688 554.5 377.799804688 525.200195312 c 0
EndSplineSet
Comment: "ISc(102 97), It(102 97 88)"
EndChar

StartChar: uni2076.Italic.6
Encoding: 1115509 -1 194
Width: 0
VWidth: 0
Flags: H
LayerCount: 2
Fore
SplineSet
317.87109375 501 m 0
 319.4296875 508.03125 321.327148438 518.430664062 321.327148438 529.330078125 c 0
 321.327148438 552.536132812 312.725585938 578 273.94140625 578 c 0
 259.94140625 578 236.611328125 572 211.842773438 555 c 1
 207.119140625 543.797851562 201.393554688 511.982421875 201.393554688 493.43359375 c 0
 201.393554688 443.883789062 228.384765625 429 250.909179688 429 c 0
 294.909179688 429 309.446289062 463 317.87109375 501 c 0
377.859375 525.212890625 m 0
 377.859375 472.166015625 323.614257812 405 245.588867188 405 c 0
 202.767578125 405 149.259765625 426.26953125 149.259765625 497.705078125 c 0
 149.259765625 595.86328125 237.556640625 721.901367188 408.526367188 734 c 1
 404.313476562 715 l 1
 291.1015625 696 241.248046875 629 217.389648438 571 c 1
 234.493164062 585 265.262695312 602 290.262695312 602 c 0
 365.5 602 377.859375 554.471679688 377.859375 525.212890625 c 0
EndSplineSet
Comment: "It(62)"
EndChar

StartChar: uni2076.Italic.7
Encoding: 1115510 -1 195
Width: 0
VWidth: 0
Flags: H
LayerCount: 2
Fore
SplineSet
378 525 m 0
 378 472 324 405 246 405 c 0
 203 405 149 426 149 498 c 0
 149 596 238 722 409 734 c 1
 404 715 l 1
 291 696 241 629 217 571 c 1
 234 585 265 602 290 602 c 0
 366 602 378 554 378 525 c 0
318 501 m 0
 319 508 321 518 321 529 c 0
 321 553 313 578 274 578 c 0
 260 578 237 572 212 555 c 1
 207 544 201 512 201 493 c 0
 201 444 228 429 251 429 c 0
 295 429 309 463 318 501 c 0
EndSplineSet
Comment: "It(61 41)"
EndChar

StartChar: uni2076.Italic.8
Encoding: 1115511 -1 196
Width: 0
VWidth: 0
Flags: H
LayerCount: 2
Fore
SplineSet
306 529 m 0
 311 551 316 605 259 605 c 0
 246 605 223 599 198 583 c 0
 196 577 195 569 194 563 c 0
 178 480 212 457 241 457 c 0
 285 457 299 491 306 529 c 0
363 533 m 0
 356 497 315 432 236 432 c 0
 187 432 120 461 141 565 c 0
 156 647 234 750 390 762 c 1
 386 742 l 1
 273 723 226 657 203 598 c 1
 220 613 250 630 275 630 c 0
 372 630 367 551 363 533 c 0
EndSplineSet
Comment: "It(35)"
EndChar

StartChar: uni2076.Italic.9
Encoding: 1115512 -1 197
Width: 0
VWidth: 0
Flags: H
LayerCount: 2
Fore
SplineSet
306.15234375 454.78515625 m 0
 307.3671875 460.938476562 308.666992188 469.65234375 308.666992188 479.013671875 c 0
 308.666992188 503.095703125 300.064453125 531.4453125 259.27734375 531.4453125 c 0
 245.60546875 531.4453125 222.65625 525.5859375 198.2421875 508.984375 c 1
 196.2890625 503.61328125 194.82421875 495.3125 193.84765625 489.453125 c 0
 191.009765625 474.75 189.748046875 461.923828125 189.748046875 450.770507812 c 0
 189.748046875 398.5859375 217.389648438 383.0078125 240.72265625 383.0078125 c 0
 284.66796875 383.0078125 298.734375 417.206054688 306.15234375 454.78515625 c 0
363.28125 459.66796875 m 0
 356.4453125 423.53515625 315.4296875 358.59375 236.328125 358.59375 c 0
 192.821289062 358.59375 136.90234375 380.52734375 136.90234375 455.447265625 c 0
 136.90234375 466.291015625 138.07421875 478.24609375 140.625 491.40625 c 0
 156.515625 573.383789062 234.375 676.46484375 389.6484375 688.18359375 c 1
 385.7421875 668.65234375 l 1
 273.4375 649.609375 225.5859375 583.203125 203.125 524.609375 c 1
 220.21484375 539.2578125 250.48828125 555.859375 275.390625 555.859375 c 0
 352.633789062 555.859375 364.734375 505.366210938 364.734375 476.346679688 c 0
 364.734375 469.044921875 363.96875 463.103515625 363.28125 459.66796875 c 0
EndSplineSet
Comment: "It(4)"
EndChar

StartChar: uni2076.Slant.1
Encoding: 1115520 -1 198
Width: 0
VWidth: 0
Flags: H
LayerCount: 2
Fore
SplineSet
313.712890625 501 m 0
 318.389648438 523 326.080078125 578 269.080078125 578 c 0
 255.080078125 578 231.8046875 572 207.19140625 555 c 0
 205.12890625 550 203.427734375 542 202.15234375 536 c 0
 184.297851562 452 219.409179688 429 247.409179688 429 c 0
 291.409179688 429 305.635742188 463 313.712890625 501 c 0
371.776367188 506 m 0
 364.124023438 470 321.307617188 405 242.306640625 405 c 0
 192.306640625 405 127.470703125 434 149.577148438 538 c 0
 167.006835938 620 246.899414062 723 402.23828125 734 c 1
 398.19921875 715 l 1
 285.161132812 696 235.920898438 629 212.591796875 571 c 1
 229.568359375 585 260.181640625 602 285.181640625 602 c 0
 382.181640625 602 375.389648438 523 371.776367188 506 c 0
EndSplineSet
Comment: "aRL(154 153 151 150 148 147 144)"
EndChar

StartChar: uni2076.Slant.2
Encoding: 1115521 -1 199
Width: 0
VWidth: 0
Flags: H
LayerCount: 2
Fore
SplineSet
313.712890625 501 m 0
 318.389648438 523 326.080078125 578 269.080078125 578 c 0
 255.080078125 578 231.8046875 572 207.19140625 555 c 0
 205.12890625 550 203.427734375 542 202.15234375 536 c 0
 184.297851562 452 219.409179688 429 247.409179688 429 c 0
 291.409179688 429 305.635742188 463 313.712890625 501 c 0
371.776367188 506 m 0
 364.124023438 470 321.307617188 405 242.307617188 405 c 0
 192.307617188 405 127.471679688 434 149.578125 538 c 0
 167.0078125 620 246.900390625 723 402.239257812 734 c 1
 398.200195312 715 l 1
 285.162109375 696 235.920898438 629 212.591796875 571 c 1
 229.568359375 585 260.181640625 602 285.181640625 602 c 0
 382.181640625 602 375.389648438 523 371.776367188 506 c 0
EndSplineSet
Comment: "Sl(108 107 105 103 95 94 90 89 88 79 78 76), aRL(143 142 140 139 132 126 122 120 117 115)"
EndChar

StartChar: uni2076.Slant.3
Encoding: 1115522 -1 200
Width: 0
VWidth: 0
Flags: H
LayerCount: 2
Fore
SplineSet
371.776367188 506 m 0
 364.124023438 470 321.307617188 405 242.307617188 405 c 0
 192.307617188 405 127.471679688 434 149.578125 538 c 0
 167.0078125 620 246.900390625 723 402.239257812 734 c 1
 398.200195312 715 l 1
 285.162109375 696 235.920898438 629 212.591796875 571 c 1
 229.568359375 585 260.181640625 602 285.181640625 602 c 0
 382.181640625 602 375.389648438 523 371.776367188 506 c 0
313.712890625 501 m 0
 318.389648438 523 326.080078125 578 269.080078125 578 c 0
 255.080078125 578 231.8046875 572 207.19140625 555 c 0
 205.12890625 550 203.427734375 542 202.15234375 536 c 0
 184.297851562 452 219.409179688 429 247.409179688 429 c 0
 291.409179688 429 305.635742188 463 313.712890625 501 c 0
EndSplineSet
Comment: "Sl(102 97)"
EndChar

StartChar: uni2076.Semibold.1
Encoding: 1115536 -1 201
Width: 0
VWidth: 0
Flags: H
LayerCount: 2
Fore
SplineSet
220 505 m 0
 220 525 206 577 165 577 c 0
 148 577 136 574 114 557 c 1
 114 539 l 2
 114 460 146 433 175 433 c 0
 207 433 220 470 220 505 c 0
295 510 m 0
 295 472 266 405 175 405 c 0
 119 405 42 435 42 541 c 0
 42 624 105 721 280 734 c 1
 280 714 l 1
 187 698 138 646 122 596 c 1
 136 601 161 604 176 604 c 0
 287 604 295 528 295 510 c 0
EndSplineSet
Comment: "RZ(170 166 151 150 148 146 144 142 131)"
EndChar

StartChar: uni2076.SemiboldItalic.1
Encoding: 1115552 -1 202
Width: 0
VWidth: 0
Flags: H
LayerCount: 2
Fore
SplineSet
304 499 m 0
 305 505 307 515 307 525 c 0
 307 547 300 571 272 571 c 0
 263 571 249 568 220 546 c 1
 226 549 l 1
 225 544 223 539 222 533 c 0
 219 516 217 501 217 488 c 0
 217 443 236 427 253 427 c 0
 283 427 297 464 304 499 c 0
392 504 m 0
 384 466 338 400 248 400 c 0
 198 400 135 422 135 500 c 0
 135 510 136 523 139 535 c 0
 155 618 242 718 420 731 c 1
 416 712 l 1
 319 695 269 640 242 589 c 1
 257 595 274 598 289 598 c 0
 379 598 393 547 393 519 c 0
 393 513 392 507 392 504 c 0
EndSplineSet
Comment: "RZI(170 166 151 150 148 146), aSZI(154 153 151 150 148 147)"
EndChar

StartChar: uni2076.SemiboldItalic.2
Encoding: 1115553 -1 203
Width: 0
VWidth: 0
Flags: H
LayerCount: 2
Fore
SplineSet
304 499 m 0
 305 505 307 515 307 525 c 0
 307 547 300 571 272 571 c 0
 263 571 249 568 220 546 c 1
 226 549 l 1
 225 544 223 539 222 533 c 0
 219.099609375 516 217 501 217 488 c 0
 217 443 236 427 253 427 c 0
 283 427 297 464 304 499 c 0
392 504 m 0
 384 466 338 400 248 400 c 0
 198 400 135 422 135 500 c 0
 135 510 136 523 139 535 c 0
 155 618 242 718 420 731 c 1
 416 712 l 1
 319 695 269 640 242 589 c 1
 257 595 274 598 289 598 c 0
 379 598 393 547 393 519 c 0
 393 513 392 507 392 504 c 0
EndSplineSet
Comment: "RZI(144 142), aSZI(144 143 142 140 139 132)"
EndChar

StartChar: uni2076.SemiBoldSlant.1
Encoding: 1115568 -1 204
Width: 0
VWidth: 0
Flags: H
LayerCount: 2
Fore
SplineSet
317.563476562 505 m 0
 321.814453125 525 318.8671875 577 277.8671875 577 c 0
 260.8671875 577 248.228515625 574 222.615234375 557 c 0
 221.552734375 552 219.852539062 544 218.7890625 539 c 0
 201.997070312 460 228.258789062 433 257.258789062 433 c 0
 289.258789062 433 310.123046875 470 317.563476562 505 c 0
393.625976562 510 m 0
 385.548828125 472 342.307617188 405 251.307617188 405 c 0
 195.307617188 405 124.684570312 435 147.215820312 541 c 0
 164.857421875 624 248.475585938 721 426.239257812 734 c 1
 421.987304688 714 l 1
 325.586914062 698 265.534179688 646 238.90625 596 c 1
 253.96875 601 279.606445312 604 294.606445312 604 c 0
 405.606445312 604 397.452148438 528 393.625976562 510 c 0
EndSplineSet
Comment: "aZL(154 153 151 150 148 147 144)"
EndChar

StartChar: uni2076.SemiBoldSlant.2
Encoding: 1115569 -1 205
Width: 0
VWidth: 0
Flags: H
LayerCount: 2
Fore
SplineSet
317.563476562 505 m 0
 321.814453125 525 318.8671875 577 277.8671875 577 c 0
 260.8671875 577 248.228515625 574 222.616210938 557 c 0
 221.553710938 552 219.853515625 544 218.790039062 539 c 0
 201.998046875 460 228.259765625 433 257.259765625 433 c 0
 289.259765625 433 310.124023438 470 317.563476562 505 c 0
393.625976562 510 m 0
 385.548828125 472 342.307617188 405 251.307617188 405 c 0
 195.307617188 405 124.684570312 435 147.215820312 541 c 0
 164.857421875 624 248.475585938 721 426.239257812 734 c 1
 421.98828125 714 l 1
 325.586914062 698 265.534179688 646 238.90625 596 c 1
 253.96875 601 279.606445312 604 294.606445312 604 c 0
 405.606445312 604 397.452148438 528 393.625976562 510 c 0
EndSplineSet
Comment: "aZL(143 142 140 139 132)"
EndChar

StartChar: uni2076.Bold.1
Encoding: 1115584 -1 206
Width: 0
VWidth: 0
Flags: H
LayerCount: 2
Fore
SplineSet
210 511.799804688 m 0
 210 533.400390625 205 589.599609375 164 589.599609375 c 0
 147 589.599609375 137 587 122 575 c 1
 122 548.599609375 l 2
 122 463.299804688 145 436 174 436 c 0
 206 436 210 474 210 511.799804688 c 0
295 517.200195312 m 0
 295 476.200195312 263 403.799804688 174 403.799804688 c 0
 135 403.799804688 107.299804688 412 81 433 c 0
 56 453 40 492.299804688 40 550.700195312 c 0
 40 640.299804688 104 750.200195312 279 764.200195312 c 1
 279 742.599609375 l 1
 186 725.299804688 146 664.099609375 130 610.099609375 c 1
 144 615.5 160 618.799804688 175 618.799804688 c 0
 218.400390625 618.799804688 245.200195312 613.5 263 597 c 0
 290.700195312 571.400390625 295 529 295 517.200195312 c 0
EndSplineSet
Comment: "RB(170 166 153 152 151 150 148 146 144 143 142 139 130), aBS(154 153 151 150 148 147 144 143 142 140 139 132)"
EndChar

StartChar: uni2076.Bold.2
Encoding: 1115585 -1 207
Width: 0
VWidth: 0
Flags: H
LayerCount: 2
Fore
SplineSet
220 505 m 0
 220 525 206 577 165 577 c 0
 148 577 136 574 114 557 c 1
 114 539 l 2
 114 460 146 433 175 433 c 0
 207 433 220 470 220 505 c 0
295 510 m 0
 295 472 266 405 175 405 c 0
 119 405 42 435 42 541 c 0
 42 624 105 721 280 734 c 1
 280 714 l 1
 187 698 138 646 122 596 c 1
 136 601 161 604 176 604 c 0
 287 604 295 528 295 510 c 0
EndSplineSet
Comment: "BSc(108 107 105 103 95 94 90), Bd(108 105 103 99 90 89 79 78 76 61 41), RB(127 125 121 118 116 115 114 111), aBS(126 122 120 117 115), aZS(154 153 151 150 148 147 144 143 142 140 139 132)"
EndChar

StartChar: uni2076.Bold.3
Encoding: 1115586 -1 208
Width: 0
VWidth: 0
Flags: H
LayerCount: 2
Fore
SplineSet
295 510 m 0
 295 472 266 405 175 405 c 0
 119 405 42 435 42 541 c 0
 42 624 105 721 280 734 c 1
 280 714 l 1
 187 698 138 646 122 596 c 1
 136 601 161 604 176 604 c 0
 287 604 295 528 295 510 c 0
220 505 m 0
 220 525 206 577 165 577 c 0
 148 577 136 574 114 557 c 1
 114 539 l 2
 114 460 146 433 175 433 c 0
 207 433 220 470 220 505 c 0
EndSplineSet
Comment: "BSc(102 97), Bd(102 97 88 75 62)"
EndChar

StartChar: uni2076.Bold.4
Encoding: 1115587 -1 209
Width: 0
VWidth: 0
Flags: H
LayerCount: 2
Fore
SplineSet
216 537 m 0
 216 557 206 609 165 609 c 0
 157 609 140 606 118 589 c 1
 118 571 l 2
 118 492 154 465 175 465 c 0
 205 465 216 502 216 537 c 0
295 542 m 0
 295 504 266 437 175 437 c 0
 119 437 42 467 42 573 c 0
 42 656 105 756 280 769 c 1
 280 749 l 1
 187 733 142 678 126 628 c 1
 140 633 161 636 176 636 c 0
 287 636 295 560 295 542 c 0
EndSplineSet
Comment: "Bd(35)"
EndChar

StartChar: uni2076.Bold.5
Encoding: 1115588 -1 210
Width: 0
VWidth: 0
Flags: H
LayerCount: 2
Fore
SplineSet
216.796875 462.59765625 m 0
 216.796875 483.10546875 206.54296875 534.375 165.52734375 534.375 c 0
 156.999023438 534.375 139.873046875 531.899414062 118.606445312 514.809570312 c 1
 118.1640625 509.462890625 118.1640625 501.977539062 118.1640625 496.77734375 c 0
 118.1640625 418.1640625 154.296875 390.33203125 175.78125 390.33203125 c 0
 205.078125 390.33203125 216.796875 427.9296875 216.796875 462.59765625 c 0
294.921875 467.48046875 m 0
 294.921875 429.8828125 266.11328125 362.98828125 175.78125 362.98828125 c 0
 119.62890625 362.98828125 42.48046875 392.28515625 42.48046875 498.73046875 c 0
 42.48046875 581.73828125 105.46875 681.34765625 280.76171875 695.01953125 c 1
 280.76171875 675 l 1
 187.5 658.88671875 142.578125 603.7109375 126.46484375 553.41796875 c 1
 140.625 558.7890625 161.62109375 562.20703125 176.7578125 562.20703125 c 0
 287.59765625 562.20703125 294.921875 485.546875 294.921875 467.48046875 c 0
EndSplineSet
Comment: "Bd(4)"
EndChar

StartChar: uni2076.BoldItalic.1
Encoding: 1115600 -1 211
Width: 0
VWidth: 0
Flags: H
LayerCount: 2
Fore
SplineSet
305.099609375 511.799804688 m 0
 309.700195312 533.400390625 316.900390625 589.599609375 278.400390625 589.599609375 c 0
 262.400390625 589.599609375 252.5 587 235.799804688 575 c 0
 234.700195312 569.599609375 231.299804688 554 230.200195312 548.599609375 c 0
 212.099609375 463.299804688 227.900390625 436 255.200195312 436 c 0
 285.299804688 436 297.099609375 474 305.099609375 511.799804688 c 0
386.200195312 517.200195312 m 0
 377.5 476.200195312 332 403.799804688 248.299804688 403.799804688 c 0
 211.599609375 403.799804688 187.299804688 412 167.099609375 433 c 0
 147.900390625 453 141.200195312 492.299804688 153.599609375 550.700195312 c 0
 172.700195312 640.299804688 256.099609375 750.200195312 423.599609375 764.200195312 c 1
 419 742.599609375 l 1
 327.900390625 725.299804688 277.299804688 664.099609375 250.799804688 610.099609375 c 1
 265.099609375 615.5 280.799804688 618.799804688 294.900390625 618.799804688 c 0
 335.700195312 618.799804688 359.799804688 613.5 373 597 c 0
 393.599609375 571.400390625 388.700195312 529 386.200195312 517.200195312 c 0
EndSplineSet
Comment: "RBI(170 166 153 152 151 150 148 146), aSBI(154 153 151 150 148 147)"
EndChar

StartChar: uni2076.BoldItalic.2
Encoding: 1115601 -1 212
Width: 0
VWidth: 0
Flags: H
LayerCount: 2
Fore
SplineSet
377.799804688 525.200195312 m 0
 377.799804688 472.200195312 323.599609375 405 245.599609375 405 c 0
 202.799804688 405 149.299804688 426.299804688 149.299804688 497.700195312 c 0
 149.299804688 595.900390625 237.5 721.900390625 408.5 734 c 1
 404.299804688 715 l 1
 291.099609375 696 241.299804688 629 217.400390625 571 c 1
 234.5 585 265.299804688 602 290.299804688 602 c 0
 365.5 602 377.799804688 554.5 377.799804688 525.200195312 c 0
317.900390625 501 m 0
 319.5 508 321.299804688 518.400390625 321.299804688 529.299804688 c 0
 321.299804688 552.5 312.700195312 578 273.900390625 578 c 0
 259.900390625 578 236.599609375 572 211.799804688 555 c 1
 207.099609375 543.799804688 201.400390625 511.900390625 201.400390625 493.400390625 c 0
 201.400390625 443.900390625 228.400390625 429 250.900390625 429 c 0
 294.900390625 429 309.5 463 317.900390625 501 c 0
EndSplineSet
Comment: "RBI(144 142), aSBI(144 143 142)"
EndChar

StartChar: uni2076.BoldItalic.3
Encoding: 1115602 -1 213
Width: 0
VWidth: 0
Flags: H
LayerCount: 2
Fore
SplineSet
304 499 m 0
 305 505 307 515 307 525 c 0
 307 547 300 571 272 571 c 0
 263 571 249 568 220 546 c 1
 226 549 l 1
 225 544 223 539 222 533 c 0
 219.099609375 516 217 501 217 488 c 0
 217 443 236 427 253 427 c 0
 283 427 297 464 304 499 c 0
392 504 m 0
 384 466 338 400 248 400 c 0
 198 400 135 422 135 500 c 0
 135 510 136 523 139 535 c 0
 155 618 242 718 420 731 c 1
 416 712 l 1
 319 695 269 640 242 589 c 1
 257 595 274 598 289 598 c 0
 379 598 393 547 393 519 c 0
 393 513 392 507 392 504 c 0
EndSplineSet
Comment: "BI(108 105 103 90 89 79 78 76), BiSc(108 107 105 103 95 94 90), RBI(130 127 125 121 118 116 115 114 111), aSBI(126 122 120 117 115)"
EndChar

